/* XPM */
static char *e11708452739[] = {
/* columns rows colors chars-per-pixel */
"32 32 179 2 ",
"   c #020203",
".  c #050706",
"X  c #080E12",
"o  c #01231E",
"O  c #0B351F",
"+  c #021929",
"@  c #162A2A",
"#  c #012237",
"$  c #1D2F35",
"%  c #163537",
"&  c #2E3A38",
"*  c #623F2E",
"=  c #104329",
"-  c #145938",
";  c #7B4F3A",
":  c #635A3D",
">  c #023A48",
",  c #1A3040",
"<  c #033956",
"1  c #123652",
"2  c #1A3C54",
"3  c #263649",
"4  c #024142",
"5  c #0A5453",
"6  c #23574A",
"7  c #235F58",
"8  c #1F6D47",
"9  c #2B6652",
"0  c #05486A",
"q  c #194968",
"w  c #165867",
"e  c #044A71",
"r  c #154E71",
"t  c #05557E",
"y  c #065E7B",
"u  c #145178",
"i  c #125F78",
"p  c #22557B",
"a  c #176168",
"s  c #077C6F",
"d  c #036574",
"f  c #117373",
"g  c #396060",
"h  c #53725F",
"j  c #4B566F",
"k  c #7B5E61",
"l  c #7A6C7E",
"z  c #727777",
"x  c #895B43",
"c  c #93624F",
"v  c #9D6449",
"b  c #896556",
"n  c #946551",
"m  c #A66A4E",
"M  c #B37557",
"N  c #BD7B5D",
"B  c #9F6F61",
"V  c #917277",
"C  c #A57366",
"Z  c #A87B78",
"A  c #288556",
"S  c #08817F",
"D  c #188870",
"F  c #2E9563",
"G  c #339868",
"H  c #279779",
"J  c #349C75",
"K  c #35A774",
"L  c #3AB379",
"P  c #5B866F",
"I  c #589973",
"U  c #B38762",
"Y  c #BC857A",
"T  c #CC8564",
"R  c #CC8566",
"E  c #D58B69",
"W  c #DD8F6A",
"Q  c #DF956F",
"!  c #C88A77",
"~  c #D18B71",
"^  c #D7937A",
"/  c #E1946F",
"(  c #E29673",
")  c #E69873",
"_  c #E89973",
"`  c #065B84",
"'  c #105E84",
"]  c #365F81",
"[  c #136787",
"{  c #0E7988",
"}  c #19738E",
"|  c #086697",
" . c #0B6B97",
".. c #097296",
"X. c #0A7C95",
"o. c #226082",
"O. c #2E7B8B",
"+. c #4B7993",
"@. c #7A6D81",
"#. c #7D758D",
"$. c #697E92",
"%. c #727B91",
"&. c #887481",
"*. c #A07B83",
"=. c #0B8287",
"-. c #0D8C8E",
";. c #128C82",
":. c #108B8B",
">. c #169787",
",. c #11978A",
"<. c #0B8496",
"1. c #0B8C95",
"2. c #1E8395",
"3. c #118A96",
"4. c #0C9696",
"5. c #0C9B95",
"6. c #189496",
"7. c #218D80",
"8. c #329B8F",
"9. c #218B97",
"0. c #279497",
"q. c #2A9D97",
"w. c #0DA495",
"e. c #2FA38C",
"r. c #34A983",
"t. c #39B480",
"y. c #2CA697",
"u. c #2AAC97",
"i. c #31A694",
"p. c #33AC96",
"a. c #2BB796",
"s. c #34B097",
"d. c #5F8991",
"f. c #469995",
"g. c #539894",
"h. c #52BF9F",
"j. c #7CAC8E",
"k. c #70B088",
"l. c #6AA1A6",
"z. c #32C195",
"x. c #3CC298",
"c. c #41C282",
"v. c #41CB92",
"b. c #57CB93",
"n. c #5CCD90",
"m. c #63C79E",
"M. c #74C499",
"N. c #6ED19A",
"B. c #4CE498",
"V. c #68C9A4",
"C. c #7ED9A5",
"Z. c #66E5A1",
"A. c #7EE4AB",
"S. c #918288",
"D. c #8C9296",
"F. c #AD8080",
"G. c #A08688",
"H. c #B68684",
"J. c #8AB299",
"K. c gray67",
"L. c #C58E80",
"P. c #8ED4AA",
"I. c #ACC7B9",
"U. c #A7DEBC",
"Y. c #8FE5B3",
"T. c #9FEABE",
"R. c #EBC9B6",
"E. c #ADDAC9",
"W. c #A6E7C2",
"Q. c #B9F1CE",
"!. c #CFCFD0",
"~. c #C7E9D8",
"^. c #D2F6DF",
"/. c #D7E8E4",
"(. c #D5F6E1",
"). c #DDF8E7",
"_. c #E2F0E7",
"`. c #ECFBF1",
"'. c #FEFFFE",
/* pixels */
"W W W W _ _ _ _ _ _ _ _ W W W W W W W W _ _ _ _ _ _ _ _ W W W W ",
"W W W W _ _ _ _ _ _ _ W W W W W W W W W _ _ _ _ _ _ _ W W W W W ",
"W W W W _ _ _ _ _ _ _ W W W W W W W W W _ _ _ _ _ _ _ W W W W W ",
"W W W _ _ _ _ _ _ _ _ W W W ~ *.N W W _ _ _ _ _ _ _ _ W W W W W ",
"W W W _ _ _ _ _ _ _ _ W W W ! i.V W W _ _ _ _ _ _ _ _ W W W W W ",
"W W W _ _ _ _ _ _ _ _ W W W T k T W W _ _ _ _ _ _ _ _ W W W W W ",
"W W W _ _ _ _ _ _ _ _ W W W W c W W W _ _ _ _ _ _ _ _ W W W W W ",
"W W W _ _ _ _ _ _ _ _ W W W W c W W W ) _ _ _ _ _ _ _ W W W W W ",
"W W W _ _ _ _ _ _ _ _ W W W W n W W W _ _ _ _ _ _ _ _ W W W W W ",
"W W W _ _ _ _ _ _ _ _ E Y S.f.8.f.d.Y ! _ _ _ _ _ _ _ W W W W W ",
"W W W _ _ _ _ _ _ _ / #.h.E.).).).~.V.g.! _ _ _ _ _ _ W W W W W ",
"W W W _ _ _ _ _ _ M d E.`.'.'.'.'.'.'.~.l.; / _ _ _ _ W W W W W ",
"W W W W _ _ _ W M 9 N.'.'.'.'.'.'.'.'.K.W.D x E _ _ _ W W W W W ",
"W W W W _ _ T : 5 m.`.`.Q.'.'.'.'.'./.& D.T.D . N _ _ W W W W W ",
"W W W W _ E P ..F Y.U.^.B.T.^.^.(.~.>.o . j.n.d O.U _ _ W W W W ",
"W W W W T z I.=.e.C.- ~.K H z.B.v.>.4 ] g k.n.-.5 k.R./ W W W W ",
"W W W x 0 J.I < 9.v.e s.2.0 1.a.5.y ` l.A.r.p.` 8 h P.: T W W W ",
"W W m 1 y   = . =.9.p...| |  . . .| |  .q.p.<.5 O - L i * W W W ",
"W E * e # A I.L w 1.9.s.x.x.x.x.v.s.v.s.p.X.{ G @ X   0 3 M W W ",
"W R s y 0 c._.D.9 7 f ..<.<.<.<.3.<.3.<.' 7 A $ G 6 X < -.v W W ",
"W R s > @ L M.y } [ 6 w w a a a a a a w 7 q 7.N._.P , + S m W W ",
"W E t + % ,.;.5.<.<.u.1.y.y.1.u.3.6.0.1.a.e L ^.!.r r . t Z W W ",
"W W Z p % w.w.w.<.w.w.y.B.T.T.V.5.w.3.w.w.` L b.j >.f < #.) W W ",
"W W W Z o.w.w.1.5.w.w.q.Z.'.'.Q.<.w.w.3.w.5.,.;.>.w.=.l Q _ W W ",
"W W W W Z r { X.4.w.w.X.J L L 7.4.w.w.<.w.w.5.1.:.i @.) _ _ W W ",
"W W W W E 2 2 2 %.$.1.4.:.:.,.6.5.5.5.X.5.+.%.j 2 2 B _ _ _ W W ",
"W W W W b 1.[ n _ ( H.H.H.H.*.Z *.H.F.F.F.! _ R q <.f ( _ _ W W ",
"W W W N H 5.G._ _ _ _ _ _ _ ( W W W W W W W _ _ ! g.w.b _ _ W W ",
"W W W Y [ *.^ _ _ _ _ _ _ _ W W W W W W W W _ _ _ L.O.&._ _ W W ",
"W W W ! C W _ _ _ _ _ _ _ W W W W W W W W W _ _ _ _ T ! _ W W W ",
"W W W W W ( _ _ _ _ _ _ _ W W W W W W W W W _ _ _ _ _ _ _ W W W ",
"W W W W W _ _ _ _ _ _ _ _ W W W W W W W W _ _ _ _ _ _ _ _ W W W "
};
