/* XPM */
static char *e11708272498[] = {
/* columns rows colors chars-per-pixel */
"32 32 161 2 ",
"   c #271B16",
".  c #36241C",
"X  c #2F2524",
"o  c #362A26",
"O  c #3B2D2C",
"+  c #3C312D",
"@  c #3E3332",
"#  c #3E363C",
"$  c #412C24",
"%  c #4B3227",
"&  c #553A2F",
"*  c #413536",
"=  c #493535",
"-  c #47393B",
";  c #523C37",
":  c #5F433A",
">  c #60433B",
",  c #66483C",
"<  c #744C3B",
"1  c #7F513C",
"2  c #2A3147",
"3  c #3A3B4E",
"4  c #353E58",
"5  c #4D3E43",
"6  c #433F4F",
"7  c #3A4562",
"8  c #4D4243",
"9  c #534546",
"0  c #594844",
"q  c #53444A",
"w  c #554A4B",
"e  c #5A4C4C",
"r  c #5B524D",
"t  c #5A4B50",
"y  c #634D46",
"u  c #6E4D43",
"i  c #65534E",
"p  c #785246",
"a  c #625555",
"s  c #64565B",
"d  c #685958",
"f  c #6B5D5D",
"g  c #745B54",
"h  c #7F5C51",
"j  c #6D615D",
"k  c #7E6258",
"l  c #47506D",
"z  c #585462",
"x  c #5A576D",
"c  c #475576",
"v  c #575C79",
"b  c #635961",
"n  c #6E5F61",
"m  c #635F73",
"M  c #6F6263",
"N  c #6B626C",
"B  c #716262",
"V  c #756965",
"C  c #71646A",
"Z  c #746869",
"A  c #7A6C6B",
"S  c #7D716D",
"D  c #6A6678",
"F  c #746973",
"G  c #7B6D71",
"H  c #756E7C",
"J  c #7F7273",
"K  c #88573F",
"L  c #845A49",
"P  c #915F48",
"I  c #8E604D",
"U  c #9C654C",
"Y  c #946754",
"T  c #A76B4F",
"R  c #A76D52",
"E  c #A6715A",
"W  c #B47457",
"Q  c #B47659",
"!  c #B6785C",
"~  c #BB7A5D",
"^  c #827472",
"/  c #857977",
"(  c #84767A",
")  c #877979",
"_  c #8A7C7A",
"`  c #C27D5D",
"'  c #8D827E",
"]  c #C58262",
"[  c #CB8462",
"{  c #CE8866",
"}  c #CF8968",
"|  c #D48A66",
" . c #D88B67",
".. c #D68D6B",
"X. c #DD8F6A",
"o. c #DD926D",
"O. c #E0946F",
"+. c #E49671",
"@. c #E79872",
"#. c #E89973",
"$. c #3C5985",
"%. c #335E93",
"&. c #3A649B",
"*. c #336CAC",
"=. c #435B86",
"-. c #5B6180",
";. c #5D698A",
":. c #5A6A92",
">. c #6F6D82",
",. c #666E8B",
"<. c #747386",
"1. c #636F93",
"2. c #697699",
"3. c #777B96",
"4. c #436EA5",
"5. c #506EA0",
"6. c #5D7EAD",
"7. c #497AB5",
"8. c #667AA5",
"9. c #647CA9",
"0. c #857B82",
"q. c #4A84C5",
"w. c #4B95DF",
"e. c #6C8CC0",
"r. c #6691CC",
"t. c #7694C4",
"y. c #7A96C5",
"u. c #619ADC",
"i. c #759FD8",
"p. c #5D9EE3",
"a. c #6EA3E5",
"s. c #8E8283",
"d. c #938584",
"f. c #968986",
"g. c #938789",
"h. c #958B8A",
"j. c #9B8E8C",
"k. c #9F928F",
"l. c #88889B",
"z. c #9D8F90",
"x. c #9B9193",
"c. c #A29493",
"v. c #A79996",
"b. c #A69A9A",
"n. c #AA9E9D",
"m. c #888EA7",
"M. c #9A98A9",
"N. c #9A9CB5",
"B. c #A39EAA",
"V. c #ACA1A2",
"C. c #AFA5AC",
"Z. c #B2A3A4",
"A. c #B4A8A8",
"S. c #B5AAAA",
"D. c #BFB1B1",
"F. c #C3B7B6",
"G. c #CBBEBE",
"H. c #9CA7C9",
"J. c #CCC2C1",
"K. c #D5CACA",
"L. c #E1D7D7",
/* pixels */
"X.X.X.X.#.#.#.#.#.#.#.#.X.X.X.X.X.o.X.X.#.#.#.#.#.#.#.#.X.X.X.X.",
"X.X.X.X.#.#.#.#.#.#.#.X.X.X.X.X.X.X.X.X.#.#.#.#.#.#.#.X.X.X.o.X.",
"X.X.X.X.#.#.#.#.#.#.#.X.X.X.X.X.X.X.X.X.#.#.#.#.#.#.#.X.X.X.X.X.",
"X.X.o.#.#.#.#.#.#.#.#.X.X.X.X.X.X.X.X.#.#.#.#.#.#.#.#.X.X.X.X.X.",
"X.X.X.#.#.#.#.#.#.#.#.X.X.X.X.X.X.X.o.@.#.#.#.#.#.#.#.X.X.X.X.X.",
"X.X.X.#.#.#.#.#.#.#.#.o.X.X.X.X.X.X.o.#.#.#.#.#.#.#.#.X.X.X.X.X.",
"X.X.X.#.#.#.#.#.#.#.@. .X. .X. .X. . .#.@.#.#.#.#.#.#.X.X.X.X.X.",
"X.X.X.#.#.#.#.#.+...` W ~ ` ~ ~ ` ~ ~ ` [ | +.#.#.#.#.X.X.X.X.o.",
"X.X.X.#.#.#.#.+.} P ; - 0 y t e q 5 5 * O p ] O.#.#.#.X.X.X.X.X.",
"X.X.X.#.#.#.+.] L w a f A ^ ( A f t 5 8 5 5 p ~ +.#.#.X.X.X.X.X.",
"X.X.O.@.#.o.Q u a A d.h.n.A.A.c.( Z M f s t e p Q O.@.X.X.X.X.X.",
"X.X.X.@...U ; q ^ b.F.J.K.K.G.A.k.d.' ) ^ Z j e > R o.X.X.X.X.X.",
"X.X. .` L = 6 x 0.n.J.L.L.K.F.A.v.k.j.f.s.^ M z 4 = U [ X.X.X.X.",
"X. .Q u 5 q v :.<.s.A.J.J.D.Z.Z.v.j.' ' ^ N z =.%.2 $ L [  .X.X.",
" .R , q i b ;.6.2.<.l.N.B.v.c.j.h.) V V m -.c &.*.3 o $ K ` X.X.",
"` & e f B C ,.9.2.2.e.y.B.B.c.l.3.H s x 5.7.4.&.%.3 + O $ < ` X.",
"] y j Z A G >.1.,.9.u.a.H.C.M.t.r.6.m v q.w.q.$.7 # * * @ % I ..",
"] i A _ / ^ G F F 8.r.i.H.A.N.i.p.e.D v 7.q.7.l 3 : 9 q 5 O 1 X.",
"[ , M x.b.g.) J A H 3.m.B.n.M.t.r.9.m s -.:.v s f j f s 9 : T X.",
"| U y / n.S.V.j.0.) ( _ f.f.s.3.3.D n f Z F J S S A B g L ~ X...",
"o.| ` Y S h.V.A.n.z.d._ ' ) / ( G G A S J / ' / ^ B g E ..@.X.X.",
"X.X...| ! k J d.k.k.c.c.h.g.f.' _ _ ' / / / S V d h ~ o.#.#.X.X.",
"X.X.X.X. .[ E g M A ^ _ s.' s.J ^ S A V j r r i U } @.@.#.#.X.X.",
"X.X.X.X.X.o.o.] I : e d j M M j a r e : : o , E o.@.#.#.#.#.X.X.",
"X.X.X.X.X.X.#.@.X.~ < + : : : # * $ . . . 1 ] O.@.@.#.#.#.#.o.o.",
"X.X.X.X.X.X.#.#.@.+.{ U @ X X X X     % U [ @.#.@.@.#.#.#.#.X.X.",
"X.X.X.X.X.X.#.#.@.#.@.X.{ { ] ] ] ~ ` ` [ O.#.#.#.#.#.#.#.#.X.X.",
"X.X.X.X.X.X.#.#.@.@.@.#.+.@.....X.X.X.X.X. .#.#.#.#.#.#.#.#.X.X.",
"X.X.X.X.X.X.#.#.#.#.#.#.#.#.X.X.X.X.X.X.X.X.#.#.#.#.#.#.#.#.X.X.",
"X.X.X.X.X.X.#.#.#.#.#.#.#.X.X.X.X.X.X.X.X.X.#.#.#.#.#.#.#.X.X.X.",
"X.X.X.X.X.X.#.#.#.#.#.#.#.X.X.X.X.X.X.X.X.X.#.#.#.#.#.#.#.X.X.X.",
"X.X.O.X.X.#.#.#.#.#.#.#.#.X.X.X.X.X.X.X.X.#.#.#.#.#.#.#.#.X.X.X."
};
