/* XPM */
static char *e21708272499[] = {
/* columns rows colors chars-per-pixel */
"32 32 167 2 ",
"   c #271B16",
".  c #36241C",
"X  c #2F2524",
"o  c #342825",
"O  c #3B2C25",
"+  c #3B2D2C",
"@  c #3C312D",
"#  c #3E3332",
"$  c #3E363C",
"%  c #422C23",
"&  c #4B3227",
"*  c #413536",
"=  c #493535",
"-  c #47393B",
";  c #463A3B",
":  c #4C3D3E",
">  c #523C37",
",  c #5F433A",
"<  c #60433B",
"1  c #66483C",
"2  c #744C3B",
"3  c #7F513C",
"4  c #2A3147",
"5  c #3A3B4E",
"6  c #353E58",
"7  c #4D3E43",
"8  c #433F4F",
"9  c #3A4562",
"0  c #4D4243",
"q  c #4E434D",
"w  c #534546",
"e  c #594844",
"r  c #53444A",
"t  c #554A4B",
"y  c #5A4C4C",
"u  c #5B524D",
"i  c #5A4B50",
"p  c #5F545E",
"a  c #634D46",
"s  c #6E4F46",
"d  c #714D43",
"f  c #65534E",
"g  c #785246",
"h  c #625555",
"j  c #64565B",
"k  c #685958",
"l  c #6B5D5D",
"z  c #775B53",
"x  c #6D615D",
"c  c #47506D",
"v  c #585462",
"b  c #5A576D",
"n  c #475576",
"m  c #575C79",
"M  c #635961",
"N  c #6E5F61",
"B  c #635F73",
"V  c #6F6263",
"C  c #6B626C",
"Z  c #716262",
"A  c #756965",
"S  c #71646A",
"D  c #746869",
"F  c #7A6C6B",
"G  c #7D726D",
"H  c #6A6678",
"J  c #746973",
"K  c #7B6D71",
"L  c #756E7C",
"P  c #7F7273",
"I  c #88573F",
"U  c #845744",
"Y  c #81594B",
"T  c #915F48",
"R  c #8E604D",
"E  c #9C654C",
"W  c #82655A",
"Q  c #946754",
"!  c #A76B4F",
"~  c #A76D52",
"^  c #A6715A",
"/  c #B47457",
"(  c #B47659",
")  c #B6785C",
"_  c #BB7A5D",
"`  c #80716F",
"'  c #827472",
"]  c #857977",
"[  c #84767A",
"{  c #877979",
"}  c #8A7C7A",
"|  c #C27D5D",
" . c #8D827E",
".. c #C58262",
"X. c #CC8463",
"o. c #CE8866",
"O. c #CF8968",
"+. c #D48A66",
"@. c #D88B67",
"#. c #D58D6A",
"$. c #DD8F6A",
"%. c #DD926D",
"&. c #E0946F",
"*. c #E39671",
"=. c #E79873",
"-. c #E89973",
";. c #3C5985",
":. c #335E93",
">. c #3A649B",
",. c #336CAC",
"<. c #435B86",
"1. c #5B6180",
"2. c #5D698A",
"3. c #5A6A92",
"4. c #6F6D82",
"5. c #666E8B",
"6. c #636F93",
"7. c #697699",
"8. c #6A7698",
"9. c #777B96",
"0. c #436EA5",
"q. c #506EA0",
"w. c #5D7EAD",
"e. c #497AB5",
"r. c #667AA5",
"t. c #647CA9",
"y. c #857B82",
"u. c #5F86BE",
"i. c #4A84C5",
"p. c #4B95DF",
"a. c #6C8CC0",
"s. c #6691CC",
"d. c #7694C4",
"f. c #7A96C5",
"g. c #619ADC",
"h. c #759FD8",
"j. c #6EA3E5",
"k. c #8E8283",
"l. c #938584",
"z. c #968986",
"x. c #938789",
"c. c #958B8A",
"v. c #9B8E8C",
"b. c #9F928F",
"n. c #88889B",
"m. c #9D8F90",
"M. c #A29493",
"N. c #A79996",
"B. c #A69A9A",
"V. c #AA9E9D",
"C. c #888EA7",
"Z. c #9A98A9",
"A. c #9A9CB5",
"S. c #A39EAA",
"D. c #ACA1A2",
"F. c #AFA5AC",
"G. c #B2A3A4",
"H. c #B4A8A8",
"J. c #B5AAAA",
"K. c #C3B7B6",
"L. c #CBBEBE",
"P. c #9CA7C9",
"I. c #A1A6C0",
"U. c #CCC2C1",
"Y. c #D5CACA",
"T. c #DFD6D6",
"R. c #E1D7D7",
/* pixels */
"$.$.$.$.-.-.-.-.=.=.=.*.#.$.$.#.$.$.@.$.=.-.-.-.-.-.-.-.$.$.$.$.",
"$.$.$.$.-.-.-.-.=.#.../ _ _ _ | _ _ _ _ ..#.*.-.-.-.-.$.$.$.$.$.",
"$.$.$.$.-.-.-.*.+.T > = w y f y r 7 - * + g ..*.-.-.-.$.$.$.$.$.",
"$.$.%.-.-.-.&...Y e j N F ' ' D k i r 7 7 7 s _ *.-.-.$.$.$.$.$.",
"$.$.$.=.-.&.) s j K } v.M.K.H.M.{ D x l k h y g ) *.=.$.$.$.$.$.",
"$.$.$.=.#.E > t ` N.K.U.Y.Y.L.H.b.l. .] ' A l t , ! %.$.$.$.$.$.",
"$.$.@.o.U = 8 b y.V.L.T.R.Y.K.H.V.b.v.z. .' V v 6 = E X.$.$.$.$.",
"$.@.( d : q m 3.9.y.G.L.L.K.G.G.N.v. .} ' D v <.:.4 % I X.$.$.$.",
"@.! < t h j 2.w.7.4.n.S.F.B.M.m.x.[ F C m m n >.,.6 o O 3 ..@.&.",
"| , t l Z S 5.t.7.7.a.f.Z.S.m.n.a.L l b q.e.0.>.:.5 @ @ + 2 | @.",
"| a l F F K 4.6.5.t.g.j.P.F.Z.f.a.7.B m u.p.i.;.9 $ * ; # % T $.",
"X.f F { ] ' K J H 7.s.h.I.F.A.g.g.u.H m e.i.e.c 7 0 r 0 : O I $.",
"X.1 Z m.B.x.{ ' F L y.C.S.F.S.P.s.r.C p m 3.1.M l Z l j r < ! $.",
"@.E a [ S.J.V.b.y.{ } y.x.c.y.y.7.J N N D K K K ` F Z k Y _ +.$.",
"$.+.| Q ` c.D.J.G.v.l.{ y.{ { } ' F F P ' ] } { ' Z z ~ X.$.%.@.",
"$.$.$.o.) W G l.v.b.M.b.m.z.y.y.} } { { } ' ` D k Y _ &.$.&.@.&.",
"$.$.$.$.@.O.^ z x G ]  .k. . .] ' G G A x f u 1 Q O.&.-.%.$.$.$.",
"$.$.$.$.%.%.%...R , t h x V V x h u u 0 = O 1 / %.=.-.-.-.%.$.$.",
"$.$.$.$.$.$.-.*.#...2 @ $ 0 , - # O O X . 3 ..*.=.-.-.-.-.$.$.$.",
"$.$.$.$.$.$.-.-.=.#.o.R , X .         & E X.*.-.-.-.-.-.-.$.$.$.",
"$.$.$.$.$.$.=.-.=.-.=.#.o.X.............X.$.-.-.-.-.-.-.-.-.$.$.",
"$.$.$.$.$.$.-.-.=.-.-.-.-.-.$.$.$.@.$.$.$.$.-.-.-.-.-.-.-.-.$.$.",
"$.$.$.$.%.%.-.-.-.-.-.-.-.-.$.$.$.$.$.$.$.$.-.-.-.-.-.-.-.-.$.$.",
"$.$.$.$.%.%.-.-.-.-.-.-.-.-.$.$.$.$.$.$.$.$.-.-.-.-.-.-.-.-.$.$.",
"$.$.$.$.$.$.-.-.-.-.-.-.-.-.&.$.%.$.$.$.$.$.-.-.-.-.-.-.-.-.$.$.",
"$.$.$.$.$.$.-.-.-.-.-.-.-.-.$.$.$.$.$.$.$.$.-.-.-.-.-.-.-.-.$.$.",
"$.$.$.$.$.$.-.-.-.-.-.-.-.-.$.$.$.$.$.$.$.$.-.-.-.-.-.-.-.-.$.$.",
"$.$.$.$.&.$.-.-.-.-.-.-.-.-.$.$.$.$.$.$.$.$.-.-.-.-.-.-.-.-.$.$.",
"$.$.$.$.$.$.-.-.-.-.-.-.-.-.$.$.$.$.$.$.$.$.-.-.-.-.-.-.-.-.$.$.",
"$.$.$.$.$.$.-.-.-.-.-.-.-.$.$.$.$.$.$.$.$.$.-.-.-.-.-.-.-.$.$.$.",
"&.$.$.$.$.$.-.-.-.-.-.-.-.$.$.$.$.$.$.$.$.$.-.-.-.-.-.-.-.$.$.$.",
"$.$.$.$.$.-.-.-.-.-.-.-.-.$.$.$.$.&.$.$.$.-.-.-.-.-.-.-.-.$.$.$."
};
