/* XPM */
static char *e21708452739[] = {
/* columns rows colors chars-per-pixel */
"32 32 181 2 ",
"   c #000001",
".  c #030508",
"X  c #070E15",
"o  c #031B10",
"O  c #011B2B",
"+  c #031F30",
"@  c #082736",
"#  c #16323A",
"$  c #212C35",
"%  c #42291F",
"&  c #553C3A",
"*  c #05463C",
"=  c #1C513A",
"-  c #4A493C",
";  c #7B4F3A",
":  c #022C44",
">  c #02334D",
",  c #023451",
"<  c #023957",
"1  c #183D58",
"2  c #30394E",
"3  c #203F5B",
"4  c #035148",
"5  c #1A4755",
"6  c #24784E",
"7  c #2D7E5A",
"8  c #054B66",
"9  c #164C6D",
"0  c #175869",
"q  c #044B70",
"w  c #154D70",
"e  c #065779",
"r  c #145076",
"t  c #155679",
"y  c #1A6D64",
"u  c #197968",
"i  c #066772",
"p  c #076E79",
"a  c #12647C",
"s  c #077D70",
"d  c #087A79",
"f  c #157B78",
"g  c #266F62",
"h  c #2C7F60",
"j  c #424343",
"k  c #7B5D5E",
"l  c #445B7E",
"z  c #507F6B",
"x  c #7A626A",
"c  c #73766F",
"v  c #766878",
"b  c #825A44",
"n  c #93624F",
"m  c #9C6449",
"M  c #9E6E4E",
"N  c #89695D",
"B  c #A96D51",
"V  c #AD735C",
"C  c #986D67",
"Z  c #A1736A",
"A  c #B87A61",
"S  c #B07C72",
"D  c #C07E5E",
"F  c #18856F",
"G  c #148B7B",
"H  c #26826F",
"J  c #298469",
"K  c #379868",
"L  c #2E8E77",
"P  c #2C9472",
"I  c #329875",
"U  c #32A26A",
"Y  c #39A571",
"T  c #558F6D",
"R  c #4DA37E",
"E  c #51A375",
"W  c #848D60",
"Q  c #999072",
"!  c #BB857C",
"~  c #CD8563",
"^  c #C3856C",
"/  c #CA876C",
"(  c #D38966",
")  c #D18A6C",
"_  c #DD8F6A",
"`  c #DF936E",
"'  c #CD8973",
"]  c #C18678",
"[  c #DE9577",
"{  c #E1946F",
"}  c #E29672",
"|  c #E59874",
" . c #E89973",
".. c #0B5A87",
"X. c #2A5B84",
"o. c #07608F",
"O. c #0F6E89",
"+. c #0B758D",
"@. c #197C8B",
"#. c #086392",
"$. c #0C6B97",
"%. c #097597",
"&. c #097A96",
"*. c #167897",
"=. c #49718A",
"-. c #5A6B90",
";. c #587092",
":. c #7A738D",
">. c #857B8C",
",. c #0B868C",
"<. c #138C81",
"1. c #10858A",
"2. c #108D8B",
"3. c #129187",
"4. c #0A8596",
"5. c #0B8B95",
"6. c #0B9496",
"7. c #0C9A95",
"8. c #139496",
"9. c #159F96",
"0. c #2A8986",
"q. c #2B968A",
"w. c #218C97",
"e. c #359895",
"r. c #0DA495",
"t. c #18A793",
"y. c #2DB086",
"u. c #3CB886",
"i. c #26A697",
"p. c #31A998",
"a. c #2BB496",
"s. c #2BB996",
"d. c #36B496",
"f. c #3BBF98",
"g. c #518A93",
"h. c #77898F",
"j. c #6D8197",
"k. c #6D9196",
"l. c #51AC84",
"z. c #5DA89E",
"x. c #44BA9B",
"c. c #70AB8C",
"v. c #71BA90",
"b. c #3EC798",
"n. c #3FD197",
"m. c #50C589",
"M. c #45D58C",
"N. c #52CB9C",
"B. c #46D896",
"V. c #65CF96",
"C. c #5EC6A2",
"Z. c #61CCA2",
"A. c #6CDFA5",
"S. c #74DFA5",
"D. c #65E7A1",
"F. c #81818C",
"G. c #958488",
"H. c #AA8487",
"J. c #B68684",
"K. c #96AF9F",
"L. c #89C5B5",
"P. c #98C7BF",
"I. c #A3DBB9",
"U. c #97E9BA",
"Y. c #9BEDBC",
"T. c #A2E7BD",
"R. c #BCDBC8",
"E. c #A8E9C3",
"W. c #BCEBCE",
"Q. c #B5F0CC",
"!. c #BDF2D1",
"~. c #CDCECD",
"^. c #C1DFCD",
"/. c #CBF3DA",
"(. c #DCE8E1",
"). c #DBF7E5",
"_. c #EEEEEE",
"`. c #E5F2ED",
"'. c #EBFBF1",
"]. c #F7FDF9",
"[. c #FEFFFF",
/* pixels */
"_ _ _ _  . . . . . . . ._ _ _ _ _ _ _ _  . . . . . . . ._ _ _ _ ",
"_ _ _ _  . . . . . . ._ _ _ _ _ _ _ _ _  . . . . . . ._ _ _ _ _ ",
"_ _ _ _  . . . . . . ._ _ _ _ _ _ _ _ _  . . . . . . ._ _ _ _ _ ",
"_ _ _  . . . . . . . ._ _ _ ' g.C _ _  . . . . . . . ._ _ _ _ _ ",
"_ _ _  . . . . . . . ._ _ _ ^ 0.C _ _  . . . . . . . ._ _ _ _ _ ",
"_ _ _  . . . . . . . ._ _ _ _ n _ _ _  . . . . . . . ._ _ _ _ _ ",
"_ _ _  . . . . . . . ._ _ _ _ n _ _ _  . . . . . . . ._ _ _ _ _ ",
"_ _ _  . . . . . . . ._ _ _ ` n _ _ _  . . . . . . . ._ _ _ _ _ ",
"_ _ _  . . . . . . . .` ` ' ! x ! ] _  . . . . . . . ._ _ _ _ _ ",
"_ _ _  . . . . . . . .] >.k.C.Z.Z.z.F.H.|  . . . . . ._ _ _ _ _ ",
"_ _ _  . . . . . .{ S e.E.).[.[.[.].!.x.G.~  . . . . ._ _ _ _ _ ",
"_ ` _  . . . . .{ b G `.].[.[.[.[.[.[.(.L.- ~  . . . ._ _ _ _ _ ",
"_ _ _ _  . .| A ; F T.[.[.[.[.[.[.[.[.c R.y.- m  . . ._ _ _ _ _ ",
"_ _ _ _  . .A 1 u A.'.).D.'.[.[.[.].P.@ j I.y.> N {  ._ _ _ _ _ ",
"_ _ _ _  .^ R ,.K T.v.).B.S.U.Y.U.L.F @ O K.V.d 0.Q {  ._ _ _ _ ",
"_ _ _ ~ M R.c.p p.M.  T.P 4 t.B.s.s , j.c.K B.&.  ~.W D _ _ _ _ ",
"_ _ ( & a E K O *.x.*.*.$...&.9.5.#.#.e.N.d.w.8 6 T q.2 B _ _ _ ",
"_ _ m < q     o d 4.d.%.$.$.$.$.$.$.$.$.p.w.1.*     : e % { _ _ ",
"_ ~ 4 e   X J K 1 f %.f.b.f.f.f.f.b.f.f.w.1.0 K U =   < i m _ _ ",
"_ ~ s e X # ^.V.J g 5 O.2.2.2.2.2.2.2.+.9 5 I l.!.7 @ , 2.m _ _ ",
"_ ~ i O # w _.E.8 o.L 0 r r r r r r r r I ....~.Y.h 9 . p B { _ ",
"_ ) -.> # G z m.e 7.t.5.t.s.a.n.s.i.s.7.8.r.+.l.Y y u + X.J._ _ ",
"_ _ ' l 5 r.3.3.7.r.4.r.r.i./.).Q.b.6.r.4.r.r.2.2.9.f 3 H. ._ _ ",
"_ _ _ ' ;.5.r.r.r.7.5.r.r.0.W./.E.u.5.r.r.4.r.r.r.6.&.!  . ._ _ ",
"_ _ _ _ / 1 0 O.4.4.7.r.r.5.H J J @.r.r.r.4.5.$.a 5 Z |  . ._ _ ",
"_ _ _ _ V t 9 $ J.H.&.4.4.4.4.4.4.4.4.4.4.:.J.k 1 r x }  . ._ _ ",
"_ _ _ ( c r.=.~  . . . .} | ) ` ` ) ) _ _ _  .| x 7.G /  . ._ _ ",
"_ _ _ D <.e.]  . . . . . . .` _ _ _ _ _ _ _  . .[ h.r.N  . ._ _ ",
"_ _ _ ! l !  . . . . . . . ._ _ _ _ _ _ _ _  . . .} v >. . ._ _ ",
"_ _ _ ( ^ _  . . . . . . ._ _ _ _ _ _ _ _ _  . . . .} [  ._ _ _ ",
"_ _ _ _ _ _  . . . . . . ._ _ _ _ _ _ _ _ _  . . . . . . ._ _ _ ",
"_ _ _ _ _  . . . . . . . ._ _ _ _ _ _ _ _  . . . . . . . ._ _ _ "
};
