/* XPM */
static char *e31708272499[] = {
/* columns rows colors chars-per-pixel */
"32 32 164 2 ",
"   c #271B16",
".  c #36241C",
"X  c #2F2524",
"o  c #312623",
"O  c #362A26",
"+  c #392C2E",
"@  c #3C312D",
"#  c #3E3332",
"$  c #3E363C",
"%  c #412C24",
"&  c #483228",
"*  c #423536",
"=  c #483738",
"-  c #463A3B",
";  c #4C3D3D",
":  c #523C37",
">  c #5F433A",
",  c #62453C",
"<  c #66483C",
"1  c #714C3C",
"2  c #7E513D",
"3  c #2A3147",
"4  c #3A3B4E",
"5  c #353E58",
"6  c #4D3E43",
"7  c #433F4F",
"8  c #3A4562",
"9  c #4D4243",
"0  c #534546",
"q  c #594844",
"w  c #53444A",
"e  c #554A4B",
"r  c #5A4C4C",
"t  c #5B524D",
"y  c #5A4B50",
"u  c #5F545E",
"i  c #634D46",
"p  c #6E4D43",
"a  c #65534E",
"s  c #7E5342",
"d  c #755248",
"f  c #625555",
"g  c #64565B",
"h  c #685958",
"j  c #6B5D5D",
"k  c #745B54",
"l  c #7F5C51",
"z  c #6D615D",
"x  c #7E6258",
"c  c #47506D",
"v  c #585462",
"b  c #5A576D",
"n  c #475576",
"m  c #575C79",
"M  c #635961",
"N  c #6E5F61",
"B  c #635F73",
"V  c #6F6263",
"C  c #6B626C",
"Z  c #716262",
"A  c #756965",
"S  c #71646A",
"D  c #746869",
"F  c #7A6C6B",
"G  c #7D716D",
"H  c #6A6678",
"J  c #746973",
"K  c #7B6D71",
"L  c #756E7C",
"P  c #7F7273",
"I  c #875B48",
"U  c #915F48",
"Y  c #8E604D",
"T  c #9C654C",
"R  c #946754",
"E  c #A76B4F",
"W  c #A76D52",
"Q  c #A6715A",
"!  c #B47457",
"~  c #B47659",
"^  c #B6785C",
"/  c #BB7A5D",
"(  c #80706F",
")  c #827472",
"_  c #857977",
"`  c #84767A",
"'  c #877979",
"]  c #8A7C7A",
"[  c #C27D5D",
"{  c #8D827E",
"}  c #C68262",
"|  c #CB8362",
" . c #CE8866",
".. c #CF8968",
"X. c #D48A66",
"o. c #D88B67",
"O. c #D68D6A",
"+. c #DD8F6A",
"@. c #DD926D",
"#. c #E0946F",
"$. c #E39671",
"%. c #E79872",
"&. c #E89973",
"*. c #3C5985",
"=. c #335E93",
"-. c #3A649B",
";. c #336CAC",
":. c #435B86",
">. c #5B6180",
",. c #5D698A",
"<. c #5A6A92",
"1. c #6F6D82",
"2. c #666E8B",
"3. c #747386",
"4. c #636F93",
"5. c #697699",
"6. c #6A7698",
"7. c #777B96",
"8. c #436EA5",
"9. c #506EA0",
"0. c #4F77AF",
"q. c #5D7EAD",
"w. c #497AB5",
"e. c #667AA5",
"r. c #647CA9",
"t. c #857B82",
"y. c #5F86BE",
"u. c #4A84C5",
"i. c #4B95DF",
"p. c #6C8CC0",
"a. c #6691CC",
"s. c #7A96C5",
"d. c #619ADC",
"f. c #759FD8",
"g. c #5D9EE3",
"h. c #6EA3E5",
"j. c #8E8283",
"k. c #938584",
"l. c #968986",
"z. c #938789",
"x. c #958B8A",
"c. c #9B8E8C",
"v. c #9F928F",
"b. c #88889B",
"n. c #9D8F90",
"m. c #A29493",
"M. c #A79996",
"N. c #A69A9A",
"B. c #AA9E9D",
"V. c #888EA7",
"C. c #9A98A9",
"Z. c #9A9CB5",
"A. c #A39EAA",
"S. c #ACA1A2",
"D. c #AFA5AC",
"F. c #B2A3A4",
"G. c #B4A8A8",
"H. c #B5AAAA",
"J. c #C3B7B6",
"K. c #CBBEBE",
"L. c #9CA7C9",
"P. c #CCC2C1",
"I. c #D5CACA",
"U. c #E1D7D7",
/* pixels */
"+.+.+.+.&.&.&.&.&.&.&.&.+.+.+.+.+.+.+.+.&.&.&.&.&.&.&.&.+.+.+.+.",
"+.+.+.+.&.&.&.&.&.&.&.+.+.+.+.+.+.+.+.+.&.&.&.&.&.&.&.+.+.+.+.+.",
"+.+.+.+.&.&.&.&.&.&.&.+.+.+.+.+.+.+.+.+.&.&.&.&.&.&.&.+.+.+.+.+.",
"+.+.@.&.&.&.&.&.&.&.&.#.+.+.+.+.+.+.+.&.&.&.&.&.&.&.&.+.+.+.+.+.",
"+.+.+.&.&.&.&.&.&.&.&.+.+.+.+.+.+.+.#.&.&.&.&.&.&.&.&.+.+.+.+.+.",
"+.+.+.&.&.&.&.&.&.&.&.+.+.+.+.+.+.+.+.&.&.&.&.&.&.&.&.+.+.+.+.+.",
"+.+.+.&.&.&.&.&.&.&.&.+.+.+.+.+.+.+.+.&.&.&.&.&.&.&.&.+.+.+.+.+.",
"+.+.+.&.&.&.&.&.&.&.&.+.+.+.+.+.+.+.+.&.&.&.&.&.&.&.&.+.+.+.+.+.",
"+.+.+.&.&.&.&.&.&.&.&.+.+.+.+.+.+.+.+.&.&.&.&.&.&.&.&.+.+.+.+.+.",
"+.+.#.&.&.&.&.&.&.&.&.+.+.+.+.+.+.+.+.&.&.&.&.&.&.&.&.+.#.+.+.+.",
"+.+.+.%.&.&.&.&.&.&.&.+.+.+.+.+.+.+.+.&.&.&.&.&.&.&.&.+.+.+.+.+.",
"+.+.+.&.&.&.&.&.&.&.%.o.+.o.+.+.+.+.O.&.&.&.&.&.&.&.&.+.+.+.+.+.",
"+.+.+.+.&.&.&.&.%.o.} ! ^ / / / / / / / [ O.%.&.&.&.&.+.+.+.+.+.",
"+.+.+.+.&.&.&.$.X.Y : = q t a r w 6 = * + s [ %.&.&.&.+.+.+.+.+.",
"+.+.+.+.&.%.#.| l q h j F ) ) D g r 6 6 6 - d [ %.&.&.&.+.+.+.+.",
"+.+.+.+.+.#.~ p f F j.c.N.H.H.m.' S S N g a r d ~ #.&.&.+.+.+.+.",
"+.+.+.o.| T : w P N.J.P.I.I.K.G.m.k.] ' ) F j e > W @.%.@.+.+.+.",
"+.+.o.[ I * 7 b t.B.K.U.U.I.J.H.B.v.c.l.{ ) V v 5 = T o.%.+.+.+.",
"+.o.! 1 ; 6 m <.3.j.D.P.K.J.F.F.M.c.{ { P C v :.=.3 % U X.+.+.+.",
"o.E i w f M ,.q.5.3.b.A.F.M.m.m.z._ F Z H m n -.;.5 o % s } o.+.",
"[ > w N Z S 2.e.5.5.p.s.Z.A.n.b.p.A M b 9.w.8.-.-.4 @ + & 2 } @.",
"[ i j D ( K 1.4.2.r.d.h.L.D.C.s.p.5.C m u.i.u.*.8 $ = - # & U o.",
"| a F ' ' ( J J J 6.a.f.D.D.Z.h.g.y.H m 0.u.w.c 9 6 0 0 - + 2 +.",
"| < S n.N.z.' ( K 3.7.V.A.A.C.s.a.r.B u >.<.>.M j j j h 0 < E o.",
"o.T i ` N.H.S.c.{ _ P j.z.x.t.t.5.L Z z D J F G P F A h I } o.@.",
"+.X.[ R G x.S.H.B.c.x.j.{ ' ' ) ) F F ( ) _ ' _ ) Z k Q O.&.+.+.",
"+.+.+.X.^ x P z.c.v.v.v.x.l.l.k.] ] _ ] ] ) G A h l / @.&.&.+.+.",
"+.+.+.+.o.} Q k z G _ { { ' t.] ) F G A z h t i R X.@.&.&.&.+.+.",
"+.+.+.+.@.+.@.} Y , e f z z z u f t r , = @ < ! @.&.&.&.&.&.+.+.",
"+.+.+.+.+.+.&.%. .} < # - 4 > > * @ O X . 2 | #.&.&.&.&.&.+.+.+.",
"+.+.+.+.+.@.&.&.&.#. .T > X . .       & T [ #.&.&.&.&.&.&.+.+.+.",
"+.+.+.+.+.&.&.&.&.&.#.O.} } / } } / / } X.&.&.&.&.&.&.&.&.+.+.+."
};
