/* XPM */
static char *e31708452739[] = {
/* columns rows colors chars-per-pixel */
"32 32 180 2 ",
"   c #020304",
".  c #050706",
"X  c #04261B",
"o  c #0B351F",
"O  c #011727",
"+  c #141F26",
"@  c #012033",
"#  c #163537",
"$  c #2E3A38",
"%  c #623F2E",
"&  c #105A37",
"*  c #624F3D",
"=  c #7B4F3A",
"-  c #023A48",
";  c #1C3242",
":  c #043956",
">  c #123652",
",  c #1A3C54",
"<  c #263649",
"1  c #04564F",
"2  c #185C55",
"3  c #245645",
"4  c #235F58",
"5  c #1E6944",
"6  c #2B6652",
"7  c #2E7F5B",
"8  c #307E58",
"9  c #04466A",
"0  c #194B6C",
"q  c #155865",
"w  c #05537C",
"e  c #065E7B",
"r  c #145878",
"t  c #22557B",
"y  c #176168",
"u  c #186868",
"i  c #077C6F",
"p  c #036574",
"a  c #06647D",
"s  c #146E7A",
"d  c #0F7770",
"f  c #396060",
"g  c #52725E",
"h  c #4B566F",
"j  c #7B5E61",
"k  c #895B43",
"l  c #93624F",
"z  c #9D6449",
"x  c #896556",
"c  c #A66A4E",
"v  c #B37557",
"b  c #BD7B5D",
"n  c #917277",
"m  c #A57366",
"M  c #A87B78",
"N  c #288556",
"B  c #17856F",
"V  c #08817F",
"C  c #168677",
"Z  c #2E9563",
"A  c #339766",
"S  c #278676",
"D  c #279779",
"F  c #349C75",
"G  c #38AA75",
"H  c #3AB479",
"J  c #5B866F",
"K  c #599974",
"L  c #B38762",
"P  c #AF807F",
"I  c #BC857A",
"U  c #CC8564",
"Y  c #CC8566",
"T  c #D48966",
"R  c #D68D6C",
"E  c #DD8F6A",
"W  c #C88A77",
"Q  c #D18B71",
"!  c #C29374",
"~  c #D7937A",
"^  c #E1946F",
"/  c #E29673",
"(  c #E69873",
")  c #E89973",
"_  c #065B84",
"`  c #105E84",
"'  c #365F81",
"]  c #0F6688",
"[  c #0E7689",
"{  c #15738A",
"}  c #086697",
"|  c #0B6B97",
" . c #097396",
".. c #0B7D95",
"X. c #1E7F92",
"o. c #226082",
"O. c #2E7B8B",
"+. c #4B7993",
"@. c #7A6D81",
"#. c #7D758D",
"$. c #697E92",
"%. c #727B91",
"&. c #887481",
"*. c #A07B83",
"=. c #0B8287",
"-. c #0D8C8E",
";. c #128D85",
":. c #169989",
">. c #0B8496",
",. c #0B8C95",
"<. c #188996",
"1. c #0C9696",
"2. c #0C9C95",
"3. c #139196",
"4. c #218D80",
"5. c #218B97",
"6. c #2A9D97",
"7. c #379E94",
"8. c #0DA495",
"9. c #14A096",
"0. c #2FA38C",
"q. c #34A983",
"w. c #39B480",
"e. c #2AA297",
"r. c #2BAB97",
"t. c #31A694",
"y. c #33AC96",
"u. c #28B896",
"i. c #34B097",
"p. c #5F8991",
"a. c #469995",
"s. c #539894",
"d. c #749093",
"f. c #52BF9F",
"g. c #6BA884",
"h. c #7CAC8E",
"j. c #70B29C",
"k. c #6AA1A6",
"l. c #3FC280",
"z. c #32C195",
"x. c #3CC298",
"c. c #3ED197",
"v. c #41C282",
"b. c #41CB92",
"n. c #5ACD92",
"m. c #51D095",
"M. c #68C59A",
"N. c #70DA9F",
"B. c #4CE498",
"V. c #54E39B",
"C. c #68C8A4",
"Z. c #7ED9A5",
"A. c #66E5A1",
"S. c #7EE4AB",
"D. c #918288",
"F. c #8C9296",
"G. c #AD8080",
"H. c #A08688",
"J. c #B68684",
"K. c #8AB9AA",
"L. c gray67",
"P. c #B3B3AB",
"I. c #C58E80",
"U. c #8ED4AA",
"Y. c #ACCAB7",
"T. c #A7DEBC",
"R. c #8FE5B3",
"E. c #9FEBBE",
"W. c #ADDAC9",
"Q. c #A6E7C2",
"!. c #B9F1CE",
"~. c #C7E9D8",
"^. c #D2F6DF",
"/. c #D7E8E4",
"(. c #D5F6E1",
"). c #DBF7E6",
"_. c #DDF8E7",
"`. c #E2F0E7",
"'. c #ECFBF1",
"]. c #FEFFFE",
/* pixels */
"E E E E ) ) ) ) ) ) ) ) E E E E E E E E ) ) ) ) ) ) ) ) E E E E ",
"E E E E ) ) ) ) ) ) ) E E E E E E E E E ) ) ) ) ) ) ) E E E E E ",
"E E E E ) ) ) ) ) ) ) E E E Q *.b E E E ) ) ) ) ) ) ) E E E E E ",
"E E E ) ) ) ) ) ) ) ) E E E W 0.n E E ( ) ) ) ) ) ) ) E E E E E ",
"E E E ) ) ) ) ) ) ) ) E E E T j U E E ) ) ) ) ) ) ) ) E E E E E ",
"E E E ) ) ) ) ) ) ) ) E E E E l E E E ) ) ) ) ) ) ) ) E E E E E ",
"E E E ) ) ) ) ) ) ) ) E E E E l R E E ) ) ) ) ) ) ) ) E E E E E ",
"E E E ) ) ) ) ) ) ) ) E E E E l E E E ) ) ) ) ) ) ) ) E E E E E ",
"E E E ) ) ) ) ) ) ) ) R I D.a.7.a.p.I ~ ) ( ) ) ) ) ) E E E E E ",
"E E E ) ) ) ) ) ) ) E d.f.W.)._._.~.C.s.W ) ) ) ) ) ) E E E E E ",
"E E E ) ) ) ) ) ) v p W.'.].].].].].].~.k.= ^ ) ) ) ) E E E E E ",
"E E E ) ) ) ) R v 6 M.].].].].].].].].L.Q.B k T ) ) ) E E E E E ",
"E E E E ) ) R % 1 M.'.'.!.].].].].]./.$ F.Q.B . b ) ) E E E E E ",
"E E E E ) E J ..Z R.T.).B.Q.(.^.(.~.:.X   h.n.p O.L ) E E E E E ",
"E E E E R P.j.=.0.Z.& ~.G D z.B.c.:.- ' f g.m.-.2 L.! ^ E E E E ",
"E E E k 2 U.K : 5.b.9 i.<.9 -.u.2.e _ d.S.q.y.e 5 g K.* U E E E ",
"E E c > ] l.5 . =.5.i. .} } }  . .} } | 6.t.>.1 o X 9 9 % ^ E E ",
"E U * 9 @   + A q <.5.i.x.x.x.x.x.x.x.x.t...[ A 8 Y.N 9 < v E E ",
"E U i _   + 3 A 6 4 s  .>.>.>.>.>.>.>...` u 7 # F.`.v.a -.z E E ",
"E U i - + ; j.).Z.S 3 q y q y y y y y q 4 0 X.] e j.H @ V z E E ",
"E T _ O # [ m.^.^.H S 1.3.6.>.r.,.3.e.e.r.,. .2.2.C 2 . w m E E ",
"E E M t # 8.u.m.m.H a 8.8.3.2.9.C.Q.E.V.e.8.2.1.8.9.d : #.) E E ",
"E E E M o.8.8.:.C ;.2.8.8.,.2.>.Q.].].A.6.8.8.>.8.8.=.@.~ ) E E ",
"E E E E M r =.,.2.8.8.8.8.>.8.1.4.w.H F [ 8.8.,.{ s @.) ) ) E E ",
"E E E E U , , , %.$.,.2.1.>.2.2.3.3.;.<.1.+.%.h , , m / ) ) E E ",
"E E E E x >.] l ( / J.J.J.J.M J.G.M J.*.*.W ) Y 0 >.u ( ) ) E E ",
"E E E b D 3.D.) ) ) ) ) ) ) E E E E E E E E ) ) I.s.2.x ) ) E E ",
"E E E I { D.) ) ) ) ) ) ) ) E E E E E E E E ) ) ) I.O.&.) ) E E ",
"E E E W m E ) ) ) ) ) ) ) ) E E E E E E E E ) ) ) ( U I.) ) E E ",
"E E E E E E ) ) ) ) ) ) ) E E E E E E E E E ) ) ) ( ( ) ) E E E ",
"E E E E E E ) ) ) ) ) ) ) E E E E E E E E E ) ) ) ) ) ) ) E E E ",
"E E E E E ) ) ) ) ) ) ) ) E E E E E E E E ) ) ) ) ) ) ) ) E E E "
};
