/* XPM */
static char *e41708452739[] = {
/* columns rows colors chars-per-pixel */
"32 32 180 2 ",
"   c black",
".  c #030508",
"X  c #0C151A",
"o  c #011E28",
"O  c #001B33",
"+  c #012C27",
"@  c #17252D",
"#  c #11382F",
"$  c #012033",
"%  c #1D2B34",
"&  c gray18",
"*  c #392D33",
"=  c #54483A",
"-  c #67422F",
";  c #042B43",
":  c #1C3A4C",
">  c #033B5A",
",  c #1A3B52",
"<  c #1C4244",
"1  c #03554D",
"2  c #084851",
"3  c #164C5E",
"4  c #325446",
"5  c #1F6B48",
"6  c #056358",
"7  c #356454",
"8  c #2A7153",
"9  c #2C7857",
"0  c #044566",
"q  c #154361",
"w  c #184563",
"e  c #164B67",
"r  c #045860",
"t  c #175B6A",
"y  c #054F77",
"u  c #065C7B",
"i  c #13567B",
"p  c #096B6A",
"a  c #186769",
"s  c #17776E",
"d  c #06617B",
"f  c #146478",
"g  c #14767B",
"h  c #257B70",
"j  c #5A5C5C",
"k  c #74504B",
"l  c #4D536B",
"z  c #5B5D75",
"x  c #59636D",
"c  c #546975",
"v  c #5A7B72",
"b  c #726D7C",
"n  c #8F5B42",
"m  c #93624F",
"M  c #9C6449",
"N  c #96685C",
"B  c #A26A4F",
"V  c #A56F5B",
"C  c #A7725F",
"Z  c #B2765A",
"A  c #BB795A",
"S  c #876D72",
"D  c #916F72",
"F  c #967374",
"G  c #B97E65",
"H  c #C17C5C",
"J  c #308F5E",
"K  c #15857A",
"L  c #278367",
"P  c #319167",
"I  c #309864",
"U  c #2B8372",
"Y  c #318A7D",
"T  c #2F9C79",
"R  c #35A776",
"E  c #3CB87A",
"W  c #4CAA7F",
"Q  c #CD8564",
"!  c #D58B67",
"~  c #D68D6C",
"^  c #DD8F6A",
"/  c #C48777",
"(  c #CF8A72",
")  c #C18679",
"_  c #CB8E7E",
"`  c #D89379",
"'  c #E49672",
"]  c #E79973",
"[  c #E89973",
"{  c #105C85",
"}  c #0E6384",
"|  c #0F6B89",
" . c #166F89",
".. c #0B7687",
"X. c #1A7986",
"o. c #086697",
"O. c #086A94",
"+. c #097497",
"@. c #0A7D95",
"#. c #1A7F96",
"$. c #31628C",
"%. c #286794",
"&. c #6C768F",
"*. c #6C7D8F",
"=. c #75738E",
"-. c #727A91",
";. c #9A7986",
":. c #957A88",
">. c #A47D83",
",. c #0A8C8A",
"<. c #128385",
"1. c #128E82",
"2. c #129487",
"3. c #139D8E",
"4. c #0B8496",
"5. c #0B8C96",
"6. c #1D8497",
"7. c #0B9496",
"8. c #0C9D95",
"9. c #2B9786",
"0. c #279597",
"q. c #2A9B97",
"w. c #0DA495",
"e. c #17A795",
"r. c #35A987",
"t. c #3ABB88",
"y. c #22A397",
"u. c #2EA397",
"i. c #30A797",
"p. c #31AE94",
"a. c #25B496",
"s. c #35B397",
"d. c #36B598",
"f. c #449B95",
"g. c #7C878F",
"h. c #608790",
"j. c #728091",
"k. c #7A8A94",
"l. c #41A787",
"z. c #58B09F",
"x. c #64B88A",
"c. c #76B2AB",
"v. c #79BBB0",
"b. c #3FC381",
"n. c #3DC298",
"m. c #3ED197",
"M. c #43C987",
"N. c #57C78C",
"B. c #45D28E",
"V. c #48D596",
"C. c #50DE9B",
"Z. c #70CB97",
"A. c #6AD09C",
"S. c #4CE598",
"D. c #57E69C",
"F. c #6CCBA5",
"G. c #7FD9AB",
"H. c #63E2A1",
"J. c #A28686",
"K. c #96AF9F",
"L. c #B9ACA8",
"P. c #86CAA3",
"I. c #93CABA",
"U. c #9BDABA",
"Y. c #B5C6BB",
"T. c #86EAB0",
"R. c #9DEDBD",
"E. c #A6E7C2",
"W. c #DCDBDB",
"Q. c #C2EED5",
"!. c #C4F2D6",
"~. c #C8F0D9",
"^. c #D3F4DF",
"/. c #DAF7E5",
"(. c #DBF7E5",
"). c #DEF8E7",
"_. c #E4F9EB",
"`. c #EEFBF2",
"'. c #F4F9F7",
"]. c #FEFFFF",
/* pixels */
"^ ^ ^ ^ [ [ [ [ [ [ [ [ ^ ^ ^ ^ ^ ^ ^ ^ [ [ [ [ [ [ [ [ ^ ^ ^ ^ ",
"^ ^ ^ ^ [ [ [ [ [ [ [ ^ ^ ^ ^ ^ ^ ^ ^ ^ [ [ [ [ [ [ [ ^ ^ ^ ^ ^ ",
"^ ^ ^ ^ [ [ [ [ [ [ [ ^ ^ ^ ^ ( ~ ^ ^ ^ [ [ [ [ [ [ [ ^ ^ ^ ^ ^ ",
"^ ^ ^ [ [ [ [ [ [ [ [ ^ ^ ^ / q.D ^ ^ [ [ [ [ [ [ [ [ ^ ^ ^ ^ ^ ",
"^ ^ ^ [ [ [ [ [ [ [ [ ^ ^ ^ Q c C ^ ^ [ [ [ [ [ [ [ [ ^ ^ ^ ^ ^ ",
"^ ^ ^ [ [ [ [ [ [ [ [ ^ ^ ^ ^ m ^ ^ ^ [ [ [ [ [ [ [ [ ^ ^ ^ ^ ^ ",
"^ ^ ^ [ [ [ [ [ [ [ [ ^ ^ ^ ^ m ^ ^ ^ [ [ [ [ [ [ [ [ ^ ^ ^ ^ ^ ",
"^ ^ ^ [ [ [ [ [ [ [ [ ^ ^ ^ ^ m ^ ^ ^ [ [ [ [ [ [ [ [ ^ ^ ^ ^ ^ ",
"^ ^ ^ [ [ [ [ [ [ [ [ ^ ^ ) ;.z ;.>.^ [ ] ] ] ] [ [ [ ^ ^ ^ ^ ^ ",
"^ ^ ^ [ [ [ [ [ [ [ ] J.f.c.E.E.E.I.f.g.' ] ] ] [ [ [ ^ ^ ^ ^ ^ ",
"^ ^ ^ [ [ [ [ [ ] ~ S z.Q.`.].].].].(.F.g.A ' ] [ [ [ ^ ^ ^ ^ ^ ",
"^ ^ ^ [ [ [ [ [ ~ = T ].].].].].].].].W.U.1 Z ' [ [ [ ^ ^ ^ ^ ^ ",
"^ ^ ^ ^ [ [ ] M = r.~.'._.].].].].].'.j Y.Z.7 - ^ [ [ ^ ^ ^ ^ ^ ",
"^ ^ ^ ^ [ [ N y L H.).).D.).].].].'.v.+ & P.t.3 L.^ [ ^ ^ ^ ^ ^ ",
"^ ^ ^ ^ [ N T 1.T E.J ^.M.b.V.D.C.p.6 > O K.A.K Y x.^ [ ^ ^ ^ ^ ",
"^ ^ ^ A k 0 4 l.u.B.O P.9.2 3.m.a.p 0 k.G.R n.+.# 2 x B ^ ^ ^ ^ ",
"^ ^ H % d . Z.b @.i.0.o.o.o.O.5.@.o.o.6.d.d.#.r 5 E r.> n ^ ^ ^ ",
"^ ! n 0 > . W I p @.u.q.0.0.0.0.0.0.0.0.p.#...5 X v U.R * Q ^ ^ ",
"^ Q 6 u   X % 9 , s @.u.u.u.u.u.u.u.u.u.6.<.3 9 % q h 3 ..M ^ ^ ",
"^ Q K 0 X % a e l.h % f K K K K K K K g , 8 r.e t < @ ; ,.M ^ ^ ",
"^ Q u o @ s w.y.).R.M.X.} X.| } | |  .<.l.S.d.5.5.1.< . d V ^ ^ ",
"^ ~ =.0 # w.8.9.T._.S.b.} a.w.4.w.e.s.!.!.R.V.7.8.7.s $ $._ ^ ^ ",
"^ ^ ^ b 3 w.8.@.R N.M.R ..w.w.4.w.8.u.(._.E.U 8.w.5.g l _ [ ^ ^ ",
"^ ^ ^ ~ =.@.8.w.3.1.K 2.w.w.w.4.w.w...9.I P X.w.w.4.%._ [ [ ^ ^ ",
"^ ^ ^ ^ ! % : i +.5.8.w.w.w.w.4.w.w.w.w.w.5.4.{ w % C [ [ [ ^ ^ ",
"^ ^ ^ ^ N  .i = ` _ -.j.j.j.j.&.*.*.*.*.*.;.` C w | x ' [ [ ^ ^ ",
"^ ^ ^ Q v w.&.~ [ [ [ [ [ [ ^ ^ ^ ^ ^ ^ ^ ^ [ [ F 8.2.G [ [ ^ ^ ",
"^ ^ ^ G <.h.` [ [ [ [ [ [ [ ^ ^ ^ ^ ^ ^ ^ ^ [ [ [ J.7.S [ [ ^ ^ ",
"^ ^ ^ ) z ( [ [ [ [ [ [ [ [ ^ ^ ^ ^ ^ ^ ^ ^ [ [ [ ] F :.[ [ ^ ^ ",
"^ ^ ^ ^ ^ ^ [ [ [ [ [ [ [ ^ ^ ^ ^ ^ ^ ^ ^ ^ [ [ [ [ [ [ [ ^ ^ ^ ",
"^ ^ ^ ^ ^ ^ [ [ [ [ [ [ [ ^ ^ ^ ^ ^ ^ ^ ^ ^ [ [ [ [ [ [ [ ^ ^ ^ ",
"^ ^ ^ ^ ^ [ [ [ [ [ [ [ [ ^ ^ ^ ^ ^ ^ ^ ^ [ [ [ [ [ [ [ [ ^ ^ ^ "
};
