/* XPM */
static char *e51708452740[] = {
/* columns rows colors chars-per-pixel */
"32 32 175 2 ",
"   c #010202",
".  c #030508",
"X  c #0C161A",
"o  c #011E28",
"O  c #001B33",
"+  c #012C27",
"@  c #16242B",
"#  c #1D2B34",
"$  c #16393A",
"%  c gray18",
"&  c #313037",
"*  c #104634",
"=  c #54483A",
"-  c #67422F",
";  c #042B43",
":  c #1C3A4D",
">  c #053B59",
",  c #1A3C53",
"<  c #2A3040",
"1  c #034D4C",
"2  c #1C4244",
"3  c #0C4C5C",
"4  c #1A4E5E",
"5  c #1F6D47",
"6  c #056358",
"7  c #2D6750",
"8  c #267657",
"9  c #034162",
"0  c #044868",
"q  c #184563",
"w  c #154967",
"e  c #045860",
"r  c #044D73",
"t  c #055D72",
"y  c #065C7B",
"u  c #145778",
"i  c #096B6A",
"p  c #186869",
"a  c #17776E",
"s  c #146876",
"d  c #077C70",
"f  c #157C79",
"g  c #2B7E69",
"h  c #257876",
"j  c #5F4741",
"k  c #5A5C5C",
"l  c #74504B",
"z  c #57576D",
"x  c #635969",
"c  c #52606D",
"v  c #597E70",
"b  c #6F667D",
"n  c #8F5B42",
"m  c #93624F",
"M  c #9C6449",
"N  c #96685C",
"B  c #A26A4F",
"V  c #A7725F",
"C  c #B2765A",
"Z  c #BB795A",
"A  c #876D72",
"S  c #916F72",
"D  c #967374",
"F  c #B97E65",
"G  c #C17C5C",
"H  c #278356",
"J  c #308F5E",
"K  c #15857A",
"L  c #2D886B",
"P  c #2C9064",
"I  c #319269",
"U  c #25877B",
"Y  c #399F7C",
"T  c #33A471",
"R  c #38AE74",
"E  c #39AE75",
"W  c #52877D",
"Q  c #589073",
"!  c #CD8564",
"~  c #D58B67",
"^  c #D68D6C",
"/  c #DD8F6A",
"(  c #C48777",
")  c #CF8A72",
"_  c #C18679",
"`  c #CB8E7E",
"'  c #D89379",
"]  c #E49672",
"[  c #E79973",
"{  c #E89973",
"}  c #085A87",
"|  c #0F6788",
" . c #0F6B8A",
".. c #136C88",
"X. c #0B7586",
"o. c #1B7389",
"O. c #1C7888",
"+. c #086697",
"@. c #097497",
"#. c #0A7D95",
"$. c #157D97",
"%. c #31628C",
"&. c #297394",
"*. c #5E778C",
"=. c #6C768F",
"-. c #6C7D8F",
";. c #75738E",
":. c #987986",
">. c #0A8485",
",. c #0A8C88",
"<. c #138C80",
"1. c #10838B",
"2. c #139789",
"3. c #0B8496",
"4. c #0B8C96",
"5. c #1C8797",
"6. c #0C9396",
"7. c #0D9B94",
"8. c #1A9896",
"9. c #248A86",
"0. c #25948A",
"q. c #329F84",
"w. c #279497",
"e. c #2A9B97",
"r. c #0DA495",
"t. c #24A987",
"y. c #3BBC88",
"u. c #2EA397",
"i. c #31AE94",
"p. c #23B396",
"a. c #2ABA96",
"s. c #35B397",
"d. c #449B95",
"f. c #7C878F",
"g. c #608790",
"h. c #728091",
"j. c #7A8A94",
"k. c #41A787",
"l. c #58B09F",
"z. c #76B2AB",
"x. c #79BBB0",
"c. c #3ED197",
"v. c #41C784",
"b. c #45C889",
"n. c #45D28E",
"m. c #51C69C",
"M. c #4AD999",
"N. c #50DE9B",
"B. c #6AD09C",
"V. c #4BE598",
"C. c #57E69C",
"Z. c #6CCBA5",
"A. c #63E2A1",
"S. c #A28686",
"D. c #96AF9F",
"F. c #9AB4A3",
"G. c #86CAA3",
"H. c #93CABA",
"J. c #9BD9BD",
"K. c #A8CAB8",
"L. c #B5C6BB",
"P. c #91E4B3",
"I. c #A8CDC0",
"U. c #A6E5C1",
"Y. c #DCDBDB",
"T. c #C4EDD6",
"R. c #C4F3D6",
"E. c #C8F0D9",
"W. c #DBF7E5",
"Q. c #DBF7E6",
"!. c #DEF8E7",
"~. c #E8FAEE",
"^. c #EEFBF2",
"/. c #F4F9F7",
"(. c #FEFFFF",
/* pixels */
"/ / / / { { { { { { { { / / / / / / / / { { { { { { { { / / / / ",
"/ / / / { { { { { { { / / / / / / / / / { { { { { { { / / / / / ",
"/ / / / { { { { { { { / / / / ) ^ / / / { { { { { { { / / / / / ",
"/ / / { { { { { { { { / / / ( u.S / / [ { { { { { { { / / / / / ",
"/ / / { { { { { { { { / / / ! c V / / { { { { { { { { / / / / / ",
"/ / / { { { { { { [ { / / / / m / / / { { { { { { { { / / / / / ",
"/ / / { { { { { [ [ [ / / / / m / / / { { { { { { { { / / / / / ",
"/ / / { { { { { [ [ [ / / / ^ m / / / [ { { { { { { { / / / / / ",
"/ / / { { { { { { { { / / _ :.b :.S./ { { { { { { { { / / / / / ",
"/ / / { { { { { { { { S.d.z.U.U.U.H.d.f.] { { { { { { / / / / / ",
"/ / / { { { { { { ~ A l.T.^.(.(.(.(.!.Z.j.C { { { { { / / / / / ",
"/ / / { { { { { ~ = t.(.(.(.(.(.(.(.(.Y.J.1 C { { { { / / / / / ",
"/ / / / { { ] M = k.E./.~.(.(.(.(.(./.k L.Z.7 - ^ [ { / / / / / ",
"/ / / / { { N u K.A.!.W.C.W.(.(.(./.x.+ % G.y.> x / { / / / / / ",
"/ / / / { N E t.Y U.J W.b.b.M.C.N.i.6 > O D.B.>.U v ~ { / / / / ",
"/ / / Z l 0 * t e.n.O G.0.1 2.c.p.i 0 j.G.T c. .H W x B / / / / ",
"/ / G < } > v.5 #.u.w.+.+.+.@.4.#.+.+.5.s.s.3.e 5 F.9.> n / / / ",
"/ / n 9 3 b.K.8 i $.u.e.w.w.w.w.w.w.w.w.s.$.X.5 X E P r & ! / / ",
"/ ! 6 y   5 u g , s @.u.u.u.u.u.u.u.u.u.5.O.4 8 # @   > d M / / ",
"/ ! d 0 X # p w w.h L s K K K K K K K f : , q.L I 2 @ ; ,.B / / ",
"/ ! y o @ a 6.4.3.5.M.y.9.o.| O.|  .o. .q.} m.T.I.<.: . y V / / ",
"/ ^ ;.9 $ 7.6.r.r.8.V.R.E.J.8.a.6.8.p.6.3 E P.(.& <.a ; %.` / / ",
"/ / / b q 6.r.r.r.1.E W.!.U.8.r.7.6.r.7.s c.v.Q K r.f z ` { / / ",
"/ / / ^ ;.#.7.r.r.7.U I I 0.r.r.r.3.r.r.6.K K K r.3.&.` { [ / / ",
"/ / / / ~ # : u @.4.7.r.r.r.r.r.r.3.r.r.r.4.3.} w # C { { { / / ",
"/ / ^ ^ N ..u j ' ` -.h.h.h.-.-.-.=.h.-.-.:.' V 3  .c / { { / / ",
"/ / / ! v r.*.^ { { { { { { / / / / / / / / { { D 6.2.F { { / / ",
"/ / / ! 1.g.' { { { { { { { / / / / / / / / { { [ S.6.A { { / / ",
"/ / / _ z ) { { { { { { { { / / / / / / / / { { { { D :.{ { / / ",
"/ / / / / / { { { { { { { / / / / / / / / / { { { { { { { / / / ",
"/ / / / / / { { { { { { { / / / / / / / / / { { { { { { { / / / ",
"/ / / / / { { { { { { { { / / / / / / / / { { { { { { { { / / / "
};
