/* XPM */
static char *e_a11708272498[] = {
/* columns rows colors chars-per-pixel */
"32 32 77 1 ",
"  c #D7AA18",
". c #DCAC1E",
"X c #DFB615",
"o c #E2B715",
"O c #E7BE15",
"+ c #E9BC17",
"@ c #E2B21D",
"# c #EBBB19",
"$ c #F0BE1C",
"% c #D29F36",
"& c #D49E3C",
"* c #DDAD22",
"= c #D4A22A",
"- c #DAA635",
"; c #DEAA35",
": c #D7A13D",
"> c #D9A43E",
", c #E0AF25",
"< c #E3B322",
"1 c #EEBF25",
"2 c #E9B729",
"3 c #F0BD25",
"4 c #E9B337",
"5 c #EBC517",
"6 c #ECC31A",
"7 c #EECA18",
"8 c #F1C319",
"9 c #F4CD1B",
"0 c #EBD318",
"q c #EFDA1B",
"w c #F4D31B",
"e c #F8D71B",
"r c #F3DB1B",
"t c #F8DA1A",
"y c #F2E21D",
"u c #F8E01E",
"i c #F3DC21",
"p c #F3DE28",
"a c #F6E524",
"s c #F3EA23",
"d c #F4E62C",
"f c #F5EC2B",
"g c #F3F225",
"h c #F3F228",
"j c #F5EA3B",
"k c #F5F335",
"l c #F4F63B",
"z c #D39C44",
"x c #D89F46",
"c c #D2974B",
"v c #D69B4B",
"b c #D99D4F",
"n c #D59554",
"m c #DA9C55",
"M c #D79359",
"N c #D8925D",
"B c #DD9B5C",
"V c #E19E5F",
"C c #DAA242",
"Z c #DFA24F",
"A c #E2A553",
"S c #DD8F6A",
"D c #DB9065",
"F c #DF9A62",
"G c #DC9068",
"H c #E09A64",
"J c #E5996D",
"K c #E79971",
"L c #E89973",
"P c #F5F540",
"I c #F8F344",
"U c #F3FB43",
"Y c #FAF24B",
"T c #F7FB4D",
"R c #F8FA53",
"E c #FAFD5B",
"W c #FCFF63",
/* pixels */
"SSSSLLLLLLLLSSSSSSSSLLLLLLLLSSSS",
"SSSSLLLLLLLSSSSSSSSSLLLLLLLSSSSS",
"SSSSLLLLLLLSSSSSSSSSLLLLLLLSSSSS",
"SSSLLLLLLLLSSSSSSSSLLLLLLLLSSSSS",
"SSSLLLLLLLLSSSSDGSSLLLLLLLLSSSSS",
"SSSLLLLLLLLSSSSNMSSLLLLLLLLSSSSS",
"SSSLLLLLLLKSSSDnnDSKLLLLLLLSSSSS",
"SSSLLLLLLLLSSSDncDSKKLLLLLLSSSSS",
"SSSLLLLLLLLGDDMzcMDHJJKLLLLSSSSS",
"SSSLLLLLLKJNnnv%:&:ZmFHLLLLSSSSS",
"SSSLLLLLLJBc%:-...*<;bHLLLLSSSSS",
"SSSLLLLLKHz=..@68+++*:BHKLLSSSSS",
"SSSSLLLLJBC*XO7ww975#*CmJLLSSSSS",
"SSSSLLLLJB;60qisaryw6<CBJKLSSSSS",
"SSSSLLLKHC*6rskUIfffi6>vFJLLSSSS",
"SSSSSKKJm= oqhUEEYYld7.&FJKLSSSS",
"SSSGDHFHm% +ikRWWERPi5*zBHFHSSSS",
"SSSGNnBBm><9ijTERYlfr6.&mBBFKSSS",
"SSSSGDJJBC288plllhfaw8.xFJJKKSSS",
"SSSSSSLJHmC<#9ygsurq93;mJKLLLSSS",
"SSSSSSLLJHb-<89te99634AHKLLLLLSS",
"SSSSSSLLLJBb-,1$8#@,;>VJKLLLLLSS",
"SSSSSSLLLJHmvC%.@.=&znHLKLLLLLSS",
"SSSSSSLLLLJHBnz&&&&nMDLLLLLLLLSS",
"SSSSSSLLLLLKJFnccMnDSSLLLLLLLLSS",
"SSSSSSLLLLLLKKDnnDDSSSLLLLLLLLSS",
"SSSSSSLLLLLLKLSnnDSSSSLLLLLLLLSS",
"SSSSSSLLLLLLLLDMnDSSSSLLLLLLLLSS",
"SSSSSSLLLLLLKKDDNSSSSSLLLLLLLLSS",
"SSSSSSLLLLLLKSSDDSSSSSLLLLLLLSSS",
"SSSSSSLLLLLLKSSSSSSSSSLLLLLLLSSS",
"SSSSSLLLLLLLLSSSSSSSSLLLLLLLLSSS"
};
