/* XPM */
static char *e_a21708272497[] = {
/* columns rows colors chars-per-pixel */
"32 32 101 2 ",
"   c #DAAC15",
".  c #D3A51C",
"X  c #DBAB1C",
"o  c #DCB114",
"O  c #E2B416",
"+  c #E8B717",
"@  c #E5BB16",
"#  c #EABC17",
"$  c #E4B41B",
"%  c #E7BC1B",
"&  c #EBBB19",
"*  c #F1BF1A",
"=  c #D19F2B",
"-  c #CF9C33",
";  c #CF993E",
":  c #D09E32",
">  c #D39E3C",
",  c #D5A623",
"<  c #DBAB24",
"1  c #D6A42D",
"2  c #DAA62E",
"3  c #DBAA2C",
"4  c #D3A035",
"5  c #D9A533",
"6  c #DCA936",
"7  c #D7A13E",
"8  c #DAA53C",
"9  c #E0AE26",
"0  c #E0AE2A",
"q  c #E5B524",
"w  c #E4B12C",
"e  c #EAB62C",
"r  c #E1AD33",
"t  c #E6AF3C",
"y  c #F0BD30",
"u  c #ECC517",
"i  c #E5C917",
"p  c #EDC219",
"a  c #EDCB19",
"s  c #F3C41A",
"d  c #F4CB1A",
"f  c #F9CB1A",
"g  c #EEDB19",
"h  c #F3D41A",
"j  c #F9D41B",
"k  c #F3DA1C",
"l  c #F8DB1B",
"z  c #F3E21D",
"x  c #F3E81C",
"c  c #EFC321",
"v  c #F5C324",
"b  c #F0D724",
"n  c #F6DC22",
"m  c #F3E424",
"M  c #F4EC23",
"N  c #F7E628",
"B  c #F5EC2C",
"V  c #F3F026",
"C  c #F3F12E",
"Z  c #F1F82C",
"A  c #F5E431",
"S  c #F4EC34",
"D  c #F8EF3E",
"F  c #F4F334",
"G  c #F1FA32",
"H  c #F4F63B",
"J  c #D19746",
"K  c #D49C43",
"L  c #D2964A",
"P  c #D69B4B",
"I  c #D89F49",
"U  c #D59554",
"Y  c #D79A52",
"T  c #DA9C54",
"R  c #D7935A",
"E  c #D8925E",
"W  c #DD9B5C",
"Q  c #E09F5A",
"!  c #D7A044",
"~  c #D9A243",
"^  c #DAA148",
"/  c #E3A84B",
"(  c #E9B040",
")  c #E1A353",
"_  c #DD8F6A",
"`  c #DB9065",
"'  c #DF9A62",
"]  c #DC9068",
"[  c #E19B64",
"{  c #E4996C",
"}  c #E79971",
"|  c #E89973",
" . c #F9EE42",
".. c #F6F443",
"X. c #F4FB44",
"o. c #F5FB4A",
"O. c #FBF451",
"+. c #F7FE54",
"@. c #F8FB53",
"#. c #FAFD5B",
"$. c #FCFE63",
/* pixels */
"_ _ _ _ | | | | | | | | _ ] ` E ` ] _ _ | | | | | | | | _ _ _ _ ",
"_ _ _ _ | | | | | | | _ _ ` E L R ` _ _ | | | | | | | _ _ _ _ _ ",
"_ _ _ _ | | | | | | | _ _ ] E J E ` _ _ | | | | | | | _ _ _ _ _ ",
"_ _ _ | | | | | | | | _ _ ` E J U ` _ | | | | | | | | _ _ _ _ _ ",
"_ _ _ | | | | | | | } ` ` E U J U ` ` { } } | | | | | _ _ _ _ _ ",
"_ _ _ | | | | | | } [ ` ` R J ; L U U [ [ { { [ | | | _ _ _ _ _ ",
"_ _ _ | | | | | } [ Q U R L > : > K > ^ ) W W W [ | | _ _ _ _ _ ",
"_ _ _ | | | | [ [ T K > K 7 , X < < , 0 0 t I W { | | _ _ _ _ _ ",
"_ _ _ | | | [ Y P K 1 1 1 3 O + + + O & O < > T [ | | _ _ _ _ _ ",
"_ _ _ | | | [ I : , X X $ % s s p * # # @ X 1 ~ W ' { _ _ _ _ _ ",
"_ _ _ | | [ ' I 2 X o O # a a h f s i a p & < 3 ! T [ ` _ _ _ _ ",
"_ _ _ | | { W ~ 0 i i a h h z z l k g h s * % < 7 T [ ` _ _ _ _ ",
"_ _ _ _ { [ T 6 q a g z z m B F N x x z n d & 0 ! T ' ` _ _ _ _ ",
"_ _ _ _ { W ! < O u k x V H X.o.D N M B B m d q 8 I T ` ` _ _ _ ",
"_ _ _ _ [ Y 1 X   @ a x Z H +.$.O. . ...H B k # X : P [ ` _ _ _ ",
"` ` ` ` E Y - .   @ h M G o.#.$.$.#.@.@...A d # , K W [ ` ` ` ` ",
"R U U U U P : , O a l S ..@.$.$.$.#.@.o.S m a % X > T W R U R R ",
"R U U U U P 7 9 & s k A ..@.#.#.@.o.X.F M g a % X : Y T T R U R ",
"` ` ` ` E U ~ e * s a b S ..o.o.H F F B m k d * X 4 Y ' [ ` ` ` ",
"_ ` _ ` E U ! r e & p d n C G Z V M m z l j s & < 7 W { } _ ] _ ",
"_ _ _ ` ` R T I 5 $ & s j m M M z l l h h h v e 8 Y [ } | | _ _ ",
"_ _ _ _ ` ` ' T K 3 $ & s j l l j j f a p c y ( ) Q { } | | _ _ ",
"_ _ _ _ _ _ { W T ~ 6 O + s f f f & & & q w t / Q } } | | | _ _ ",
"_ _ _ _ _ _ { W W T 8 5 < q + * & O   , 2 5 I P [ } | | | | _ _ ",
"_ _ _ _ _ _ | [ W T P P I 7 X   X X , : > J U ' { } | | | | { _ ",
"_ _ _ _ _ _ | } [ W W T Y K - = 5 5 4 K L R W } | | | | | | _ _ ",
"_ _ _ _ _ _ | | } } } W T Y L ; L P J U ` ` } } | | | | | | _ _ ",
"_ _ _ _ _ _ | | | } } [ [ [ R J U ` E E ] _ | | | | | | | } _ _ ",
"_ _ _ _ _ _ | | | | | } } { E J R ` ] ] _ _ | | | | | | | | _ _ ",
"_ _ _ _ _ _ | | | | | | | ] R J R ` ] ] _ _ | | | | | | | _ _ _ ",
"_ _ _ _ _ _ | | | | | | | ] E J R ] _ _ _ _ | | | | | | | _ _ _ ",
"_ _ _ _ _ | | | | | | | | ` E L E ] _ _ _ | | | | | | | | _ _ _ "
};
