/* XPM */
static char *e_a31708272498[] = {
/* columns rows colors chars-per-pixel */
"32 32 165 2 ",
"   c #9B782E",
".  c #957536",
"X  c #AE7D3D",
"o  c #AA724B",
"O  c #AE891D",
"+  c #B8901E",
"@  c #A48225",
"#  c #AB832B",
"$  c #B78D27",
"%  c #B98D27",
"&  c #B28C2A",
"*  c #A48031",
"=  c #B58D32",
"-  c #B08738",
";  c #BD9534",
":  c #BE933D",
">  c #D2A516",
",  c #DBAD17",
"<  c #D3A61D",
"1  c #D6A91A",
"2  c #D7B017",
"3  c #DDB11C",
"4  c #DDB91C",
"5  c #E1B616",
"6  c #E5BC16",
"7  c #E8BF17",
"8  c #E4B51A",
"9  c #E8B61D",
"0  c #E4BB1A",
"q  c #E9BC1A",
"w  c #C99D2A",
"e  c #CE983F",
"r  c #D19E33",
"t  c #CFA423",
"y  c #CAA12E",
"u  c #D4A624",
"i  c #D7A823",
"p  c #DCAD22",
"a  c #D3A12D",
"s  c #D4AA2C",
"d  c #DBAC29",
"f  c #DCB224",
"g  c #DFB22B",
"h  c #C9A030",
"j  c #D3A235",
"k  c #D9A734",
"l  c #D6AC31",
"z  c #DEAB33",
"x  c #D6A13B",
"c  c #DBA63C",
"v  c #DCAB3E",
"b  c #E0AD2F",
"n  c #E3B422",
"m  c #E4BB22",
"M  c #EBBA22",
"N  c #E3B22D",
"B  c #E4B82A",
"V  c #E9BE29",
"C  c #E3AC3D",
"Z  c #E3B333",
"A  c #E9B434",
"S  c #E4B834",
"D  c #E6B03B",
"F  c #DEC51B",
"G  c #E4C417",
"H  c #E9C317",
"J  c #E7CD17",
"K  c #ECCB17",
"L  c #E4C41A",
"P  c #ECC21A",
"I  c #EBCD19",
"U  c #F3CC1A",
"Y  c #E7D718",
"T  c #ECD31A",
"R  c #EDDE1B",
"E  c #F2D31A",
"W  c #F8D61C",
"Q  c #F3DD1D",
"!  c #F8DB1D",
"~  c #EEE21C",
"^  c #F2E41C",
"/  c #F3EB1D",
"(  c #E5C524",
")  c #EBC221",
"_  c #E0CF24",
"`  c #EACA2B",
"'  c #EBD423",
"]  c #EDDC24",
"[  c #EDDE2C",
"{  c #F7DB22",
"}  c #F1D429",
"|  c #EFEE22",
" . c #F5E425",
".. c #F8E424",
"X. c #F3EA23",
"o. c #F3E32B",
"O. c #F3EC2D",
"+. c #F2F223",
"@. c #F0F22D",
"#. c #EFE235",
"$. c #F8E636",
"%. c #F6EC34",
"&. c #F8EB36",
"*. c #F5EE3B",
"=. c #F9EC3C",
"-. c #F4F434",
";. c #F2FA35",
":. c #F5F43C",
">. c #F3FB3C",
",. c #B58241",
"<. c #B6934D",
"1. c #C68C4B",
"2. c #C98D4B",
"3. c #C79444",
"4. c #CE9645",
"5. c #CE9840",
"6. c #D29943",
"7. c #D2964C",
"8. c #D69B4C",
"9. c #D99D4E",
"0. c #CA875A",
"q. c #D38E5D",
"w. c #D69654",
"e. c #D89755",
"r. c #D79853",
"t. c #DB9C54",
"y. c #D6925B",
"u. c #DA955B",
"i. c #DD9B5C",
"p. c #DAA344",
"a. c #DDA24B",
"s. c #D9B545",
"d. c #CDA95E",
"f. c #E1A747",
"g. c #E4AC42",
"h. c #E8AF47",
"j. c #E3A74F",
"k. c #E5AA4B",
"l. c #E2BC4B",
"z. c #E3A356",
"x. c #E4A35B",
"c. c #D48D61",
"v. c #DA8F66",
"b. c #DD8F6A",
"n. c #D79060",
"m. c #DB9164",
"M. c #DF9A62",
"N. c #DC9068",
"B. c #E19B65",
"V. c #E4996C",
"C. c #E79971",
"Z. c #E89973",
"A. c #F9EE42",
"S. c #F6F343",
"D. c #F8F446",
"F. c #F4FB44",
"G. c #F7F74A",
"H. c #F8F54B",
"J. c #F6FC4C",
"K. c #F8F94D",
"L. c #F7FE53",
"P. c #F9FC55",
"I. c #F9FF5B",
"U. c #FCFF64",
"Y. c #FFFF6B",
/* pixels */
"b.b.b.b.Z.Z.Z.Z.Z.Z.Z.C.v.n.g.c e.N.v.b.C.Z.Z.Z.Z.Z.Z.Z.b.b.b.b.",
"b.b.b.b.Z.Z.Z.C.C.C.V.v.v.M.g.C e.v.v.u.V.C.Z.Z.Z.Z.Z.b.b.b.b.b.",
"b.b.b.b.Z.Z.C.V.V.V.V.w.w.e.C C 9.v.u.e.V.C.C.C.Z.Z.Z.b.b.b.b.b.",
"b.b.b.Z.Z.Z.Z.V.M.M.B.w.6.p.S S p.e.f.k.V.B.B.V.C.Z.Z.N.b.b.b.b.",
"b.b.b.Z.Z.V.B.C.M.t.t.6.j g ( ( N p.z C j.x.t.M.M.V.Z.b.b.b.b.b.",
"b.b.b.Z.Z.B.i.B.B.t.x r d P Y T q 3 3 n D f.a.8.t.M.C.b.b.b.b.b.",
"b.b.b.Z.Z.B.i.z.x.a.b i 9 E ~ Q U L P 9 b A D f.i.M.B.b.b.b.b.b.",
"b.b.b.C.V.B.B.z.g.Z f L P I X...W T H 9 9 M A f.a.t.B.N.b.b.b.b.",
"b.b.b.V.i.i.x.g.B G G Y T T *.&...Q I P I I V C k p.M.y.N.N.N.b.",
"b.b.m.B.t.x z b 4 J ~ X. .$.G.G.*...{ ^ { ! E P d a.t.w.n.N.b.b.",
"N.n.w.a.c d 3 L T R +.:.G.P.I.P.G.D.&.%.=.O.Q P i x 8.7.u.N.b.b.",
"b.n.w.p.d 8 7 W o.:.F.L.I.U.Y.U.L.L.F.G.H.-.^ K 5 i p.8.y.N.b.b.",
"N.m.q.5.p P U W A.P.P.P.U.Y.Y.U.I.I.P.L.J.-./ Q P 9 p 4.v.b.b.b.",
"N.q.3.y 0 U Q ^ :.J.L.I.Y.Y.Y.Y.U.U.U.I.L.>.| / E q > % 2.y.b.b.",
"w.,.# w m E Q / ;.F.J.I.U.Y.Y.Y.Y.Y.Y.U.P.J.-.X.E 6 > O # 1.y.n.",
"5.& & h m U ! / +.;.J.L.I.Y.Y.Y.Y.Y.Y.Y.P.J.;./ E q 1 + O $ 5.9.",
"b u l g ) E Q ^ / ;.L.I.Y.Y.Y.Y.Y.Y.Y.Y.L.>.+./ Q q f u < < u c ",
"8.; j Z 0 G J ^ :.K.P.I.U.Y.Y.Y.Y.Y.U.I.L.J.:.X.E 9 t w & @ & r.",
"0.  : s.v f L o.D.P.P.I.U.U.U.Y.Y.U.I.L.L.G.:.X.E n h = . . o v.",
"c.- * <.d.l.} =.S.*.:.P.I.P.I.U.I.I.L.L.G.-.X.^ T m l ; X ,.v.v.",
"v.c.<.o <.s.' [ [ #.S.K.P.L.I.I.L.F.F.;.;.X./ ~ E m y <.0.M.N.b.",
"b.b.v.c.3.s ( ` ' [ S.*.*.H.G.F.S.;.@.| / / ~ T ( f j e.M.C.b.b.",
"b.b.b.N.9.c d s _ ~ ' ] o.$.%.@.O.O.] T R R T 4 s c p.M.C.Z.b.b.",
"b.b.b.m.w.8.a.l F F 4 F T {  .^ R R L 6 H G 6 n c z.B.V.C.Z.b.b.",
"b.b.b.v.n.y.t.c d s 1 2 L U E K J U 7 , 1 1 k k.a.i.B.Z.Z.Z.N.N.",
"b.b.b.b.b.u.t.9.9.p.z u , q q q 5 7 q , w j a.M.M.i.i.C.Z.Z.b.b.",
"b.b.b.b.b.N.B.M.M.x.h.c z M 9 p i n n a e 6.t.M.V.C.V.Z.Z.Z.b.b.",
"b.b.b.b.b.b.C.V.V.B.x.t.a.C N b e c 8.6.e 7.M.B.V.Z.Z.Z.Z.Z.b.b.",
"b.b.b.b.b.b.Z.Z.V.V.V.u.t.z.C c 9.9.e.w.7.y.B.B.Z.Z.Z.Z.Z.Z.b.b.",
"b.b.b.b.b.b.Z.Z.Z.Z.V.B.M.u.C C 9.u.u.v.m.N.C.C.Z.Z.Z.Z.Z.b.b.b.",
"b.b.b.b.b.b.Z.Z.Z.Z.Z.V.V.u.C C e.m.b.v.b.b.Z.Z.Z.Z.Z.Z.Z.b.b.b.",
"b.b.b.b.b.Z.Z.Z.Z.Z.Z.Z.Z.M.g.C e.v.b.b.b.Z.Z.Z.Z.Z.Z.Z.Z.b.b.b."
};
