/* XPM */
static char *e_a41708272498[] = {
/* columns rows colors chars-per-pixel */
"32 32 186 2 ",
"   c #795D1F",
".  c #5E4827",
"X  c #6A5429",
"o  c #63473E",
"O  c #6D5238",
"+  c #775935",
"@  c #614F4A",
"#  c #6B5446",
"$  c #725B41",
"%  c #7F674B",
"&  c #7D6654",
"*  c #99771B",
"=  c #855A38",
"-  c #896A24",
";  c #896C2B",
":  c #9C7824",
">  c #94742A",
",  c #8D6F31",
"<  c #986B39",
"1  c #8F723D",
"2  c #9B7835",
"3  c #94743B",
"4  c #A17F2F",
"5  c #A77A3C",
"6  c #895D42",
"7  c #8A694D",
"8  c #9E674B",
"9  c #977747",
"0  c #876E58",
"q  c #936954",
"w  c #8E7456",
"e  c #A8724A",
"r  c #A76D50",
"t  c #AA7655",
"y  c #B97959",
"u  c #8B7867",
"i  c #887A74",
"p  c #C47F5E",
"a  c #A88219",
"s  c #B18A14",
"d  c #BC9313",
"f  c #BD941A",
"g  c #AB8623",
"h  c #A6832E",
"j  c #B48B24",
"k  c #B18A2C",
"l  c #BC9422",
"z  c #B7912E",
"x  c #BD962C",
"c  c #B3863C",
"v  c #BD973C",
"b  c #BF993F",
"n  c #C09713",
"m  c #C29812",
"M  c #CDA113",
"N  c #CDA11C",
"B  c #D6A717",
"V  c #D7AA16",
"C  c #DAAC15",
"Z  c #D4A71B",
"A  c #D9AB1B",
"S  c #DEB118",
"D  c #E3B416",
"F  c #E8B717",
"G  c #E5BB15",
"H  c #EABC17",
"J  c #E3B41B",
"K  c #E8B718",
"L  c #E7BA1A",
"P  c #ECBC19",
"I  c #F0BF1A",
"U  c #C19624",
"Y  c #CA9F22",
"T  c #C79535",
"R  c #CB9B32",
"E  c #C6933D",
"W  c #C4993A",
"Q  c #CC993A",
"!  c #D19D32",
"~  c #D29D3A",
"^  c #CDA226",
"/  c #CFA42A",
"(  c #D3A622",
")  c #D6A922",
"_  c #DBAC23",
"`  c #D2A62B",
"'  c #D5A829",
"]  c #DCAD2C",
"[  c #DFB022",
"{  c #CAA137",
"}  c #D6A733",
"|  c #D2A739",
" . c #E1B425",
".. c #E1B42A",
"X. c #E3B430",
"o. c #ECC517",
"O. c #E5C917",
"+. c #EDC219",
"@. c #EDCB19",
"#. c #F3C41A",
"$. c #F4CB1A",
"%. c #F9CB1A",
"&. c #EEDB19",
"*. c #F3D41A",
"=. c #F9D41B",
"-. c #F3DA1C",
";. c #F8DB1B",
":. c #F3E21D",
">. c #F3E81C",
",. c #EDC222",
"<. c #F3C324",
"1. c #F0D724",
"2. c #F6DC22",
"3. c #F3E424",
"4. c #F4EC23",
"5. c #F7E628",
"6. c #F5EC2C",
"7. c #F3F026",
"8. c #F2F52D",
"9. c #F5E431",
"0. c #F4EC34",
"q. c #F8EF3E",
"w. c #F4F334",
"e. c #F1FA32",
"r. c #F4F63B",
"t. c #9E8357",
"y. c #A38344",
"u. c #A98746",
"i. c #AE8C4E",
"p. c #B68448",
"a. c #B99443",
"s. c #A58758",
"d. c #A58A62",
"f. c #B09468",
"g. c #A69277",
"h. c #BCA178",
"j. c #C38E42",
"k. c #C58B4D",
"l. c #C98D4D",
"z. c #C69044",
"x. c #CA9445",
"c. c #C59E45",
"v. c #D19746",
"b. c #D2964B",
"n. c #D59B4A",
"m. c #C78C51",
"M. c #C28058",
"N. c #CB865D",
"B. c #CE885D",
"V. c #D08C5C",
"C. c #C19D52",
"Z. c #D59554",
"A. c #D69952",
"S. c #DA9B57",
"D. c #D6935A",
"F. c #D8945D",
"G. c #E09F5A",
"H. c #DAA147",
"J. c #D3A944",
"K. c #DFA153",
"L. c #CC8862",
"P. c #D58A66",
"I. c #D98E66",
"U. c #D78E6A",
"Y. c #DD8F6A",
"T. c #DB9165",
"R. c #DE9A62",
"E. c #DC9169",
"W. c #E19A66",
"Q. c #E1956D",
"!. c #E4996C",
"~. c #E59772",
"^. c #E79971",
"/. c #E89973",
"(. c #C6A566",
"). c #F9EE42",
"_. c #F6F443",
"`. c #F4FB44",
"'. c #F5FB4A",
"]. c #F9F953",
"[. c #F8FB53",
"{. c #FAFD5B",
"}. c #FCFE63",
"|. c #A89586",
" X c #AF9E91",
".X c #BEA786",
/* pixels */
"Y.Y.Y.Y././././././././.Y.Y.T.F.I.Y.Y.Y././././././././.Y.Y.Y.Y.",
"Y.Y.Y.Y./././././././.Y.Y.T.F.b.F.T.Y.Y./././././././.Y.Y.Y.Y.Y.",
"Y.Y.Y.Y././././././.^.Y.Y.T.F.v.D.W.Y.Y./././././././.Y.Y.Y.Y.Y.",
"Y.Y.Y././././././././.Y.Y.I.D.v.D.I.Y././././././././.Y.Y.Y.Y.Y.",
"Y.Y.Y./././././././.!.Y.Y.F.Z.v.b.I.T.!.^.^./.^./././.Y.Y.Y.Y.Y.",
"Y.E.Y././././././.!.!.I.F.D.v.Q b.Z.Z.W.W.!.!.!.^././.Y.Y.Y.Y.Y.",
"Y.Y.Y././././.^.~.W.S.Z.D.b.~ ! ~ ~ ~ H.K.G.G.G.!.^./.Y.Y.Y.Y.Y.",
"Y.Y.Y./././.^.W.W.b.Q T Q ! ( A _ ) Z ] [ ~ n.G.!.^./.Y.Y.Y.Y.Y.",
"Y.Y.Y././.^.!.A.x.x N M Y Z J F D D D K D Z R A.W.^./.Y.Y.Y.Y.Y.",
"Y.Y.Y./.^.^.R.E U M B Z S L +.#.#.P +.P G C N R S.W.!.Y.Y.Y.Y.Y.",
"Y.Y.Y./.~.U.p.k ^ A S G H @.@.*.%.$.o.o.+.F C ^ R Z.W.I.Y.Y.Y.Y.",
"Y.Y.Y.~.U.e > z } +.O.O.*.*.:.:.;.-.&.*.$.I L Z f c F.Y.Y.Y.Y.Y.",
"Y.Y.P.p 6 + 2 { [ @.&.-.:.4.0.w.5.:.>.:.2.$.P ) z : 5 V.Y.Y.Y.Y.",
"Y.P.y # O 3 a.} J O.-.>.4.r.`.'.q.5.4.6.6.3.@...c.h * < B.I.Y.Y.",
"I.r o @ % y.W ) C G *.>.8.`.[.{.[.).r._.r.0.*.P ' l *   = p I.Y.",
"p O # & w y.W / V G *.4.e.'.{.}.}.{.[.[._.9.$.K ' k - X . = p Y.",
"m.1 9 t.s.i.a./ D o.;.0._.[.}.}.}.{.[.'.w.3.@.L Z j > ; - - 5 D.",
"m.3 t.d.s.i.a.] P $.1.9._.[.{.{.].'.`.0.4.&.@.L C l h 2 , - 2 D.",
"N.+ w |.|.f.c.] I #.@.1.0._.'.'.r.w.w.6.:.=.$.I C x y.7 $ + e T.",
"P.8 # i  X.X(.J...P +.$.2.8.e.e.4.4.5.:.-.=.#.I A v t.& 7 y P.T.",
"U.P.p q u g.h.(.J._ P #.=.3.4.>.:.;.;.&.*.$.<.X.| u.7 t P.~.Y.Y.",
"E.Y.U.P.y 7 t.f.C.|  .I %.=.;.;.=.=.%.#.o.,.X.| c 9 M.E././.Y.Y.",
"Y.Y.Y.Y.I.N.t 9 u.a.`  .P I %.%.%.+.P F  ._ / z p.L.Q./././.Y.Y.",
"Y.Y.Y.Y.Y.Y.W.m.5 4 l Y ( A F I K D C B N f j v F.!././././.Y.Y.",
"Y.Y.Y.Y.Y.Y.^.W.Z.j.j g g U B V C V M d s g z.R.!.^././././.E.E.",
"Y.Y.Y.Y.Y.Y./.~.W.F.l.c 4 * d m n n n a c k.R.~.^./././././.E.E.",
"Y.Y.Y.Y.Y.Y././.^.!.W.F.v.l.E T E z.E k.V.I././././././././.E.E.",
"Y.Y.Y.Y.Y.Y././././.^.W.W.G.D.v.Z.F.D.T.T.Y././././././././.Y.Y.",
"Y.Y.Y.Y.Y.Y./././././.^.^.!.D.v.D.I.I.T.Y.Y././././././././.Y.Y.",
"Y.Y.Y.Y.Y.Y./././././././.Y.F.v.D.Y.Y.Y.Y.Y./././././././.Y.Y.Y.",
"Y.Y.Y.Y.Y.Y./././././././.I.D.b.D.I.Y.Y.Y.Y./././././././.Y.Y.Y.",
"Y.Y.Y.Y.Y././././././././.Y.F.b.D.W.Y.Y.Y././././././././.Y.Y.Y."
};
