/* XPM */
static char *e_a51708272499[] = {
/* columns rows colors chars-per-pixel */
"32 32 179 2 ",
"   c #372B2A",
".  c #432F1C",
"X  c #463512",
"o  c #533F16",
"O  c #412C24",
"+  c #493A26",
"@  c #44332B",
"#  c #493A2E",
"$  c #573B29",
"%  c #4D3938",
"&  c #533C37",
"*  c #5C471E",
"=  c #5B4727",
"-  c #5A4737",
";  c #634E29",
":  c #60433B",
">  c #684A3B",
",  c #754D3B",
"<  c #6C5432",
"1  c #715A32",
"2  c #7D632F",
"3  c #7E6334",
"4  c #373846",
"5  c #433F4F",
"6  c #594846",
"7  c #574A4B",
"8  c #4C4953",
"9  c #644E46",
"0  c #6E4D43",
"q  c #675446",
"w  c #69544D",
"e  c #745A46",
"r  c #6E5D57",
"t  c #675859",
"y  c #725C54",
"u  c #7F5D51",
"i  c #776246",
"p  c #7C655A",
"a  c #585870",
"s  c #736463",
"d  c #7D6D68",
"f  c #7D7170",
"g  c #886A18",
"h  c #85553D",
"j  c #846723",
"k  c #987829",
"l  c #8B6E34",
"z  c #86683A",
"x  c #977834",
"c  c #A17F31",
"v  c #845A49",
"b  c #925E45",
"n  c #896546",
"m  c #866F4D",
"M  c #90604A",
"N  c #9C654C",
"B  c #977B48",
"V  c #946754",
"C  c #897155",
"Z  c #957A56",
"A  c #A76B4F",
"S  c #A76D52",
"D  c #A6715A",
"F  c #B87957",
"G  c #B47659",
"H  c #B6785C",
"J  c #BB7B5C",
"K  c #8A7669",
"L  c #927C66",
"P  c #867875",
"I  c #8C7D7A",
"U  c #907E75",
"Y  c #C37E5D",
"T  c #B38D2B",
"R  c #BB932D",
"E  c #AA8738",
"W  c #B68F30",
"Q  c #BC9533",
"!  c #BA9538",
"~  c #DBAD1E",
"^  c #DFB51C",
"/  c #E9BC17",
"(  c #E5B818",
")  c #EBBC18",
"_  c #C99F29",
"`  c #C59E3C",
"'  c #D7AA24",
"]  c #DBAD21",
"[  c #D6AB2C",
"{  c #DAAD29",
"}  c #DEB026",
"|  c #CBA23D",
" . c #D3A836",
".. c #DCB13A",
"X. c #E4B523",
"o. c #ECBD25",
"O. c #E4B72E",
"+. c #E2B535",
"@. c #EDC319",
"#. c #EECA18",
"$. c #F1C319",
"%. c #F4CD1B",
"&. c #EDD71A",
"*. c #F4D31B",
"=. c #F3DB1B",
"-. c #F8D91B",
";. c #F2E21D",
":. c #E7C125",
">. c #F3DC21",
",. c #F3DE28",
"<. c #F5E527",
"1. c #F3EA23",
"2. c #F5EC2B",
"3. c #F3F227",
"4. c #F5EA3B",
"5. c #F5F335",
"6. c #F4F63B",
"7. c #9E8049",
"8. c #A18149",
"9. c #BC974C",
"0. c #AD8C52",
"q. c #A58858",
"w. c #B19055",
"e. c #B99755",
"r. c #9A8369",
"t. c #9A8876",
"y. c #A08766",
"u. c #A28A6B",
"i. c #B79864",
"p. c #AA927A",
"a. c #B19671",
"s. c #C28A48",
"d. c #C29C45",
"f. c #C4835E",
"g. c #C09C52",
"h. c #D49454",
"j. c #D8925E",
"k. c #CFA94F",
"l. c #D6AD4C",
"z. c #CAA657",
"x. c #D2AA52",
"c. c #C58262",
"v. c #CB8462",
"b. c #CE8866",
"n. c #CF8968",
"m. c #D48A66",
"M. c #D98E66",
"N. c #D68E6A",
"B. c #DD8F6A",
"V. c #DC9067",
"C. c #DD916B",
"Z. c #E0946F",
"A. c #E49671",
"S. c #E79872",
"D. c #E89973",
"F. c #C6A66B",
"G. c #D0AE6A",
"H. c #F5F540",
"J. c #F8F344",
"K. c #F3FB43",
"L. c #FAF24B",
"P. c #F7FB4D",
"I. c #F8FA53",
"U. c #FAFD5B",
"Y. c #FCFF63",
"T. c #5E6989",
"R. c #5D6D93",
"E. c #6D7188",
"W. c #787C94",
"Q. c #827B82",
"!. c #8D8483",
"~. c #988C87",
"^. c #9C8F8E",
"/. c #A59184",
"(. c #B49D83",
"). c #AA9C98",
"_. c #ABA19F",
"`. c #ACA2A2",
"'. c #B5ACA9",
/* pixels */
"B.B.B.B.D.D.D.D.D.D.D.D.B.B.B.B.B.B.B.B.D.D.D.D.D.D.D.D.B.B.B.B.",
"B.B.B.C.D.D.D.D.D.D.D.B.B.B.B.B.B.B.B.B.D.D.D.D.D.D.D.B.B.B.B.B.",
"B.B.B.B.D.D.D.D.D.D.D.B.B.B.B.B.B.B.B.B.D.D.D.D.D.D.D.B.B.B.B.B.",
"B.B.B.D.D.D.D.D.D.D.D.B.B.B.B.B.B.B.B.D.D.D.D.D.D.D.D.B.B.B.B.B.",
"B.B.B.D.D.D.D.D.D.D.D.B.B.B.B.M.Z.B.B.D.D.D.D.D.D.D.D.B.B.B.B.B.",
"B.B.B.D.D.D.D.D.S.S.D.B.B.Z.M.j.j.M.M.D.D.D.D.D.D.D.D.B.B.B.B.B.",
"B.B.B.D.D.D.D.D.S.S.S.m.B.B.M.h.h.V.V.D.D.D.D.D.D.D.D.B.Z.B.B.B.",
"B.B.B.D.D.D.D.D.S.B.Y G F J F 9.s.F J f.v.N.A.D.D.D.D.B.M.B.B.B.",
"B.B.B.D.S.S.D.S.n.M & - , i m E c l z < = z c.A.D.D.D.B.B.B.B.B.",
"B.B.B.D.S.S.A.Y v 7 y C q.q.0.Q R T T E x l n Y A.D.D.B.B.B.B.B.",
"B.B.B.D.S.C.H 0 t K u.i.z.z.x.] ] ] ~ ] _ E i e F Z.S.B.B.B.B.B.",
"B.B.B.D.N.A & 8 P (.F.x. ...O.@.) ) ) ) ' ! 7.i > S B.B.B.B.B.B.",
"B.B.M.Y v % 5 a P (.G...^ ) #.*.%.%.#.$.( [ Q B w # N m.B.B.B.B.",
"B.m.H 0 & 5 T.R.Q.i.l.:.&.=.>.1.<.-.;.-.@.^ Q L T.4 O h v.B.B.B.",
"m.A : 7 t t T.R.Q.d.[ ) =.1.5.K.J.2.1.2.,.o.` u.W.8     h Y B.B.",
"Y : 7 r s s E.W.t.d.' ( &.3.K.U.U.L.L.H.<.#.[ w.P 7 # @ O , Y B.",
"Y 9 t d L L U !.y.g.[ / >.5.P.Y.Y.U.I.6.<.@. .0.m 3 2 1 - @ M C.",
"Y w f I L Z q.Z q.g.+.%.>.4.I.U.I.P.H.2.&.@.[ ! x l z z -   h M.",
"b.9 s ^.).~.U K Z d.+.o.$.,.5.K.6.2.2.;.*.$.] ! C p p r 6 : S M.",
"m.N 9 P _.'.`.^.u.w.d.X.) %.1.3.1.>.=.=.#.o. .0.L d s t v J m.B.",
"B.m.Y V f ^.`.'.).p.e.d.( ) %.-.-.%.$.@.o...e.r.P s y D N.S.B.B.",
"B.B.M.b.H u f !././.a.F.k.} X.$.$.) ^ {  .9.q.d r u J Z.D.D.B.B.",
"B.B.B.B.M.v.D y r K L w.9.9.| ' ~ ~ _ ! E x i q V b.S.S.D.D.B.B.",
"B.B.B.B.B.N.Z.b.v 6 q m B 8.8.W _ W T x z ; > G B.S.D.D.D.D.B.B.",
"B.B.B.B.B.B.D.S.M.F , # > 3 l k k j g * . h Y S.S.S.D.D.D.D.B.B.",
"B.B.B.B.B.B.D.D.D.A.n.N - + = g g o X $ b v.S.D.D.S.D.D.D.D.B.B.",
"B.B.B.B.B.B.D.D.D.D.D.B.b.v.f.s.s.Y Y Y m.B.D.D.D.D.D.D.D.D.B.B.",
"B.B.B.B.B.B.D.D.D.D.D.D.S.S.V.h.h.M.B.B.B.B.D.D.D.D.D.D.D.D.B.B.",
"B.B.B.B.B.B.D.D.D.D.D.D.D.D.V.j.j.Z.B.B.B.B.D.D.D.D.D.D.D.D.B.B.",
"B.B.B.B.B.B.D.D.D.D.D.D.D.B.B.V.M.B.B.B.B.B.D.D.D.D.D.D.D.B.B.B.",
"B.B.B.B.B.B.D.D.D.D.D.D.D.B.B.B.B.B.B.B.B.B.D.D.D.D.D.D.D.B.B.B.",
"B.B.B.B.B.D.D.D.D.D.D.D.D.B.B.B.B.B.B.B.B.D.D.D.D.D.D.D.D.B.B.B."
};
