/* XPM */
static char *tile_ground1707320114[] = {
/* columns rows colors chars-per-pixel */
"32 32 2 1 ",
"  c #DD8F6A",
". c #E89973",
/* pixels */
"    ........        ........    ",
"    .......         .......     ",
"    .......         .......     ",
"   ........        ........     ",
"   ........        ........     ",
"   ........        ........     ",
"   ........        ........     ",
"   ........        ........     ",
"   ........        ........     ",
"   ........        ........     ",
"   ........        ........     ",
"   ........        ........     ",
"    .......         .......     ",
"    .......         .......     ",
"    ........        ........    ",
"     .......         .......    ",
"     .......         .......    ",
"      .......         .......   ",
"      .......         .......   ",
"      .......         .......   ",
"      ........        ........  ",
"      ........        ........  ",
"      ........        ........  ",
"      ........        ........  ",
"      ........        ........  ",
"      ........        ........  ",
"      ........        ........  ",
"      ........        ........  ",
"      ........        ........  ",
"      .......         .......   ",
"      .......         .......   ",
"     ........        ........   "
};
