/* XPM */
static char *tile_murr1707320114[] = {
/* columns rows colors chars-per-pixel */
"32 32 16 1 ",
"  c #732E36",
". c #77323A",
"X c #78333B",
"o c #79343C",
"O c #7C373F",
"+ c #7F3A42",
"@ c #803B43",
"# c #833E46",
"$ c #843F47",
"% c #864149",
"& c #88434B",
"* c #89444C",
"= c #8C474F",
"- c #8E4951",
"; c #914C54",
": c #944F57",
/* pixels */
"%$$++#%@#O#@=%#%+O+%@$++@+%Oo+. ",
"+#&%##@+%%O+oo++O%#o##.+;.+###++",
"*%+#%#####+$###*%@@O.O%+#$##+@&#",
"=%#o+O#+#@#+@%+##O##++%@+++++++O",
"+@#%+##@#%&$O@+###*#Oo#%*$+O#&O#",
"*@##O$##O+##%#+#$+#%+#+o@$##+##+",
"%#+#O###@oO###*@&#o@%%##++%##+%+",
"@#+o+++#%O+@+@$O@+Oo#%###Ooo#O*+",
"#+OO+@+@#+@+#@+$$+$O#$*%###O##o$",
"@++$###@++@++#+o+#&@##&&-##%#$@#",
"@+$@##++o#@++###**o##+-%*#$##@#+",
"+##+O++++o+@@++%-%@+#&$##+#++O+o",
"+#@OOo%%..oX@+O+&$+.O&#&&X+%+%##",
" X+##++##%+oo#%@####+**%%+#@o%##",
"+#$$@OO&o##%#+Oo+##%@#++##$+O+#$",
"$@+#$#o$+$++$###++o##o##+$+#%X.#",
"#%Oo@%%+$$O#+O#%#+.O#+O o%@$$+O@",
"O++.+O%+++##%+##@$##+=-%#o+++++o",
"#+#+@+#$#o@$&####%##%+:@#%++#oO+",
"%%##+@#+$%#%%#%O@%##$oo.@%##$o++",
"%%#%%#@@+OO++o&%##%@+##+O#$@$#Oo",
"++$++$#$#%##o.##oO&%+#++o++##O#$",
"##+@$++%+#&*+##%#o#+%+@+%#+#+oO%",
"##+@o#O#+%#+#%@#++##*##+#$O+$+=%",
"%+$%#++$+#$#+#@#OO+o#&@##%++#%##",
"O+%o+#%####%#O+OoO%+.@O#+#oO#@+#",
"$##.@o++##%%%O#+##%+@#+Xo#o+#%$%",
"%&#+#$*#OO#+o+o+++$@#$@#+O@O++$=",
"*%#%%O+++++###OOo++o##o@+#%ooo+#",
"#%##@#@@#%##+######@O##OO.#@$#++",
"+$##%#++O++@.++@##@++@O##++OO+o.",
"##%@+++#####++++$#+o++O+OO+#&&#+"
};
