/* XPM */
static char *tile_wall_midright1707663238[] = {
/* columns rows colors chars-per-pixel */
"32 32 47 1 ",
"  c #59262C",
". c #5A282E",
"X c #5D2A30",
"o c #5F2C32",
"O c #62262D",
"+ c #672B32",
"@ c #682C33",
"# c #6B2F36",
"$ c #732E36",
"% c #6C3037",
"& c #6E3239",
"* c #77323A",
"= c #70343B",
"- c #72363D",
"; c #78333B",
": c #7A353D",
"> c #7C373F",
", c #74383F",
"< c #7F3A42",
"1 c #803B43",
"2 c #813C44",
"3 c #843F47",
"4 c #8F4B41",
"5 c #864149",
"6 c #88434B",
"7 c #8A454D",
"8 c #8C474F",
"9 c #914D42",
"0 c #924E44",
"q c #8E4951",
"w c #914C54",
"e c #944F57",
"r c #B35E4D",
"t c #B5604F",
"y c #B66150",
"u c #B86352",
"i c #B96453",
"p c #BA6554",
"a c #BC6756",
"s c #BD6857",
"d c #BF6A59",
"f c #C06B5A",
"g c #C16C5B",
"h c #C37E5D",
"j c #DD8E68",
"k c #DD8F6A",
"l c #E89973",
/* pixels */
"llllp##252318535<<<325<<1<5<:<**",
"lllli=-&33<<::<>>52:22*<w*<512<>",
"llllla&=26231227522>*>5<2522<162",
"llllli--=57<25152<22<<5<1<<<<<<<",
"lllllla%-565<2125272<:2673<<27<2",
"llllllpO&25252125<25<2><<522<221",
"llllllu+-<<2227252><5523<<522151",
"lllllls-&152<22<2<:>26322>::3:71",
"llllllt&@23<3222513>2575525>22>2",
"lllllls&#22<<2<:<2622256q3253522",
"lllllli%&<21<25276:232q57253213<",
"llllllg-&5511<<5q5212752212<<><:",
"lllllp#&-56*<<<>551;>5265:<5<532",
"llllj%%#212>:2312232<8855222>352",
"llllg+#*<<>53<<:<225<212225><<25",
"llllg-&:<52<32231>>51<2225<15:*2",
"llllr&=2<152<<252<;>21<$:5133<>1",
"jllly#&-521252322522<q852;<<<<<:",
"klllly==<:$5522326255<e225112::<",
"kllllr@+22>5555>26322::;26235:<<",
"kllllp@@221<1:652351<22<<25222<:",
"klllla&&5222:*23:<65<2<<:<<22<23",
"hklllf&=#<2722551>216<2<32>3<:<3",
"klllll0. <2<2522<<23723<25<<2<85",
"klllll9@ 2222212>><;262225<<2532",
"klllll4oX3532<<>:>5<:1<222:>2222",
"kllllly&=2766>1<225<<21;>2<<2555",
"klllllu<&1<2:<:1<2522522<><:<<2q",
"klllly%+=57232><:<<:23:<122:<><2",
"klllls-%257313122321>32<<*5122<<",
"klllld&-6212;<<1332<<1<22<<<><:;",
"lllld&#%3352<<<<32<:1>><>><2672<"
};
