/* XPM */
static char *tile_wall_midright1707320112[] = {
/* columns rows colors chars-per-pixel */
"32 32 56 1 ",
"  c #59262C",
". c #5A282E",
"X c #5D2A30",
"o c #5F2C32",
"O c #62262D",
"+ c #652930",
"@ c #662A31",
"# c #682C33",
"$ c #6A2E35",
"% c #6B2F36",
"& c #732E36",
"* c #6C3037",
"= c #6E3239",
"- c #6F333A",
"; c #77323A",
": c #70343B",
"> c #72363D",
", c #7A353D",
"< c #74383F",
"1 c #7D3840",
"2 c #7E3941",
"3 c #7F3A42",
"4 c #803B43",
"5 c #813C44",
"6 c #843F47",
"7 c #8F4B41",
"8 c #854048",
"9 c #864149",
"0 c #88434B",
"q c #89444C",
"w c #8B464E",
"e c #8C474F",
"r c #914D42",
"t c #924E44",
"y c #975348",
"u c #B35E4D",
"i c #B5604F",
"p c #AA6B53",
"a c #B66150",
"s c #B76251",
"d c #B86352",
"f c #B96453",
"g c #BA6554",
"h c #BC6756",
"j c #BD6857",
"k c #BE6958",
"l c #BF6A59",
"z c #C06B5A",
"x c #C16C5B",
"c c #C37E5D",
"v c #BC846A",
"b c #CF8663",
"n c #CD8664",
"m c #DD8F6A",
"M c #E89973",
"N c #EFA987",
/* pixels */
"mmmmMMMMMMMMmmmmmmmmMMMMMg%%5956",
"mmmmMMMMMMMmmmmmmmmmMMMMMf:>=663",
"mmmmMMMMMMMmmmpyypmmMMMMMMh=:595",
"mmmMMMMMMMMmmmy@@ymMMMMMMMd>>>9w",
"mmmMMMMMMMMmmmy@@ymMMMMMMMMh=>99",
"mmmMMMMMMMMmmmpyypmMMMMMMMMgO=59",
"mmmMMMMMMMMmmmmmmmmMMMMMMMMd@>3,",
"mmmMMMMMMMMmmmmmmmmMMMMMMMMk>:59",
"mmmMMMMMMMMmmmmmmmmMMMMMMMMi=%55",
"mmmMMMMMMMMmmmmmmmmMMMMMMMMj=#66",
"mmmMMMMMMMMmmmmmbbcmMMMMMMMf*:33",
"mmmMMMMMMMMmmmmbNNNcmMMMMMMx<=99",
"mmmmMMMMMMMmmmmmvncmMMMMMMg#=>90",
"mmmmMMMMMMMmmmmmmmmmMMMMMm*=%545",
"mmmmMMMMMMMMmmmmmmmmMMMMMz@*;343",
"mmmmmMMMMMMMmmmmmmmmmMMMMx>=,,95",
"mmmmmMMMMMMMmmmmmmmmmMMMMi==5339",
"mmmmmmMMMMMMMmmmmmmmmmMMMa%=>943",
"mmmmmmMMMMMMMmmmmmmmmmMMMMa=>3,&",
"mmmmmmMMMMMMMmmmmmmmmmMMMMu%@353",
"mmmmmmMMMMMMMMmmmmmmmmMMMMd%%563",
"mmmmmmMMMMMMMMmmmmbncmMMMMg=*655",
"mmmmmmMMMMMMMMmmmbNNNcmMMMk>=%35",
"mmmmmmMMMMMMMMmmmmvncmMMMMMt. 35",
"mmmmmmMMMMMMMMmmmmmmmmMMMMMr@ 55",
"mmmmmmMMMMMMMMmmmmmmmmMMMMM7oX59",
"mmmmmmMMMMMMMMmmmmmmmmMMMMMa==5e",
"mmmmmmMMMMMMMMmmmmmmmmMMMMMg3=53",
"mmmmmmMMMMMMMMmmmmmmmmMMMMa*+=9e",
"mmmmmmMMMMMMMmmmmmmmmmMMMMz:=36w",
"mmmmmmMMMMMMMmmmmmmmmmMMMMk==w63",
"mmmmmMMMMMMMMmmmmmmmmMMMMk=%%696"
};
