/* XPM */
static char *tile_wall_bottomcenter1707320113[] = {
/* columns rows colors chars-per-pixel */
"32 32 48 1 ",
"  c #59262C",
". c #5A282E",
"X c #5C292F",
"o c #5D2A30",
"O c #5F2C32",
"+ c #62262D",
"@ c #662A31",
"# c #602D33",
"$ c #682C33",
"% c #682F36",
"& c #6B2F36",
"* c #6A3037",
"= c #6C3037",
"- c #6B3239",
"; c #6D3138",
": c #77323A",
"> c #70343B",
", c #71353C",
"< c #7B363E",
"1 c #7C373F",
"2 c #7D3840",
"3 c #793D44",
"4 c #8E4A3F",
"5 c #803B43",
"6 c #813C44",
"7 c #833E46",
"8 c #843F47",
"9 c #89444C",
"0 c #914D43",
"q c #934F44",
"w c #955147",
"e c #975348",
"r c #AA6B53",
"t c #B66150",
"y c #B86352",
"u c #B96453",
"i c #BA6554",
"p c #BC6756",
"a c #C06B5A",
"s c #C16C5B",
"d c #C37E5D",
"f c #BC846A",
"g c #CF8663",
"h c #CD8664",
"j c #D68D6A",
"k c #DD8F6A",
"l c #E89973",
"z c #EFA987",
/* pixels */
"kkkkllllllllkkkkkkkkllllllllkkkk",
"kkkklllllllkkkkkkkkklllllllkkkkk",
"kkkklllllllkkkkkkkkklllllllkkkkk",
"kkkllllllllkkkkkkkkljsssjllkkkkk",
"kkkllllllllkkkkkkkkjs222sjlkkkkk",
"kkkllllllllkkkkkkkks22222slkkkkk",
"kkklghdklllkkkkkkkks22222slkkkkk",
"kkkgzzzdkllkkkkkkkks22222slkkkkk",
"kkklfhdklllkkkkkkkkjs222sjlkkkkk",
"kkkllllllllkkkkkkkkljsssjllkkkkk",
"kkkllllllllkkkkkkkkllllllllkkkkk",
"kkkllllllllkkkkkkkkllllllllkkkkk",
"kkkklllllllkkkkkkkkklllllllkkkkk",
"kkkklllllllkkkkkkkkklllllllkkkkk",
"kkkkllllllllkkkkkkkklllghdklkkkk",
"kkkkklllllllkkkkkkkkklgzzzdkkkkk",
"kkkkklllllllkkkkkkkkkllfhdklkkkk",
"kkkkkklllllllkkkkkkkkklllllllkkk",
"kkkkkklllllllkkkkkkkkklllllllkkk",
"kkkkkklllllllkkkkkkkkklllllllkkk",
"kkkkkkllllllllkkkkkkkkllllllllkk",
"kkkkkkllllllllkkkkkkkkllllllllkk",
"kkkkkkllllllllkkkkkkkkllllllllkk",
"kkkkkkllllllllkkkkkkkkllllllllkk",
"kkkkkkllllllllkkkkkkkkllllllllkk",
"ukkkkkllllllll4e4tskkkllllllllip",
",aq0rklllppuapo@O=,ukkllllllpa,,",
"#XX@0tyqq#>&>=X@X;>=aw0wyt04XX#3",
".@ $#>&.@#=@=$ -&<*$;#@o&,#@ @.7",
"-;;o#+$o##15877<297%$o# $+ooO--2",
"<2<<227755215872797<27278151221:",
"7999222<1<71177<772<522222279972"
};
