/* XPM */
static char *tile_wall_left1707663237[] = {
/* columns rows colors chars-per-pixel */
"32 32 45 1 ",
"  c #5E2B31",
". c #612B31",
"X c #662A31",
"o c #612E34",
"O c #622F35",
"+ c #682C33",
"@ c #6A2E35",
"# c #6B2F36",
"$ c #732E36",
"% c #6C3037",
"& c #6B3239",
"* c #6C333A",
"= c #6F333A",
"- c #77323A",
"; c #70343B",
": c #72363D",
"> c #78333B",
", c #79343C",
"< c #7C373F",
"1 c #7F3A42",
"2 c #7A3E45",
"3 c #803B43",
"4 c #813C44",
"5 c #833E46",
"6 c #843F47",
"7 c #854048",
"8 c #864149",
"9 c #88434B",
"0 c #89444C",
"q c #8C474F",
"w c #914D43",
"e c #8E4951",
"r c #914C54",
"t c #B45F4E",
"y c #B66150",
"u c #B86352",
"i c #B96453",
"p c #BB6655",
"a c #BC6756",
"s c #BD6857",
"d c #BE6958",
"f c #C06B5A",
"g c #C16C5B",
"h c #DD8F6A",
"j c #E89973",
/* pixels */
"866115835<53q8581<183611318<,1-$",
"1598553188<1,,11<85,55-1r-155511",
"0815855555165550833<-<8156551395",
"q85,1<51535138155<5511831111111<",
"135815535896<3155505<,58061<59<5",
"0355<655<15585156158151,36551551",
"8515<5553,<5550395,3885511855181",
"351,11158<13136<31<,58555<,,5<01",
"51<<131351315316616<5608555<55,6",
"311655531131151,15935599e5585635",
"31635511,531155500,551e805655351",
"1551<1111,133138e831596551511<1,",
"153<<,88--,-111<961-<9599>181855",
"$>155115581<,551555510088153,855",
"15663<<9,558511,155835155561<156",
"631565,6161866115835<5108681<183",
"68<>366<86<3696651<6811,,11<85,5",
"<33>3<913<69836655555161550851<-",
"636<33666>3q66>3,51655138psaysa1",
"9665<363666<369355558851pjjjjjjy",
"686993333<<q363<555<1558ajjjjjjy",
"3<6316666666636<sa83,,51sjjjjjjg",
"66<36<<916936<<ujjd8115<pjjjjjt5",
"66<3<6<31965<<<ujjjs13155psspd<5",
"6366631633853<65fai133315<,3*O *",
"<<6<<66636633636513,531<5552OX ;",
"936-3><3666366<<113<,13313:2O.wa",
"996356q6<<3<53<<>96>>,>31++:dihj",
"99696<3333<$,3*....*81>,;*%shhhj",
"6936353369636*.XXXX.%686#+thhhhj",
"3663863<<<<83oXXXXXX.336*;dhhhhh",
"63833<3666636.XXXXXX.<6##;dhhhhg"
};
