/* XPM */
static char *tile_wall_bottomright1707663237[] = {
/* columns rows colors chars-per-pixel */
"32 32 38 1 ",
"  c #5C2A30",
". c #5F2C32",
"X c #682C33",
"o c #692D34",
"O c #732E36",
"+ c #6C3037",
"@ c #6F333A",
"# c #6E353C",
"$ c #77323A",
"% c #70343B",
"& c #71353C",
"* c #78333B",
"= c #79343C",
"- c #7C373F",
"; c #763A41",
": c #7E3941",
"> c #803B43",
", c #823D45",
"< c #843F47",
"1 c #87424A",
"2 c #88434B",
"3 c #8B464E",
"4 c #8C474F",
"5 c #8D4850",
"6 c #914C54",
"7 c #B35E4D",
"8 c #B45F4E",
"9 c #B66150",
"0 c #B86352",
"q c #B96453",
"w c #BA6554",
"e c #BC6756",
"r c #BD6857",
"t c #BE6958",
"y c #C06B5A",
"u c #C16C5B",
"i c #DD8F6A",
"p c #E89973",
/* pixels */
"ppiiiii9 .#1>=u90,1<,:::,:1-=:$$",
"ppiiiit%@%::<wpppt,::1$:6*:1,,:-",
"ppiiiiy@o>,:1tpppe=:1,1>,1<,:>3,",
"pppiiie@+1,<:0pppq$:::<::::::>:-",
"pppiir@@@11w8ppppw:,:,,13<::<3-,",
"ppptu@X%<1tpppppp0,<12:-:<<>:,,>",
"tww&@@&1=>9pppppe11,11,<::1,,>1:",
"@+%;Xo,,$=1rytyt1::1-:<,,:=-,=3>",
"o&@@::1,,:33<:3=:<>:,<21<,,:,,=<",
",3,,::,,1,-,2:,-,=,:<,225<,1,1,,",
"2,*:=:,rew,1,:1::<1,>1513<<<,>,:",
">=:1:-9pppu,,,,1,:=1:-<,,:,::::=",
",::1:,-wppu1,,::=>$,><,12=:1:1<,",
"<1><,:,=97>>:-15,,><11311>,>:,,,",
",,=>:=:-,,,::>>:-11<13:>,,1-::,1",
"1=><,,,,1:1,1,>>>,,,2,,,><:,1=$,",
",:::,,,::$>:-:::,1><1:-O=1,<<>::",
"-,=:<1::>:<<,<,>:>>1,,51,*:::::-",
",:,:>:1,,-,<3,,,,2,<1-6,,1:>,==:",
"111,-,,:<<,<1,1-,2,,<=-=,1,,1-:>",
"11,11,>:::=:>-11>,1::<,::,,,,,-=",
"::<>:1,1,1,1=$,,-:21:,::=:><,:,<",
",<:><:-2:<23:,,1>:,>1:>,1,:,:-:<",
"<,-,=,:,>1,-,1,,::,,3,,:,<::,:41",
"1:<1,:>1:,1,>,,,:=:=,2,,,1::,<,<",
"::1=-,1,,<,1<-:-=:1:*>-,:,=:<,>,",
"1>,$>=::,,121-,:,,1:>,:==<-:,111",
"11<>,,4<:->:=:=>:><><<>,:::-::,3",
"31<21-:,>::,,<-:-:>=,,=,:,<===:<",
",1,,>,,:,1,1>,,>,,<>-<,::$<,1>::",
":,,,1,:::::,*:>,1,>::,:,,::---:$",
"<,1,::>,,<,,:>::,<:=::-:-::,33,:"
};
