/* XPM */
static char *tile_wall_left1707320112[] = {
/* columns rows colors chars-per-pixel */
"32 32 62 1 ",
"  c #562329",
". c #59262C",
"X c #5B282E",
"o c #5C292F",
"O c #5E2B31",
"+ c #612B31",
"@ c #662A31",
"# c #612E34",
"$ c #682C33",
"% c #692D34",
"& c #6A2E35",
"* c #6B2F36",
"= c #732E36",
"- c #6A3037",
"; c #6C3037",
": c #653339",
"> c #6B3239",
", c #6D3138",
"< c #6C3339",
"1 c #6D343B",
"2 c #763139",
"3 c #77323A",
"4 c #70343B",
"5 c #71353C",
"6 c #72363D",
"7 c #73373E",
"8 c #78333B",
"9 c #79343C",
"0 c #7C373F",
"q c #753940",
"w c #7D3840",
"e c #7F3A42",
"r c #783C43",
"t c #7A3E45",
"y c #803B43",
"u c #813C44",
"i c #823D45",
"p c #833E46",
"a c #843F47",
"s c #864149",
"d c #88434B",
"f c #89444C",
"g c #8A454D",
"h c #8C474F",
"j c #914D43",
"k c #934F45",
"l c #955147",
"z c #975348",
"x c #914C54",
"c c #B45F4E",
"v c #B66150",
"b c #B86352",
"n c #B96453",
"m c #BB6655",
"M c #BC6756",
"N c #BD6857",
"B c #BE6958",
"V c #C06B5A",
"C c #C16C5B",
"Z c #C36E5D",
"A c #DD8F6A",
"S c #E89973",
/* pixels */
"saaeepsyp0pyhaase0eapa0eyes00y8=",
"epdsppyead0y80ee0dy0ya8yx8eayyye",
"fsepspppppyayayfdyy080sepsaa0yda",
"hsp9e0peayp0ysMNMbMM0yaee00yyey0",
"eypseppyasdaeMSSSSSSb9pddayyad0a",
"fypp0app0ypadMSSSSSSby00yaay0a;*",
"spea0Nmay80ayMSSSSSSVappy*<<4*5<",
"ype9bSSBs0yy0MSSSSScpdaa-.@.4$qM",
"pe00nSSSNepeapbNBbV0aaf75O+o<MvA",
"yeeapNNneeee0p00y<#o4<qqtNMVNAAA",
"yeayppee9pee0apsr#@O4<t7ZSSAAAAA",
"eppe0eeye9eyyyy5t#+jMZBBSSSAAAAA",
"epy009da3398ye$$7VbASSSSSSSAAAAA",
"=8y>++++<se99<5*MAAASSSSSSSAAAAA",
"ep1+@@@@+>asa*$cAAAASSSSSSSSAAAA",
"ay+@@@@@@+yea44NAAAAACCVSSSSAAAA",
"ua+@@@@@$+wu**4VAAAAVe0wVSSSAAAA",
"wy+@@@@@@+aa7<MAAAACwwwweCSSSAAA",
"uu+$@@@@@+ua7<MAAAACwwww0CSSSAAA",
"fa<+@@$$+<aa#+lAAAACwwwwwVSSSAAA",
"aaa5++++*w@*X@zAAAAACee0CSSSSSAA",
"uwauuauaa544. kAAAAAAVCVSSSSSSAA",
"iawuuwwf*5qCMMAAAAAAAASSSSSSSSAA",
"aawuwuw<<5BSSSAAAAAAAASSSSSSSSAA",
"ayaaae;5*MSSSSAAAAAAAASSSSSSSSAA",
"wwaw*;#5MSSSSSAAAAAAAASSSSSSSSAA",
"auu2*@.<MSSSSSAAAAAAAASSSSSSSSAA",
"fdauO#:VSSSSSSAAAAAAAASSSSSSSSAA",
"faaf5*nSSSSSSSAAAAAAAASSSSSSSSAA",
"ufua<<MSSSSSSAAAAAAAAASSSSSSSAAA",
"uaau44nSSSSSSAAAAAAAAASSSSSSSAAA",
"auau;*nSSSSSSAAAAAAAASSSSSSSSAAA"
};
