/* XPM */
static char *tile_wall_bottomcenter1707663237[] = {
/* columns rows colors chars-per-pixel */
"32 32 54 1 ",
"  c #59262C",
". c #5A282E",
"X c #5C292F",
"o c #5D2A30",
"O c #5F2C32",
"+ c #62262D",
"@ c #662A31",
"# c #672B32",
"$ c #602D33",
"% c #682C33",
"& c #6B2F36",
"* c #732E36",
"= c #6A3037",
"- c #6C3037",
"; c #6B3239",
": c #6D3138",
"> c #6D343B",
", c #753038",
"< c #77323A",
"1 c #70343B",
"2 c #71353C",
"3 c #78333B",
"4 c #79343C",
"5 c #7B363E",
"6 c #7C373F",
"7 c #7D3840",
"8 c #7F3A42",
"9 c #793D44",
"0 c #8E4A3F",
"q c #803B43",
"w c #813C44",
"e c #823D45",
"r c #843F47",
"t c #854048",
"y c #88434B",
"u c #89444C",
"i c #8B464E",
"p c #914D43",
"a c #934F45",
"s c #955147",
"d c #975348",
"f c #8D4850",
"g c #8E4951",
"h c #944F57",
"j c #AA6B53",
"k c #B66150",
"l c #B86352",
"z c #B96453",
"x c #BA6554",
"c c #BC6756",
"v c #BF6A59",
"b c #C06B5A",
"n c #DD8F6A",
"m c #E89973",
/* pixels */
"nnnnnnmmmmmmmmnnnnnnnnmmmmmmmmnn",
"nnnnnnmmmmmmmmnnnnnnnnmmmmmmmmnn",
"nnnnnnmmmmmmmmnnnnnnnnmmmmmmmmnn",
"xnnnnnmmmmmmmm0d0lbnnnmmmmmmmmlc",
"2bapjnmmmcxzbxo@o:2xnnmmmmmmcb22",
"OXX@pklaa$1-1;o@X:1-bspdkkppoX$9",
".@ @O1&o@$:@-& &&7:@-$@o&>$@ @ t",
"=;>oO+%.OO7qeee77et;#$o.%+oo$-;7",
"6777q7ee7e77eer7tte57e7ee777777<",
"euue777777e67rr7ee65e777777euuee",
"eqteee775e7q7etruu7eeeuuuetteee7",
"7re66qeq657ee7qtft7eeytteee77575",
"7e7775ut3<5<7q77ute<5ueut57rette",
"*5ere67eet775et7eeee7futteee5ete",
"7erte67y7eete7757eet7e7eeee777et",
"te7ere5e7re7terre57te7eeeteet53e",
"er55ett7tt5e75ete755e77*6ueree7e",
"5e5577u777ttteeteteeeffte<e77755",
"t7e7e7tte7etueeteueet5h7ete7e575",
"utte7ee6ttetttt5ettet<75eteee77e",
"ttttueee557775ut7tu77tee7eeete75",
"e5te7tetttet5<ee77ue6e7775ete5et",
"tt5ee77t7tuueett77tet7eeee7t555t",
"ee5e7e7eett7eree77etutt7tt57teft",
"tetet77t6eteeeqe7765eteter77ttte",
"56t57ettetttt5e757te5e577e55ee7e",
"tee<75e7ettrt5e7eet77e757e77tttt",
"utteeeft75ee575777t7ttee77e577tf",
"utttt5e7e77tet7577e7ee6eeee5755t",
"etetee7ettet7teqeee75te55<tetee5",
"ettette7777e57eette57e7te7e5775<",
"eete75eeeett7777ee77e757577euue7"
};
