/* XPM */
static char *tile_wall_right1707320112[] = {
/* columns rows colors chars-per-pixel */
"32 32 67 1 ",
"  c #562329",
". c #59262C",
"X c #5A272D",
"o c #5C2A30",
"O c #5E2B31",
"+ c #5F2C32",
"@ c #612B31",
"# c #662A31",
"$ c #672B32",
"% c #622F35",
"& c #672E35",
"* c #682F36",
"= c #6B2F36",
"- c #732E36",
"; c #693037",
": c #6C3037",
"> c #653339",
", c #6B3239",
"< c #6F333A",
"1 c #6E353B",
"2 c #753038",
"3 c #70343B",
"4 c #72363D",
"5 c #78333B",
"6 c #79343C",
"7 c #7A353D",
"8 c #7C373F",
"9 c #71383F",
"0 c #74383F",
"q c #763A41",
"w c #7D3840",
"e c #7E3941",
"r c #7F3A42",
"t c #7A3E45",
"y c #803B43",
"u c #813C44",
"i c #833E46",
"p c #843F47",
"a c #854048",
"s c #87424A",
"d c #88434B",
"f c #89444C",
"g c #8C474F",
"h c #914D43",
"j c #934F45",
"k c #975348",
"l c #914C54",
"z c #B45F4E",
"x c #B66150",
"c c #B86352",
"v c #B96453",
"b c #BA6554",
"n c #BC6756",
"m c #BD6857",
"M c #BE6958",
"N c #C06B5A",
"B c #C16C5B",
"V c #C36E5D",
"C c #C37E5D",
"Z c #BC846A",
"A c #C98566",
"S c #CD8664",
"D c #D78B67",
"F c #DD8F6A",
"G c #DE906A",
"H c #E89973",
"J c #EFA987",
/* pixels */
"22e7eseieesipeeesssdepeiedieepps",
"eyiype2le5ie&@O=7e77eedpeiiissie",
"ify8iisiese#@##@1isepeiiiiidiesd",
"eeeieeeeese@####@epiepeiei8e7isg",
"iefieypfdi7@####@eieissieiiesiee",
"=:ieyipy7ei&@##O,yifiieepii7eppg",
":4;<<1;eiiis,@@qediyie7esbMeseip",
"bq#<X#X<ipdi77eeeseeeeesMHHx7epe",
"Gxn<X+O30fsi7pepieiieeenHHHbe8ee",
"FFFmNmmt00<<O%1e88ieypeebMMiieei",
"FFFHHHHV0t:<O#%qipseeyi7eeiiesyi",
"FFFHHHHHmmVmhO%t4eeeie78eyeeeiie",
"FFFFHHHHHHHFFvV4==ee-727pf58eepe",
"FFFFHHHHHHHGFFGb=<<78edieeeiie7-",
"FFFFHHHHHHHHFFFFz==idseefeeisdey",
"FFFFFHHFDSCCFFFFb<1ieepei7eiiees",
"FFFFFHDJJJJJCFFFM<=<i8ppxVpi7edi",
"FFFFFDJJJJJJCFFFGm<4ipecHHxe-ee8",
"FFFFFGZJJJACFFFFFc<4dy7nHHbieiep",
"FFFFFFGDSCCFHFFFFkO%ppppxHHxipss",
"FFFFFFHHHHHHHHFFFk#O=#8ebHHHNpps",
"FFFFFFHHHHHHHHFFFj X<<4ipnHHbpwe",
"FFFFFFHHHHHHHHFFFFnbVq<,fwxnuwpi",
"FFFFFFHHHHHHHHFFFFFFFM4=3wpwu8ii",
"FFFFFFHHHHHHHHFFFFFFFFb=4=eisies",
"FFFFFFHHHHHHHHFFFFFFFFHM3%,=7see",
"FFFFFFHHHHHHHHFFFFFFFFHb=O#=2iii",
"FFFFFFHHHHHHHHFFFFFFFFHHm>OOesss",
"FFFFFFHHHHHHHHFFFFFFFFHHHx=4sisd",
"FFFFFFHHHHHHHFFFFFFFFFHHHv<3iisi",
"FFFFFFHHHHHHHFFFFFFFFFHHHb34iipe",
"FFFFFHHHHHHHHFFFFFFFFHHHHb=;esii"
};
