/* XPM */
static char *tile_wall_bottomright1707320113[] = {
/* columns rows colors chars-per-pixel */
"32 32 45 1 ",
"  c #5C292F",
". c #5E2B31",
"X c #662A31",
"o c #642B32",
"O c #672E35",
"+ c #682C33",
"@ c #6A2E35",
"# c #6B2F36",
"$ c #732E36",
"% c #6C3037",
"& c #6E3239",
"* c #6E353C",
"= c #763139",
"- c #70343B",
"; c #72363D",
": c #73373E",
"> c #78333B",
", c #79343C",
"< c #7C373F",
"1 c #763A41",
"2 c #7F3A42",
"3 c #803B43",
"4 c #833E46",
"5 c #843F47",
"6 c #864149",
"7 c #88434B",
"8 c #89444C",
"9 c #8C474F",
"0 c #975348",
"q c #B35E4D",
"w c #B45F4E",
"e c #B5604F",
"r c #A56953",
"t c #B76251",
"y c #B86352",
"u c #B96453",
"i c #BA6554",
"p c #BC6756",
"a c #BD6857",
"s c #BE6958",
"d c #C06B5A",
"f c #C16C5B",
"g c #C5705F",
"h c #DD8F6A",
"j c #E89973",
/* pixels */
"hhhhjjjjjjjjhhhhr00rjjjjjd-@2556",
"hhhhjjjjjjjhhhhr0XX0rjjjjp-&6742",
"hhhhjjjjjjjhhhh0XXXX0jjjjp-;4268",
"hhhjjjjjjjjhhhh0XXXX0jjjjp+%,469",
"hhhjjjjjjjjhhhhr0XX0rjjjp&&@7422",
"hhhjjjjjjjjhhhhhr00rjjjy&--24438",
"hhhjjjjjjjjhhhhhhhhjjjji;&4,5355",
"hhhjjjjjjjjhhhhhhhhjjjt;&@42,,44",
"hhhjjjjjjjjhhhhhhhhjji@*&242<<<4",
"hhhjjjjjjjjhhhhhhhayi%&@34445223",
"hhhjjjjjjjjhhhhhhs-+@&&,22443534",
"hhhjjjjjjjjhhhhhhi%%&@,2332,2442",
"hhhhjjjjjjjhhhhhhy  X,==57,,,34<",
"hhhhjjjjjjjhhhhhhs.XO264432453,$",
"hhhhjjjjjjjjhhhhhe..*44<dey45642",
"hhhhhjjjjjjjhhhhs-&*224ujjjs4235",
"hhhhhjjjjjjjhhhhd-@34<5djjjp,<64",
"hhhhhhjjjjjjjhhha&%6452yjjju>23<",
"hhhhhhjjjjjjjhhs-&&75pwjjjji2534",
"hhhhhhjjjjjjjsf@+-56djjjjjjt3566",
"hhhhhhjjipsui;;&;7<2tjjjjjp67466",
"hhhhhhjw@%&@-1X@44=<5pdadp5235<3",
"hhhusta&&%@:@&<3553387527<<54<54",
"hgu-@+;;@4684422436424634<4<3<44",
"a-;-@@;&5374>2<<4ppu464263245436",
"&@%-<,433<3>36<<yjjjd543464<<62<",
";;622<4,=3332633<pjjd54422>2=435",
"9622,3<2445535323,eq342<59543577",
"5<<<,5533,54,32<<<5542<332<66467",
"233545$<<45<34434352546533435474",
"=<2<<3254<32<345332>32<<<3453552",
"247742<<2<<3<2553<3<555443224544"
};
