/* XPM */
static char *tile_wall_midleft1707663238[] = {
/* columns rows colors chars-per-pixel */
"32 32 48 1 ",
"  c #5A282E",
". c #5F2C32",
"X c #62262D",
"o c #652930",
"O c #672B32",
"+ c #682C33",
"@ c #692D34",
"# c #6A2E35",
"$ c #732E36",
"% c #6C3037",
"& c #6D3138",
"* c #6E3239",
"= c #6F333A",
"- c #77323A",
"; c #70343B",
": c #72363D",
"> c #78333B",
", c #79343C",
"< c #7C373F",
"1 c #74383F",
"2 c #7D3840",
"3 c #7F3A42",
"4 c #803B43",
"5 c #833E46",
"6 c #843F47",
"7 c #8F4B41",
"8 c #854048",
"9 c #864149",
"0 c #87424A",
"q c #88434B",
"w c #89444C",
"e c #8B464E",
"r c #8C474F",
"t c #924E44",
"y c #8D4850",
"u c #8E4951",
"i c #B5604F",
"p c #B66150",
"a c #B86352",
"s c #B96453",
"d c #BA6554",
"f c #BB6655",
"g c #BC6756",
"h c #BD6857",
"j c #BE6958",
"k c #BF6A59",
"l c #DD8F6A",
"z c #E89973",
/* pixels */
"966335945<54r9593<3949356*:;szzz",
"35q9554399<3,,33<95,45595;*gzzzz",
"w93595555536555w944<-3wq*::azzzz",
"r95,3<53545349355<553499:%hzzzzz",
"3459355459q6<43555w5<,94*Xdzzzzz",
"w455<655<3559535635935<3:Oazzzzz",
"9535<5554,<555w4q5,49993;:jzzzzz",
"453,33359<34346<43<,5955+*izzzzz",
"53<<34345343543693639659@*hzzzzz",
"433655543343353,<993333<:@dzzzzz",
"43645533,5433555ww<36399*3jzzzzz",
"3553<3333,344339u9339q99:*+dzzzz",
"354<<,99--,>43<3963-<9639+%*lzzz",
"$>355335593,,59449953q33,-*@jzzz",
"35664<<q,55953<,3339399q3,;*kzzz",
"643565,6363365553<<93<6333*;pzzz",
"59<>499369,54,5993,353339:*@pzzz",
"<33-3,933465953536353r$>4**pzzzz",
"535333655,39q5699w5663333O@izzzz",
"9995<5536956999,39639>369@@szzzz",
"99599533<<<33<99369436539;*dzzzz",
"339339695959>-55,3q63333@*;jzzzz",
"55,66<39399w35994<339<33  tlzzzz",
"5534>533395359353369w955 Otlzzzz",
"93965339,6953335<<3-5q59 .7lzzzz",
"<39><5955999633<<<93-3q5;*plzzzz",
"955-3,3<66999<5353933543*:slzzzz",
"999359w9,333,<,3336399w9;O%pzzzz",
"w9699,4433<5553<<33>59994*:kzzzz",
"59593533995939353993>935q:;jzzzz",
"39639533,4<3-333953335999@@*kzzz",
"55933339559633<3653>4,3,3339w953"
};
