/* XPM */
static char *tile_wall_center1707320113[] = {
/* columns rows colors chars-per-pixel */
"32 32 47 1 ",
"  c #59262C",
". c #5A282E",
"X c #5C292F",
"o c #5D2A30",
"O c #5F2C32",
"+ c #62262D",
"@ c #662A31",
"# c #602D33",
"$ c #672E35",
"% c #682C33",
"& c #6A3037",
"* c #6C3037",
"= c #6B3239",
"- c #6D3138",
"; c #6D343B",
": c #77323A",
"> c #70343B",
", c #71353C",
"< c #7B363E",
"1 c #7C373F",
"2 c #7D3840",
"3 c #7F3A42",
"4 c #793D44",
"5 c #8E4A3F",
"6 c #803B43",
"7 c #813C44",
"8 c #823D45",
"9 c #843F47",
"0 c #89444C",
"q c #914D43",
"w c #934F45",
"e c #955147",
"r c #975348",
"t c #B66150",
"y c #B86352",
"u c #B96453",
"i c #BA6554",
"p c #BC6756",
"a c #B27259",
"s c #C06B5A",
"d c #C37E5D",
"f c #BC846A",
"g c #CF8663",
"h c #CD8664",
"j c #DD8F6A",
"k c #E89973",
"l c #EFA987",
/* pixels */
"80082222228129910911811<<1280083",
"1222628818128801966117100131222:",
"&=;oO+%.#O228021796$%##.@+#.O&=1",
".@ @O>*o@#-%$$X%$6*%*#@X$>@@ @ 0",
"OXX@qtyww#>*>-X@X$,-seqettqw.O#4",
",swqakkkkpiuspo@@>,ikkkkkkkjip,,",
"ijjkkkkkkkkjjj5r5tpkkkkkkkkjjjip",
"jjjkkkkkkkkjjjjjjjjkkkkkkkkjjjjj",
"jjjkkkkkkkkjjjjjjjjkkkkkkkkjjjjj",
"jjjkkkkkkkkjjjjjjjjkkkkkkkkjjjjj",
"jjjkkkkkkkkjjjjjjjjkkkkkkkkjjjjj",
"jjjkkkkkkkkjjjjjjjjkkkkkkkkjjjjj",
"jjjjkkkkkkkjjjjjjjjjkkkkkkkjjjjj",
"jjjjkkkkkkkjghdjjjjjkkkkkkkjjjjj",
"jjjjkkkkkkkgllghdjjjkkkkkkkkjjjj",
"jjjjjkkkkkkkfgllldjjjkkkkkkkjjjj",
"jjjjjkkkkkkkjjfgdjjjjkkkkkkkjjjj",
"jjjjjjkkkkkkkjjjjjjjjjkkkkkkkjjj",
"jjjjjjkkkkkkkjjjjjjjjjkkkkkkkjjj",
"jjjjjjkkkkkkkjjjjjjjjjkkkkkkkjjj",
"jjjjjjkkkkkkkkjjjjjjjjkkkkkkkkjj",
"jjjjjjkkkkkkkkjjjjjjjjkkkkkkkkjj",
"jjjjjjkkkkkkkkjjjjjjjjkkkkkkkkjj",
"jjjjjjkkkkkkkkjjjjjjjjkkkkkkkkjj",
"jjjjjjkkkkkkkkjjjjjjjjkkkkkkkkjj",
"jjjjjjkkkkkkkkjjjjjjjjkkkkkkkkjj",
"jjjjjjkkkkkkkkjjjjjjjjkkkkkkkkjj",
"jjjjjjkkkkkkkkjjjjjjjjkkkkkkkkjj",
"jjjjjjkkkkkkkkjjjjjjjjkkkkkkkkjj",
"jjjjjjkkkkkkkjjjjjjjjjkkkkkkkjjj",
"jjjjjjkkkkkkkjjjjjjjjjkkkkkkkjjj",
"jjjjjkkkkkkkkjjjjjjjjkkkkkkkkjjj"
};
