/* XPM */
static char *tile_wall_bottomleft1707320113[] = {
/* columns rows colors chars-per-pixel */
"32 32 49 1 ",
"  c #5C292F",
". c #5E2B31",
"X c #5F2C32",
"o c #612B31",
"O c #662A31",
"+ c #642B32",
"@ c #672E34",
"# c #682C33",
"$ c #6A2E35",
"% c #6B2F36",
"& c #732E36",
"* c #6C3037",
"= c #6D3138",
"- c #6F333A",
"; c #6E353C",
": c #753038",
"> c #77323A",
", c #70343B",
"< c #71353C",
"1 c #73373E",
"2 c #78333B",
"3 c #79343C",
"4 c #7C373F",
"5 c #763A41",
"6 c #7D3840",
"7 c #7F3A42",
"8 c #803B43",
"9 c #813C44",
"0 c #833E46",
"q c #843F47",
"w c #854048",
"e c #864149",
"r c #87424A",
"t c #88434B",
"y c #89444C",
"u c #8C474F",
"i c #B5604F",
"p c #B76251",
"a c #B86352",
"s c #B96453",
"d c #BA6554",
"f c #BC6756",
"g c #BD6857",
"h c #BE6958",
"j c #C06B5A",
"k c #C16C5B",
"l c #C5705F",
"z c #DD8F6A",
"x c #E89973",
/* pixels */
"eqq7$,jxxxxxzzzzzzzzxxxxxxxxzzzz",
"70te-,fxxxxzzzzzzzzzxxxxxxxzzzzz",
"ye70<,fxxxxzzzzzzzzzxxxxkkxzzzzz",
"ue03*#fxxxxzzzzzzzzxxxxk82kzzzzz",
"780e*--dxxxzzzzzzzzxxxxk88kzzzzz",
"y8004,--axxzzzzzzzzxxxxxjkxzzzzz",
"e07040-,dxxzzzzzzzzxxxxxxxxzzzzz",
"807378$,,pxzzzzzzzzxxxxxxxxzzzzz",
"0744787--*dzzzzzzzzxxxxxxxxzzzzz",
"877q0008#$-dafzzzzzxxxxxxxxzzzzz",
"87q800773-*$+,gzzzzxxxxxxxxzzzzz",
"7007477773$-,*fzzzzxxxxxxxxzzzzz",
"700ii2ee>>3+  azzzzzxxxxxxxzzzzz",
"&2dxxp700e7@+.gzzzzzxxxxxxxzzzzz",
"70hxxxpe300;. azzzzzxxxxxxxxzzzz",
"q87fxxi07077,,,fzzzzzxxxxxxxzzzz",
"qw43fxxaqq499$;jzzzzzxxxxxxxzzzz",
"4872sxxs87qqw**gzzzzzzxxxxxxxzzz",
"08q49sgqq38wt,-,jzzzzzxxxxxxxzzz",
"twqq48q7qq0wwq,#,jfzzzxxxxxxxzzz",
"wwqtt988744482t,=,1dsjfaxxxxxxzz",
"84q87qqqqwqw429q#O5,#,$$ixxxxxzz",
"qq49qaij8qtt88qq84,$1$,,,fajsxzz",
"0q49ixxxstw4qw8q848qtqq#,,#$,fkz",
"w8qqgxxj4qqq889q7#ooo,8q,,$$,,,f",
"44w44gjqq9qww444@oOO++#q8q24,,#,",
"w90>8384qqwtt4q8X+OOOOo<2q48qe,<",
"ttq80quw84842428+OOOOOo8847288wu",
"twqtq488884qqq84 #+OOO+88qq32280",
"qt9q9988qqqq4q88*oOO+o*74:q9qq77",
"8qw9wq8448482888q*+ +*4qq4844422",
"q9w8948qqqwq4848wq848474474qttq8"
};
