/* XPM */
static char *tile_wall_mright1707663238[] = {
/* columns rows colors chars-per-pixel */
"32 32 54 1 ",
"  c #5C2A30",
". c #5F2C32",
"X c #612B31",
"o c #662A31",
"O c #652C32",
"+ c #612E34",
"@ c #672E35",
"# c #682C33",
"$ c #6B2F36",
"% c #732E36",
"& c #6B3239",
"* c #6E3239",
"= c #6F333A",
"- c #753038",
"; c #77323A",
": c #70343B",
"> c #73373E",
", c #78333B",
"< c #79343C",
"1 c #7A353D",
"2 c #7C373F",
"3 c #753940",
"4 c #7D3840",
"5 c #7F3A42",
"6 c #783C43",
"7 c #7A3E45",
"8 c #803B43",
"9 c #813C44",
"0 c #833E46",
"q c #843F47",
"w c #864149",
"e c #88434B",
"r c #89444C",
"t c #8C474F",
"y c #914D43",
"u c #955147",
"i c #8D4850",
"p c #914C54",
"a c #B45F4E",
"s c #B5604F",
"d c #B76251",
"f c #B86352",
"g c #B96453",
"h c #BC6756",
"j c #BD6857",
"k c #BE6958",
"l c #C16C5B",
"z c #C37E5D",
"x c #C98566",
"c c #CD8664",
"v c #D78B67",
"b c #DD8F6A",
"n c #E89973",
"m c #EFA987",
/* pixels */
"wqq550w80505rw0w52508q5505w5,5;;",
"50ew0085qw<0<<555w8580;5p;5q0852",
"rw50w0000050q00rw852,5w50w0055e0",
"tw0<5205q80500500200550552255555",
"580w50080wwq205000r02,0wrq520e20",
"r8002q00250qw050050w502500005005",
"w05020005,2050e5e0<8wq0055w005w5",
"805<5550w5555005555,0wq00,<<02e5",
"052280580885005qq50500rwq0058050",
"855q80052885502<5qw500rriq0w0q50",
"85q80055,0882000rr<008twr0q00802",
"500525585<58055wiw550rq00505255,",
"52w8w525w0wi00500w055qqwe,5w5wq0",
"5,08@XX#55<<52w05800wr05w508<w00",
"5w5OXooX>8050500000005wr0005250w",
"5q5XOOooX5q050805020<0wt5050w;;0",
"e05XooOOX5050ww08055e055<w000825",
"228#XoO+&50w00550005800r0<52555<",
"08qe$XX*5e0505,5qhh205000w550<52",
"q0r85<555085852wknnd5,000w00q,55",
">rqq<q8q0500555hnnnh<5585q00q02,",
"33** +*5,5055055hkk00558,2500500",
"37*:.O+60q02550,55008080w0208<50",
"jkljy.+7>55505,5555<50050055q8rw",
"nnnbbgl>##50;,;,qe,555020w550000",
"nnnbbbbh#>*<25w0052005,%50<20050",
"nnnnbbbba#*qw00,w5580w05,0550w0w",
"vczzbbbbk**w55050,800550525,55qt",
"mmmmzbbbk>##05q0dlw0<5w050q<<<50",
"mmmmzbbbbh*>005hnna5;2555;q0q055",
"mmxzbbbbbh*308<knnf55050025<25<;",
"czzbnbbbbu.+q0qqfnnd00ww5250er05"
};
