/* XPM */
static char *tile_wall_bottomleft1707663236[] = {
/* columns rows colors chars-per-pixel */
"32 32 43 1 ",
"  c #5C2A30",
". c #5E2B31",
"X c #612B31",
"o c #662A31",
"O c #672E34",
"+ c #682C33",
"@ c #692D34",
"# c #6A2E35",
"$ c #732E36",
"% c #6C3037",
"& c #6B3239",
"* c #6C333A",
"= c #753038",
"- c #70343B",
"; c #71353C",
": c #73373E",
"> c #78333B",
", c #79343C",
"< c #7C373F",
"1 c #763A41",
"2 c #7D3840",
"3 c #7F3A42",
"4 c #803B43",
"5 c #813C44",
"6 c #833E46",
"7 c #843F47",
"8 c #854048",
"9 c #864149",
"0 c #88434B",
"q c #89444C",
"w c #8C474F",
"e c #B5604F",
"r c #B76251",
"t c #B86352",
"y c #B96453",
"u c #BB6655",
"i c #BC6756",
"p c #BD6857",
"a c #BE6958",
"s c #C06B5A",
"d c #C26D5C",
"f c #DD8F6A",
"g c #E89973",
/* pixels */
"97733694$,uggr46693Oo afffffgggg",
"3609664336agggr9,66*X tfffffgggg",
"q9369666633pgge63643-%-ifffffggg",
"w96,3<63693,iggt67<64#-sfffffggg",
"34693664<33=uggy33669%-iffffffgg",
"q466<76663633yp67,660**-afffffgg",
"9636<66699963363766997;+*spfffgg",
"463,33369969966333>34,0;#-:itait",
"63<<34344363376969693=66##1-#-##",
"4337666466<66red38q933694<-#:##*",
"4374663366<6egggu96369664447w79#",
"3663<3339367aggs36963336<+XXX-47",
"364<<,99339,3ua666899<3<#XoooX#6",
"$>366336736=4,333699936<XoooooX$",
"36774<<0999666q9,333,,>3XoooooX7",
"743676,7q079734463366633XoooooX4",
"693,69936966463669863966&XoooX*<",
",6<=3,933666963,3,<6=3336&XXX&36",
"636333696693336666683333863>63<<",
"996633636669969,39666,,$69666,33",
"996q96633<<<3,q966933663398466<,",
"6,9349666969<=66,<093633,,366<68",
"66,88,<9360q33666,63936396384=,9",
"6633,636396369663366q66366,396w9",
"9368633936963666<<3>696669336866",
"<393,89666669,33,<93=6,636,,6636",
"966=3>336699933,6693663==6,66989",
"996368084,63,3,633838636434,<39q",
"09999<363336663<>33,68>6369,<,36",
"69666333696639336693,86<<=838433",
"3894963<<3,6=466663<33368,3<3<,>",
"66933338669633,3863<6,3,34360q63"
};
