/* XPM */
static char *tile_wall_midleft1707320112[] = {
/* columns rows colors chars-per-pixel */
"32 32 54 1 ",
"  c #59262C",
". c #5A282E",
"X c #5D2A30",
"o c #5F2C32",
"O c #62262D",
"+ c #652930",
"@ c #682C33",
"# c #6B2F36",
"$ c #732E36",
"% c #6C3037",
"& c #6D3138",
"* c #6E3239",
"= c #6F333A",
"- c #77323A",
"; c #70343B",
": c #73373E",
"> c #7A353D",
", c #74383F",
"< c #7D3840",
"1 c #7F3A42",
"2 c #803B43",
"3 c #833E46",
"4 c #843F47",
"5 c #8F4B41",
"6 c #854048",
"7 c #864149",
"8 c #87424A",
"9 c #88434B",
"0 c #8B464E",
"q c #8C474F",
"w c #924E44",
"e c #B35E4D",
"r c #B5604F",
"t c #B66150",
"y c #B76251",
"u c #B86352",
"i c #B96453",
"p c #BA6554",
"a c #BC6756",
"s c #BD6857",
"d c #BE6958",
"f c #BF6A59",
"g c #C16C5B",
"h c #C37E5D",
"j c #BC846A",
"k c #CF8663",
"l c #C98566",
"z c #CD8664",
"x c #D78B67",
"c c #DD8E68",
"v c #DD8F6A",
"b c #DE906A",
"n c #E89973",
"m c #EFA987",
/* pixels */
"3382##pnnnnnvvvvvvvvnnnnnnnnvvvv",
"133=:=innnnvvvvvvvvvnnnnnnnvvvvv",
"383;=annnnnvvvvfgvvvnnnnnnnvvvvv",
"98=::unnnnnvvvg11gvnnnnnnnnvvvvv",
"88:#pnnnnnnvvvd11dvnnnnnnnnvvvvv",
"42=Opnnnnnnvvvbgfvvnnnnnnnnvvvvv",
"11:+unnnnnnvvvvvbvvnnnnnnnnvvvvv",
"81=:dnnnnnnvvvvvvvvnnnnnnnnvvvvv",
"33+=rnnnnnncvvvvvvvnnnnnnnnvvvvv",
"33@=snnnnnnbvvvvvvvnnnnnnnnvvvvv",
"3>=%pnnnnnncvvvvvvvnnnnnnnnvvvvv",
"88=,gnnnnnnbvvvvvvvnnnnnnnnvvvvv",
"88:=@pnnnnnbcbvvvvvvnnnnnnnvvvvv",
"213#=#cnnnncvvvvvvvvnnnnnnnvvvvv",
">21-#+gnnnnnvvvvvvvvnnnnnnnnvvvv",
"38>>=;gnnnnnvvvvvvvvvnnnnnnnvvvv",
"4112==rnnnnnvvvvvvvvvnnnnnnnvvvv",
"234:%#tnnnnnnvvvvvvvvvnnnnnnnvvv",
"$>2;=tnnnnnnnvvvvvvvvvnnnnnnnvvv",
"<32+#ennnnnnnvvvvvhhzxbnnnnnnvvv",
"133#@pnnnnnnnnvvvhmmmmmxnnnnnnvv",
"224%=snnnnnnnnvvvhmmmmmmxnnnnnvv",
"11#=:snnnnnnnnvvvvhlmmmjbnnnnnvv",
"4<X wvnnnnnnnnvhzzvhhzxbnnnnnnvv",
"14 +5cnnnnnnnvhmmmzvvvnnnnnnnnvv",
"44oo5cnnnnnnnnvhzjvvvvnnzzhbnnvv",
"01:#tvnnnnnnnnvvvvvvvvnzmmmhvnvv",
"11=<pbnnnnnnnnvvvvvvvvnnjzhcnnvv",
"04=o%unnnnnnnnvvvvvvvvnnnnnnnnvv",
"981%=dnnnnnnnvvvvvvvvvnnnnnnnvvv",
"149<=fnnnnnnnvvvvvvvvvnnnnnnnvvv",
"844%%=dnnnnnnvvvvvvvvnnnnnnnnvvv"
};
