/* XPM */
static char *wback1707681859[] = {
/* columns rows colors chars-per-pixel */
"32 32 7 1 ",
"  c #4C244B",
". c #793A76",
"X c #DD8F6A",
"o c #E89973",
"O c #AA54B0",
"+ c #CB7BC1",
"@ c #DB98C9",
/* pixels */
"XXXXooooooooXXXXXXXXooooooooXXXX",
"XXXXoooooooXXXXXXXXXoooooooXXXXX",
"XXXXoooooooXX       oooooooXXXXX",
"XXXoooooooo  ..OOO..  oooooXXXXX",
"XXXooooooo .OO+++++OO. ooooXXXXX",
"XXXoooooo .O++@@@@@++O. oooXXXXX",
"XXXoooooo O++@@@@@@@++O oooXXXXX",
"XXXooooo .O+@@@@@@@@@+O. ooXXXXX",
"XXXo  oo O++@@@@@@@@@++O oo  XXX",
"XXX O+.  O++@@@@@@@@@++O  .+O XX",
"XXXo O+O O++@@@@@@@@@++O O+O XXX",
"XXXoo ++ O+++@@@@@@@+++O ++ XXXX",
"XXXXoo . OO+++@@@@@+++OO . XXXXX",
"XXXXooo  .O+++++++++++O.  oXXXXX",
"XXXXoooo .OO+++++++++OO. oooXXXX",
"XXXXXoooo .OOO+++++OOO. ooooXXXX",
"XXXXXoooo  .OOOOOOOOO.  ooooXXXX",
"XXXXXXoo .. ..OOOOO.. .. ooooXXX",
"XXXXXXo .@++@+++++++@++@O oooXXX",
"XXXXXXo ++O@@@@@@@@@@@O@@O ooXXX",
"XXXXXX .+O +@@++@++@@+ O@@O ooXX",
"XXXXXX .OO OO+@@@@@+OO .+@@O oXX",
"XXXXXXo .. O+@@@@@@@+O  O@@+ oXX",
"XXXXXXoo   O+@@@+@@@+O o ++O oXX",
"XXXXXXoooo .O@@+O+@@+. oo   ooXX",
"XXXXXXoooo .+O......O. oooooooXX",
"XXXXXXooooo.+@+   .OO.ooooooooXX",
"XXXXXXooooo O++ X ..O ooooooooXX",
"XXXXXXooooo +@@.XX   XooooooooXX",
"XXXXXXooooo @@@.XXXXXXoooooooXXX",
"XXXXXXoooooooXXXXXXXXXoooooooXXX",
"XXXXXooooooooXXXXXXXXooooooooXXX"
};
