/* XPM */
static char *wfront21707681860[] = {
/* columns rows colors chars-per-pixel */
"32 32 17 1 ",
"  c #2E1E22",
". c #640A0E",
"X c #4C244B",
"o c #6A3465",
"O c #793A76",
"+ c #971E2A",
"@ c #913A76",
"# c #CB3044",
"$ c #FF4460",
"% c #DD8F6A",
"& c #E89973",
"* c #914994",
"= c #B06585",
"- c #AA54B0",
"; c #C37CA4",
": c #CB7BC1",
"> c #DB98C9",
/* pixels */
"%%%%&&&&&&&&%%%%%%%%&&&&&&&&%%%%",
"%%%%&&&&&&&%%%%%%%%%&&&&&&&%%%%%",
"%%%%&&&&&&&%%XXXXXXX&&&&&&&%%%%%",
"%%%&&&&&&&&XXOO---OOXX&&&&&%%%%%",
"%%%&&&&&&&XO--:::::--OX&&&&%%%%%",
"%%%&&&&&&XO-:::::::::-OX&&&%%%%%",
"%%%&&&&&&X-:::>>>>>:::-X&&&%%%%%",
"%%%&&&&&XO-::>>>>>>>::-OX&&%%%%%",
"%%%&XX&&X-::>>>>>>>>>::-X&&XX%%%",
"%%%X-:OXX-:>>>>>>>>>>>:-XXO:-X%%",
"%%%&X-:-X-:>>>>>>>>>>>:-X-:-X%%%",
"%%%&&XO-X-:>>>>>>>>>>>:-X-OX%%%%",
"%%%%&&XOX@...=>>>>>=...@XOX%%%%%",
"%%%%&&&XX.  #+=>>>=+#  .XX&%%%%%",
"%%%%&&&&Xo  $#.;>;.#$  oX&&&%%%%",
"%%%%%&&&&X*    >>>    *X&&&&%%%%",
"%%%%%&&&&XX-:>>>>>>>:-XX&&&&%%%%",
"%%%%%%&&XOOXO-:::::-OXOOX&&&&%%%",
"%%%%%%&XO>:-XXXXXXXXX-:>:X&&&%%%",
"%%%%%%&X>:-:>>>:::>>>:-:>-X&&%%%",
"%%%%%%XO:-X:>>>>:>>>>:XO--OX&&%%",
"%%%%%%X:>:X-:>>--->>:-XXXOOX&&%%",
"%%%%%%X>>>XO---:>:---OX&&XX&&&%%",
"%%%%%%X:>>X-:::>>>:::-X&&&&&&&%%",
"%%%%%%XO:-XO>:-:::-:>OX&&&&&&&%%",
"%%%%%%&XXX&O:>OOOOO>>OX&&&&&&&%%",
"%%%%%%&&&&&O-:OXXX->>O&&&&&&&&%%",
"%%%%%%&&&&&XO-OX%X-:-O&&&&&&&&%%",
"%%%%%%&&&&&&XXX%%O>>:X&&&&&&&&%%",
"%%%%%%&&&&&&&%%%%O>>>X&&&&&&&%%%",
"%%%%%%&&&&&&&%%%%%%%%%&&&&&&&%%%",
"%%%%%&&&&&&&&%%%%%%%%&&&&&&&&%%%"
};
