/* XPM */
static char *wleft21707681860[] = {
/* columns rows colors chars-per-pixel */
"32 32 15 1 ",
"  c #2E1E22",
". c #640A0E",
"X c #4C244B",
"o c #793A76",
"O c #971E2A",
"+ c #CB3044",
"@ c #FF4460",
"# c #DD8F6A",
"$ c #E89973",
"% c #B06585",
"& c #AA54B0",
"* c #C37CA4",
"= c #CB7BC1",
"- c #B880A8",
"; c #DB98C9",
/* pixels */
"####$$$$$$$$########$$$$$$$$####",
"####$$$$$$$#########$$$$$$$#####",
"####$$$$$$$##XXXXXXX$$$$$$$#####",
"###$$$$$$$$XXoo&&&ooXX$$$$$#####",
"###$$$$$$$Xo&&=====&&oX$$$$#####",
"###$$$$$$Xo&=========&oX$$$#####",
"###$$$$$$X&==;;;;;;===&X$$$#####",
"###$$$$$Xo==;;;;;;;;==&oX$$#####",
"###$$$$$X&=;;;;;;;;;;==&X$$#####",
"###$$$$$X==;;;;;;;;;;==&X$$#####",
"###$$$$$X=;;;;;;;;;;=XX&X$$#####",
"###$$$$$X=;;;;;;;;;Xo;;XX$$#####",
"####$$$$X=;;%..%;;X=;&=XX$$#####",
"####$$$$X=;%O+ .*;=;o=XoX$$#####",
"####$$$$X&*.+@ -;;;o=X&oX$$$####",
"#####$$$Xo=   -;;;=&XooX$$$$####",
"#####$$$$X&=;;;;;=&&ooX$$$$$####",
"######$$$$Xo&&===&&ooX$$$$$$$###",
"######$$$$$XXXXXXXXXX#$$$$$$$###",
"######$$$$$X&=;;===&X#$$$$$$$###",
"######$$$$$X=;;;;=;;=X$$$$$$$$##",
"######$$$$$X&;;;=o;;;=X$$$$$$$##",
"######$$$$$Xoo&&oXX&=;=X$$$$$$##",
"######$$$$$Xo;;;&&oX=;;&X$$$$$##",
"######$$$$$Xo=;==&oX&;;&X$$$$$##",
"######$$$$$$X;;=&oXoX&&X$$$$$$##",
"######$$$$$X=;=&oXoooXX$$$$$$$##",
"######$$$$X;;==oX#XooX$$$$$$$$##",
"######$$$$X;;;&X##XXX#$$$$$$$$##",
"######$$$$$XXXX#######$$$$$$$###",
"######$$$$$$$#########$$$$$$$###",
"#####$$$$$$$$########$$$$$$$$###"
};
