/* XPM */
static char *c11707681948[] = {
/* columns rows colors chars-per-pixel */
"32 32 112 2 ",
"   c #36334F",
".  c #323A5D",
"X  c #3C3B5A",
"o  c #523E4C",
"O  c #4B3F52",
"+  c #403E5A",
"@  c #4F4255",
"#  c #5C4552",
"$  c #514658",
"%  c #5B485B",
"&  c #5F515F",
"*  c #654547",
"=  c #66484C",
"-  c #754F4A",
";  c #614A54",
":  c #6E4F55",
">  c #624C5D",
",  c #684E5A",
"<  c #62505D",
"1  c #6C555D",
"2  c #775453",
"3  c #785553",
"4  c #745358",
"5  c #7D5758",
"6  c #444867",
"7  c #454769",
"8  c #494768",
"9  c #42496E",
"0  c #4A4969",
"q  c #5F586C",
"w  c #434B71",
"e  c #494F77",
"r  c #4C537A",
"t  c #505074",
"y  c #50567E",
"u  c #53597E",
"i  c #6F5960",
"p  c #5E627E",
"a  c #66637B",
"s  c #726B7E",
"d  c #7C6C78",
"f  c #87584A",
"g  c #895A4C",
"h  c #815852",
"j  c #8B5E53",
"k  c #95624F",
"l  c #8D6156",
"z  c #9D6652",
"x  c #99675A",
"c  c #9F6A59",
"v  c #A06751",
"b  c #A56B55",
"n  c #A96F57",
"m  c #AB725C",
"M  c #B3765B",
"N  c #B6785D",
"B  c #BC795B",
"V  c #8C6A69",
"C  c #976C64",
"Z  c #926C68",
"A  c #83727C",
"S  c #947170",
"D  c #A47264",
"F  c #AC7867",
"G  c #A0756E",
"H  c #AC796B",
"J  c #B67860",
"K  c #BE7D60",
"L  c #C17C5E",
"P  c #C47F60",
"I  c #C68264",
"U  c #CB8463",
"Y  c #C58469",
"T  c #CB8669",
"R  c #CE8869",
"E  c #D58967",
"W  c #D58C6A",
"Q  c #DD8F6A",
"!  c #DD926E",
"~  c #E39671",
"^  c #E79873",
"/  c #E89973",
"(  c #545C84",
")  c #585F89",
"_  c #5D6384",
"`  c #5B638C",
"'  c #5F6791",
"]  c #62678A",
"[  c #696E8D",
"{  c #767187",
"}  c #7D7586",
"|  c #73778C",
" . c #606791",
".. c #646B95",
"X. c #696F94",
"o. c #676E98",
"O. c #686F99",
"+. c #6B7095",
"@. c #6B729B",
"#. c #757893",
"$. c #7C7E97",
"%. c #71779E",
"&. c #7A7E9C",
"*. c #767CA2",
"=. c #8B7780",
"-. c #7C82A3",
";. c #83849D",
":. c #8889A2",
">. c #8388AA",
",. c #8A8DAB",
"<. c #8E90AB",
"1. c #9498B4",
/* pixels */
"Q Q Q Q / / / / / / / / Q Q Q Q Q Q Q Q / / / / / / ^ / Q Q Q Q ",
"Q Q Q Q / / / / / / / Q Q Q Q Q Q Q Q Q / / / / / / ^ Q Q Q Q Q ",
"Q Q ! Q / / / / / / ^ Q Q Q Q Q Q Q Q Q / / / / / / / ! Q Q Q Q ",
"Q Q Q / / / / / / / ^ Q Q Q Q Q Q Q Q ^ / / / / / / / ! Q Q Q Q ",
"Q Q Q / / / / / / / / ! U I B K B B I ! / / / / / / / Q Q Q Q Q ",
"Q Q Q / / / / / / ~ ~ R N l 2 2 3 3 l T ! ~ ^ / / / / Q Q Q Q Q ",
"Q Q Q / / / / / ~ R M n S } $.| | | } G M N R ^ / / / Q Q Q Q Q ",
"Q Q Q / / / / ~ W D 1 & { <.1.1.1.1.:.s < 5 F W ^ / / Q ! Q Q Q ",
"Q Q Q / / / ~ R D =.$.[ +.-.>.-.-.>.-.X.[ -.=.m E ^ ^ Q Q Q Q Q ",
"Q Q Q / ^ ~ R H } -.,.%.o.@.@.@.@.@.o.@.-.,.-.A F E ~ Q Q Q Q Q ",
"Q Q Q / ^ W c d :.>.*.@.o.o.o.o.@.o.o.o.+.&.>.;.d n ! Q Q Q Q Q ",
"Q Q Q / ^ W g q -.-.o.o.o.@.o.o.@.o.o.o.o.o.-.-.i l W ! Q Q Q Q ",
"Q Q Q Q ! Y V p X.@.@.o.o.o.@.o.o.@.o.o.@.o.@.X.a x T E Q Q Q Q ",
"Q Q Q E B Z ;.-.@.o.o.o.o.@.o.o.o.o.@.o.o.o.o.%.-.;.C B Q Q Q Q ",
"Q Q Q E n i %.>.%.o.o.o.o.o.o.o.o.o.o.o.@.o.@.%.:.#.1 M E Q Q Q ",
"Q Q Q Q v $ ] @.@.o.o.@.o.@.o.@.@.o.@.o.o.o.X.@.@._ ; M Q Q Q Q ",
"Q Q Q E v @ ) O.O.O.O.O.O.O.O.O.o.O.O.O.O.O.O.O.X.( ; M Q Q Q Q ",
"Q Q Q E v O u  .O.O.O.O.O.O.O.O.o.O.O.O.O.O.O.O.' r # M ~ Q Q Q ",
"Q Q Q E b o 0 )  .@.O.O.O.O.O.O.O.O.O.O.O.O.X...( 6 = N ~ Q Q Q ",
"Q Q Q Q B j > r  .@.O.O.O.O.O.O.O.O.O.O.@.o.o.' t , c U ~ Q Q Q ",
"Q Q Q Q E L h 7 ` O.O.O.O.O.O.O.O.O.o.o.o.@.X.` $ l R ~ ^ / ! Q ",
"Q Q Q Q Q U g + ( ' ..O.O.O.O.O.O.O.o.o.o.o.` r @ k Q / ^ ^ Q Q ",
"Q Q Q Q Q R n : 8 ( ' '  .O.O.O.O.o.o.' ' ` y 0 2 M ! ^ / / Q Q ",
"Q Q Q Q Q W W m : 8 e r )  .O.O.o.o.' ` r e 0 2 J ! ^ / / / Q Q ",
"Q Q Q Q Q Q / Q m 4 X . w ) ) ) ) ) ( 9 . X 5 M W / / / / / Q ! ",
"Q Q Q Q Q Q / ^ W n - = % 7 w 9 w w 7 # * - M ! ^ / / / / / Q Q ",
"Q Q Q Q Q Q / / ^ W P B x #         # z M B Q ~ / / / / / ^ Q Q ",
"Q Q Q Q Q Q / / / ^ ^ ~ Y z f f f f z L E Q / / / / / / / ^ Q Q ",
"Q Q Q ! Q Q / / / / / / ~ W U U I I U Q Q Q / / / / / / / ^ Q Q ",
"Q Q Q Q Q Q / / / / / / / Q Q Q Q Q Q Q Q Q / / / / / / / ! Q Q ",
"Q Q Q Q Q Q / / / / / / / Q Q Q Q Q Q Q Q Q / / / / / / / ! Q Q ",
"Q Q Q Q Q / / / / / / / / Q Q Q Q Q Q Q Q / / / / / / / / Q Q Q "
};
