/* XPM */
static char *c21707681949[] = {
/* columns rows colors chars-per-pixel */
"32 32 114 2 ",
"   c #36334F",
".  c #353350",
"X  c #343A5C",
"o  c #3F3E59",
"O  c #443649",
"+  c #443C55",
"@  c #3C4266",
"#  c #3D456C",
"$  c #3F4871",
"%  c #46425F",
"&  c #544254",
"*  c #5A4B5D",
"=  c #64474A",
"-  c #65484C",
";  c #744F4B",
":  c #74504D",
">  c #7A524B",
",  c #614752",
"<  c #6F4E50",
"1  c #755453",
"2  c #795652",
"3  c #795558",
"4  c #434769",
"5  c #474968",
"6  c #4C4C6B",
"7  c #434B74",
"8  c #4B4E71",
"9  c #475079",
"0  c #4B537C",
"q  c #525474",
"w  c #575976",
"e  c #50567E",
"r  c #545A7E",
"t  c #655F6E",
"y  c #775E6C",
"u  c #685F72",
"i  c #6D6472",
"p  c #87594B",
"a  c #905E4F",
"s  c #825B56",
"d  c #885D54",
"f  c #94614F",
"g  c #8E6157",
"h  c #916256",
"j  c #996759",
"k  c #A26B55",
"l  c #A46E5C",
"z  c #AE7257",
"x  c #AC725B",
"c  c #B1735A",
"v  c #BC7B5E",
"b  c #846362",
"n  c #81686D",
"m  c #9A716A",
"M  c #876D73",
"N  c #86717A",
"B  c #9A7574",
"V  c #A47467",
"C  c #BE7E62",
"Z  c #B37B69",
"A  c #BB7F68",
"S  c #C27D5E",
"D  c #C17F62",
"F  c #C68363",
"G  c #CA8363",
"H  c #CB8769",
"J  c #CF8868",
"K  c #D48A67",
"L  c #D48B6A",
"P  c #DD8F6A",
"I  c #DD926E",
"U  c #E0946F",
"Y  c #E49671",
"T  c #E79872",
"R  c #E89973",
"E  c #545C85",
"W  c #585F87",
"Q  c #5C638B",
"!  c #6B6C85",
"~  c #666B8E",
"^  c #767485",
"/  c #7B7485",
"(  c #72768C",
")  c #606790",
"_  c #636A94",
"`  c #696F95",
"'  c #676E98",
"]  c #686F99",
"[  c #6F7597",
"{  c #6B719A",
"}  c #717592",
"|  c #70769D",
" . c #757A9E",
".. c #747AA0",
"X. c #787EA3",
"o. c #887682",
"O. c #867A89",
"+. c #837F94",
"@. c #7D83A5",
"#. c #85869F",
"$. c #8588A7",
"%. c #8B8BA3",
"&. c #8186A9",
"*. c #898EAF",
"=. c #8F92AB",
"-. c #9294AC",
";. c #8A8EB0",
":. c #8F93B3",
">. c #9297B3",
",. c #9599B5",
"<. c #9A9FBA",
"1. c #9DA1BC",
"2. c #A0A4BF",
"3. c #A4A8C4",
/* pixels */
"P P P P R R R R R R R R P P P P P P P P R R R R R R R R P P P P ",
"P P P P R R R R R R R P P U P P P P P P R R R R R R R P P P I P ",
"P P P P R R R R R R R P P P P P P P P P R R R R R R R I P P P P ",
"I P P R R R R R R R R P P P K P P P P R R R R R R R R I P P P P ",
"P U P R R R R R R R R I K F S S S S S I T R R R R R R P P P P U ",
"P P P R R R R R R R T L v g 1 2 1 > d D I R T T R R R P P P P P ",
"P P P R R R R R T T Y v m / ( ( ( ( / B D I T T R R R P P P P P ",
"P P P R R R R R T T P f i %.,.,.<.<.,./ h K T T R R R P P P P P ",
"P P P T R R R R R T L p q  .$.;.1.3.1.( s H T R R R R P P P P P ",
"P P P R R R R R T P A M ! ` { ..*.,.1.#.N Z L Y R R R P P P P P ",
"P P P R R R R R Y v b +.$.| ' {  .*.1.1.%.n c U R R R P P P U P ",
"P P P R R R R R Y z * } &.{ ' ' { @.1.3.=.t k I R R R P P P P P ",
"P P P P T T R U L V u ~ { { ] ] { @.,.2.>.^ m H U R R P P P P P ",
"P K P P T T T K j o.#. .] ] ] ] { | @.,.1.-.O.j G R R P P P P P ",
"P P P P T R R G 2 ! *.X.{ ] ] ] ] ' ..:.1.>.( 1 S T R R P P P P ",
"P P P P P R R G : w [ { ] ] ] ] ] ' ..;.>.@.r - S Y R R P P P P ",
"P P P P P R R F ; q _ ] ] ] ] ] ] ] ] | ` W 4 - C T R R P P P P ",
"P P P P P P R F ; 6 ) _ ] ] ] ] ] ] _ Q E 0 @ = v Y R R R P P P ",
"L K P P P P R G > + e ) ] ] ] ] ' ' _ E 0 E 8 < C Y T R R P P P ",
"K P P P P P T P x 3 6 Q ] ] ] ] ' _ Q 0 9 w y l J T T T R P P P ",
"P P P P P P R T I l & E _ ] ] ] ' Q E $ # o j L T R R R R R P P ",
"K P P P P P R R Y x + 6 Q _ ] ] ] Q 9 $ @ O k I T R R R R R P P ",
"K P P P P P T T T D a * 0 ) ] ' _ E 7 # % 2 v I R R R R R R U P ",
"P P P P P P R T T U D s 5 ) ' ) E 9 $ X - c P Y R R R R R T P P ",
"P P P P P P R R R R P d + E W E 9 7 $ . p S R R R R R R R R P P ",
"P P P P P P R R R R P k , 4 7 4 # # @ , a S T R R R R R R R P P ",
"P P P P P P R R R R U K l , .     . + f v K R R R R R R R R P P ",
"P P P P U P R R R T T Y J k p p p p a S K P R R R R R R R R P P ",
"P P P P P P R R R R R R Y P G G D G K K P P R R R R R R R R P P ",
"P P P P P P R R R R R R R P P P P P P P P P R R R R R R R P P P ",
"P P P P P P R R R R R R R P P P P P P P P P R R R R R R R U P P ",
"P P P P P R R R R R R R R P P P P P P P P R R R R R R R R P P P "
};
