/* XPM */
static char *c31707681949[] = {
/* columns rows colors chars-per-pixel */
"32 32 106 2 ",
"   c #373450",
".  c #423D56",
"X  c #513F50",
"o  c #3F4367",
"O  c #3C446C",
"+  c #46405A",
"@  c #52475C",
"#  c #53485D",
"$  c #5A485C",
"%  c #664646",
"&  c #714C48",
"*  c #644951",
"=  c #6B4C51",
"-  c #624F5E",
";  c #6F5151",
":  c #715052",
">  c #785552",
",  c #474361",
"<  c #4A4461",
"1  c #414668",
"2  c #494C6D",
"3  c #554F66",
"4  c #57516B",
"5  c #434C75",
"6  c #4A4F75",
"7  c #464E78",
"8  c #485076",
"9  c #4B537D",
"0  c #525779",
"q  c #6A5A6F",
"w  c #765E6C",
"e  c #625976",
"r  c #665E79",
"t  c #77646E",
"y  c #666174",
"u  c #87584A",
"i  c #8D5E4E",
"p  c #875D55",
"a  c #845D5D",
"s  c #8C5F59",
"d  c #95614E",
"f  c #99634F",
"g  c #916052",
"h  c #9E6853",
"j  c #95655A",
"k  c #996759",
"l  c #9B6859",
"z  c #A46B55",
"x  c #A36E5D",
"c  c #AA6F59",
"v  c #AE735C",
"b  c #B4765C",
"n  c #B97759",
"m  c #BC7B5E",
"M  c #865F60",
"N  c #996A61",
"B  c #8B7075",
"V  c #83737F",
"C  c #947170",
"Z  c #A37164",
"A  c #B47B67",
"S  c #C17D5E",
"D  c #C27F61",
"F  c #C58264",
"G  c #CB8463",
"H  c #CE8867",
"J  c #D18765",
"K  c #D48966",
"L  c #D38B6A",
"P  c #DD8F6A",
"I  c #DC916D",
"U  c #E1946F",
"Y  c #E39671",
"T  c #E79872",
"R  c #E89973",
"E  c #4F5781",
"W  c #535B84",
"Q  c #5B5E83",
"!  c #5C638A",
"~  c #636580",
"^  c #686B85",
"/  c #60658A",
"(  c #6D708E",
")  c #797587",
"_  c #73758C",
"`  c #7D788C",
"'  c #656B95",
"]  c #686E92",
"[  c #676E98",
"{  c #686F99",
"}  c #6A719A",
"|  c #71779D",
" . c #72799F",
".. c #7379A0",
"X. c #7D82A5",
"o. c #89889D",
"O. c #8689A7",
"+. c #8C8DA4",
"@. c #8589AA",
"#. c #8B8FAD",
"$. c #8F94B3",
"%. c #9196B4",
"&. c #9599B5",
"*. c #9A9EBB",
"=. c #9DA1BD",
"-. c #A4A8C3",
/* pixels */
"P P P P R R R R R R R R P P P P P P P P R R R R R R R R P P P P ",
"P P P P R R R R R R R P P P P P P P P P R R R R R R R P P P P P ",
"P P P P R R R R R R R P P P P P P P P P R R R R R R R P P P P P ",
"P P P R R R R R R R R P P P P P P P P R R R R R R R R I P P P P ",
"P I P R R R R R R R R P I P J F m G K R R R R R R R R P P P P P ",
"P P P R R R R R R R R P P K b p > k G Y R R R R R R R P P P P P ",
"P P P R R R R R R R R I J n C ) _ V Z H Y R R R R R R P P U P P ",
"P P P R R R R R R R T K b a ` &.*.+.t x K Y R R R R R P P P P P ",
"P P P R R R R R R R U n a r o.=.-.%.( w x H T R R R R P P P P P ",
"P P P R R R R R R R P f @ ! ..%.=.*.@.~ ; F T R R R R P P P P P ",
"P P P R R R R R R R I d @ ! } X.&.=.&._ ; S T T R R R P P P P P ",
"P P P R R R R R R T I f # ! [  .%.=.#.^ ; D T T R R R P P P P P ",
"P P P P R R R R T Y G s 4 ! [ ..%.*.@.( t A P Y R R R P P P P P ",
"P P P P R R R R Y G k q / ' { ..$.=.&.$.o.B v I R R R P P P P P ",
"P P P P R R R R Y S = 0 ' } [ } X.#.$.$.O.y i P R R R R P P P P ",
"P P P P P R R R Y A = 0 ' } [ [ ! / } | ] 3 i L R R R R P P P P ",
"P P P P P R R R Y m = 0 [ { { ' W 7 E W 9 + i L R R R R I P P P ",
"P P P P P P R R Y A = 0 ' { { ' W 7 9 E 8 . i L R R R R R U P P ",
"P P P P P P R R Y S : 0 ' { { ' W E ! ! Q # g L R R R R R P P P ",
"P P P P P P R R Y J c w Q ' { ' W 9 W W e M m I R R R R R P P P ",
"P P P P P I R R R Y L l 3 Q { ' W 5 7 1 * v I R R R R R R R P P ",
"P P P P P P R R R R P z 3 Q { ' W 9 W 2 % n T R R R R R R R P P ",
"P P P P P P R R R T I h < / [ Q E 9 W 6 % n T R R R R R R R P P ",
"I P P P P P R R R T I z - Q ! E 5 5 7 < & n T R R R R R R R P P ",
"P P P P P P R R R R U D N q 6 5 5 O . : z G T R R R R R R R P P ",
"P P P P P P R R R R R U H j $ o O , = z G P R R R R R R R R P P ",
"P P P P P P R R R R R R Y F g X   = c G P P R R R R R R R R P P ",
"P P P P P P R R R R R R R Y m d u z G P P P R R R R R R R R P P ",
"P P P P P P R R R R R R R R K G G J P P P P T R R R R R R R P P ",
"P U P P P P R R R R R R R P P P P P P P U P R R R R R R R P P P ",
"P P P P P P R R R R R R R P P P P P P P P P R R R R R R R P P P ",
"P P P P P R R R R R R R R P P P P P P P P R R R R R R R R P P P "
};
