/* XPM */
static char *c41707681949[] = {
/* columns rows colors chars-per-pixel */
"32 32 117 2 ",
"   c #3A3954",
".  c #393A55",
"X  c #3E3C57",
"o  c #3B3C58",
"O  c #423B52",
"+  c #443E55",
"@  c #473F58",
"#  c #474058",
"$  c #43425D",
"%  c #48425A",
"&  c #69515D",
"*  c #765553",
"=  c #484965",
"-  c #4B4B65",
";  c #565066",
":  c #53526B",
">  c #555268",
",  c #52546D",
"<  c #55556C",
"1  c #5B566A",
"2  c #5E5A6E",
"3  c #5F5C6F",
"4  c #444C72",
"5  c #454E74",
"6  c #485076",
"7  c #4B5278",
"8  c #4C547A",
"9  c #4C557E",
"0  c #5D5C73",
"q  c #5F5E74",
"w  c #50577D",
"e  c #5B5C7E",
"r  c #655060",
"t  c #675363",
"y  c #6D5563",
"u  c #6E616F",
"i  c #6E6474",
"p  c #86584C",
"a  c #8A5A4B",
"s  c #8A5B4D",
"d  c #8B5B4E",
"f  c #8B5C4E",
"g  c #925F4D",
"h  c #905F50",
"j  c #92604E",
"k  c #8F6257",
"l  c #956252",
"z  c #986553",
"x  c #9B6552",
"c  c #9A6653",
"v  c #936458",
"b  c #9F6B5F",
"n  c #A26953",
"m  c #A46C58",
"M  c #A36D5F",
"N  c #BC7A5E",
"B  c #9A716B",
"V  c #9D7169",
"C  c #BE7D61",
"Z  c #C07B5D",
"A  c #C57F5F",
"S  c #C17E62",
"D  c #C57F61",
"F  c #CB8362",
"G  c #CC8362",
"H  c #CE8563",
"J  c #C98566",
"K  c #CF8564",
"L  c #CE8868",
"P  c #D18764",
"I  c #D48966",
"U  c #D68A67",
"Y  c #D88B67",
"T  c #D68D6B",
"R  c #D98C68",
"E  c #D88E6B",
"W  c #D98F6B",
"Q  c #DC8F6A",
"!  c #DD8F6A",
"~  c #D98F6C",
"^  c #DA906C",
"/  c #E29570",
"(  c #E49671",
")  c #E79873",
"_  c #E89973",
"`  c #4E5680",
"'  c #545A81",
"]  c #545B81",
"[  c #565D83",
"{  c #545C85",
"}  c #565E87",
"|  c #5B5D80",
" . c #5C638A",
".. c #5A628C",
"X. c #5F6690",
"o. c #646A8D",
"O. c #7F7482",
"+. c #7E7485",
"@. c #73778C",
"#. c #707596",
"$. c #73779A",
"%. c #71779D",
"&. c #747998",
"*. c #757A9A",
"=. c #767B9C",
"-. c #787D9D",
";. c #7D81A0",
":. c #7E84A8",
">. c #8688A1",
",. c #8488A4",
"<. c #858AA5",
"1. c #898BA5",
"2. c #8489AC",
"3. c #898DA9",
"4. c #9498B4",
"5. c #9499B7",
"6. c #969BB9",
/* pixels */
"! ! ! ! _ _ _ _ _ _ _ _ ! ! ! ! ! ! ! ! _ _ _ _ _ _ _ _ ! ! ! ! ",
"! ! ! ! _ _ _ _ _ _ _ ! ! ! ! ! ! ! ! ! _ _ _ _ _ _ _ ! ! ! ! ! ",
"! ! ! ! _ _ _ _ _ _ _ ! ! ! ! ! ! ! ! ! _ _ _ _ _ _ _ ! ! ! ! ! ",
"! ! ! _ _ _ _ _ _ _ _ ! ! ! ! ! Y ! ! _ _ _ _ _ _ _ _ ! ! ! ! ! ",
"! ! ! _ _ _ _ _ _ _ _ ! ! ! P A Z A U _ _ _ _ _ _ _ _ ! ! ! ! ! ",
"! ! ! _ _ _ _ _ _ _ _ ^ Q U C v * v S / _ _ _ _ _ _ _ ! ! ! ! ! ",
"! ! ! _ _ _ _ _ _ _ ( ! U N B +.@.O.V J / _ _ _ _ _ _ ! ! ! ! ! ",
"! ! ! _ _ _ _ _ _ _ _ ! F l i 1.4.>.u m ~ _ _ _ _ _ _ ! ! ! ! ! ",
"! ! ! _ _ _ _ _ _ _ _ ! G s , -.2.*.: z ^ _ _ _ _ _ _ ! ! ! ! ! ",
"! ! ! _ _ _ _ _ _ _ ) ! G s < =.2.&.; c ^ _ _ _ _ _ _ ! ! ! ! ! ",
"! ! ! _ _ _ _ _ _ _ ) ^ G s q 3.6.<.3 c ^ ) ) _ _ _ _ ! ! ! ! ! ",
"! ! ! _ _ _ _ _ _ _ _ ^ G s 0 ;.3.;.1 c ^ ) ) ) _ _ _ ! ! ! ! ! ",
"! ! ! ! _ _ _ _ _ _ _ ! G d : $.:.#.; j Q ) ) ) _ _ _ ! ! ! ! ! ",
"! ! ! ! _ _ _ _ _ _ _ ^ G f q 3.5.,.0 j ! ) ) ) _ _ _ ! ! ! ! ! ",
"! ! ! ! _ _ _ _ _ _ _ ( G s 0 <.5.<.3 j ! ) _ _ _ _ _ _ ! ! ! ! ",
"! ! ! ! ! _ _ _ _ _ _ _ P a - o.%.o.# j P _ _ _ _ _ _ _ ! ! ! ! ",
"! ! ! ! ! _ _ _ _ _ _ ) F s o 8 { 7 # j K / _ _ _ _ _ _ ! ! ! ! ",
"! ! ! ! ! ! _ _ _ _ _ _ T s   5 9 5 O j P ! _ _ _ _ _ _ _ ! ! ! ",
"! ! ! ! ! ! _ _ _ _ ) _ T a = ] o.] # j P ! _ _ _ _ _ _ _ ! ! ! ",
"! ! ! ! ! ! _ _ _ _ ) ( T s X ] ..8 # j P ! _ _ _ _ _ _ _ ! ! ! ",
"! ! ! ! ! ! _ _ _ _ _ ) T h . 5 9 4 O g P ! _ _ _ _ _ _ _ _ ! ! ",
"! ! ! ! ! ! _ _ _ _ _ ) T h X ] ..9 @ g K ! _ _ _ _ _ _ _ _ ! ! ",
"! ! ! ! ! ! _ _ _ _ _ ) Q h $ { o.] @ g K ! / _ _ _ _ _ _ _ ! ! ",
"! ! ! ! ! ! _ _ _ _ _ ) T l   5 ` 5 X g K ! _ _ _ _ _ _ _ _ ! ! ",
"! ! ! ! ! ! _ _ _ _ _ ) T g X 9 } 7 X g P ! _ _ _ _ _ _ _ _ ! ! ",
"! ! ! ! ! ! _ _ _ _ _ ) ~ m r |  .| & n P ! _ _ _ _ _ _ _ _ ! ! ",
"! ! ! ! ! ! _ _ _ _ _ _ / L b t = y M F R ! _ _ _ _ _ _ _ _ ! ! ",
"! ! ! ! ! ! _ _ _ _ _ _ _ ( D x p n D ! ! ! _ _ _ _ _ _ _ _ ! ! ",
"! ! ! ! ! ! _ _ _ _ _ _ ) ) R G D P R ! ! ! _ _ _ _ _ _ _ _ ! ! ",
"! ! ! ! ! ! _ _ _ _ _ _ ) ! ! ! ! ! ! ! ! ! _ _ _ _ _ _ _ ! ! ! ",
"! ! ! ! ! ! _ _ _ _ _ _ _ ! ! ! ! ! ! ! ! ! _ _ _ _ _ _ _ ! ! ! ",
"! ! ! ! ! _ _ _ _ _ _ _ _ ! ! ! ! ! ! ! ! _ _ _ _ _ _ _ _ ! ! ! "
};
