/* XPM */
static char *c51707681949[] = {
/* columns rows colors chars-per-pixel */
"32 32 174 2 ",
"   c #373550",
".  c #3D3E60",
"X  c #403E5A",
"o  c #3F4367",
"O  c #3B436B",
"+  c #3D456E",
"@  c #45425D",
"#  c #554150",
"$  c #534457",
"%  c #564758",
"&  c #5B4958",
"*  c #5F495A",
"=  c #64474B",
"-  c #62474C",
";  c #6F4E4F",
":  c #714D4C",
">  c #704F4F",
",  c #674A52",
"<  c #664C51",
"1  c #624A54",
"2  c #664F55",
"3  c #684D51",
"4  c #624C59",
"5  c #735150",
"6  c #775351",
"7  c #725258",
"8  c #444263",
"9  c #4A4765",
"0  c #42486B",
"q  c #484C6F",
"w  c #564B61",
"e  c #524B64",
"r  c #53526C",
"t  c #5A5169",
"y  c #404973",
"u  c #434C75",
"i  c #454E77",
"p  c #454E78",
"a  c #4C5175",
"s  c #4E5476",
"d  c #495178",
"f  c #49527B",
"g  c #4A537C",
"h  c #4E567F",
"j  c #515475",
"k  c #535575",
"l  c #5D5E7F",
"z  c #6A586D",
"x  c #6D5A6D",
"c  c #775C68",
"v  c #695E77",
"b  c #615B79",
"n  c #70626F",
"m  c #68657A",
"M  c #756878",
"N  c #87584A",
"B  c #84584C",
"V  c #865A4E",
"C  c #895D51",
"Z  c #8A5F56",
"A  c #97624F",
"S  c #8F635D",
"D  c #926156",
"F  c #956357",
"G  c #9E6650",
"H  c #986455",
"J  c #956558",
"K  c #956459",
"L  c #97665C",
"P  c #9B685A",
"I  c #99695E",
"U  c #A06853",
"Y  c #A46A52",
"T  c #A66D55",
"R  c #A86E57",
"E  c #A56C58",
"W  c #A86F5A",
"Q  c #AA715C",
"!  c #A9715E",
"~  c #B27256",
"^  c #B5785F",
"/  c #BA7A5E",
"(  c #BF7C5D",
")  c #876265",
"_  c #97706E",
"`  c #867078",
"'  c #A67262",
"]  c #A07167",
"[  c #BA7A60",
"{  c #BE7D60",
"}  c #C07B5D",
"|  c #C37E5E",
" . c #C47E5F",
".. c #C47F61",
"X. c #C38062",
"o. c #C78060",
"O. c #C68062",
"+. c #C58266",
"@. c #CA8362",
"#. c #CD8463",
"$. c #CF8664",
"%. c #CE8869",
"&. c #D08967",
"*. c #D78B67",
"=. c #D08968",
"-. c #D38B69",
";. c #D68D6C",
":. c #D78E6C",
">. c #D98C68",
",. c #DB8D69",
"<. c #D88E6A",
"1. c #DD8F6A",
"2. c #DE926E",
"3. c #DF936E",
"4. c #DF936F",
"5. c #E19570",
"6. c #E29570",
"7. c #E39671",
"8. c #E59772",
"9. c #E69872",
"0. c #E79873",
"q. c #E89973",
"w. c #4E5780",
"e. c #525982",
"r. c #535B85",
"t. c #545B85",
"y. c #545C85",
"u. c #5A5F85",
"i. c #575F88",
"p. c #5A6086",
"a. c #5B638B",
"s. c #5F658A",
"d. c #5F668C",
"f. c #606287",
"g. c #676986",
"h. c #6B6E8A",
"j. c #7B7485",
"k. c #74768C",
"l. c #626991",
"z. c #646B94",
"x. c #676D97",
"c. c #696F93",
"v. c #666D98",
"b. c #686F9A",
"n. c #6E7290",
"m. c #6B7197",
"M. c #69709A",
"N. c #6C729B",
"B. c #6C739C",
"V. c #717594",
"C. c #767992",
"Z. c #71779E",
"A. c #7B7F9D",
"S. c #817381",
"D. c #7C81A3",
"F. c #7A80A5",
"G. c #89899F",
"H. c #868BA8",
"J. c #878CAC",
"K. c #898EAC",
"L. c #8F90A9",
"P. c #8E93B2",
"I. c #9094B0",
"U. c #9095B4",
"Y. c #9297B5",
"T. c #9698B1",
"R. c #979BB8",
"E. c #979CB9",
"W. c #9A9EBB",
"Q. c #9B9FBC",
"!. c #9CA0BB",
"~. c #9CA0BC",
"^. c #9DA1BD",
"/. c #A4A8C3",
/* pixels */
"1.1.1.1.q.q.q.q.q.q.q.q.1.1.1.1.1.1.1.1.q.q.q.q.q.q.q.q.1.1.1.1.",
"1.1.1.1.q.q.q.q.q.q.q.1.1.1.1.1.1.1.1.1.q.q.q.q.q.q.9.1.1.1.1.1.",
"1.1.1.1.q.q.q.q.q.q.q.1.1.1.1.1.,.2.1.1.q.q.q.q.q.q.q.1.1.1.1.1.",
"1.1.1.q.q.q.q.q.q.q.q.1.1.1.1.1.,.>.1.q.q.q.q.q.q.q.q.2.1.1.1.1.",
"1.1.1.q.q.q.q.q.q.q.q.1.2.2.*.@.}  .%.q.q.q.q.q.q.q.q.1.1.1.1.1.",
"1.1.1.q.q.q.q.q.q.q.q.,.,.*.O.K 5 D [ 8.9.q.q.q.q.q.q.1.1.1.1.1.",
"1.1.1.q.q.q.q.q.q.q.9.2.>.| _ ` k.j._ ( 5.9.9.q.q.q.q.1.1.1.1.1.",
"1.1.1.q.q.q.q.q.q.q.q.>. .F M K.!.T.j.K +.5.q.q.q.q.q.1.1.1.1.1.",
"1.1.1.q.q.q.q.q.q.q.9.| K x V.R./.~.F.v K ..6.q.q.q.q.1.1.1.1.1.",
"1.1.1.q.q.q.q.q.q.q.8.~ < g.J.^.~.L.D.p.& R 3.q.q.q.q.1.1.1.1.1.",
"1.1.1.q.q.q.q.q.q.q.8.~ 2 C.W.^.Y.F.B.p.% E 2.q.q.q.q.1.1.1.1.1.",
"1.1.1.q.q.q.q.q.q.9.8.~ < h.L.!.P.B.v.p.% T 2.q.q.q.q.1.1.1.1.1.",
"1.1.1.1.q.q.q.q.q.8.;.' n n.J.W.P.B.b.d.t I %.6.q.q.q.1.1.1.1.1.",
"1.1.1.1.q.q.q.q.q.<.Q ` G.I.E.^.P.Z.v.z.f.x P %.8.q.q.1.1.1.1.1.",
"1.1.1.1.q.q.q.q.q.&.C m H.U.P.K.D.N.v.M.z.j 5 ..8.q.q.q.1.1.1.1.",
"1.1.1.1.1.q.q.q.q.&.V r c.Z.m.s.d.v.M.M.z.s ; ..8.q.q.q.1.1.1.1.",
"1.1.1.1.1.q.q.q.8.-.B @ w.t.w.p r.z.M.v.l.k ; X.9.9.q.q.2.1.1.1.",
"1.1.1.1.1.1.q.q.0.&.B X d w.f i r.x.M.M.x.s < O.9.q.q.q.q.1.1.1.",
"1.1.1.1.1.1.q.q.0.-.C e u.f.t.w.r.x.M.M.l.k 6 X.9.q.q.q.q.1.1.1.",
"1.1.1.1.1.1.q.q.q.<./ ) l i.t.f r.x.v.l.l c Q -.9.9.q.q.q.1.1.1.",
"1.1.1.1.1.1.q.q.q.0.2.^ 1 0 i p r.x.N.y.w H ;.9.q.q.q.q.q.q.1.1.",
"1.1.1.1.1.1.q.q.q.q.8./ = q e.f r.z.x.p.$ U 3.q.q.q.q.q.q.q.1.1.",
"1.1.1.1.1.1.q.q.q.q.8./ - d i.w.w.d.z.p.$ G 2.q.q.q.q.q.q.q.1.1.",
"1.1.1.1.1.1.q.q.q.q.8.} ; 9 p f i h a.p.4 Y 6.9.q.q.q.q.q.q.1.1.",
"1.1.1.1.1.1.q.q.q.q.9.*.E 7   + u + a z F  .6.q.q.q.q.q.q.q.1.1.",
"1.1.1.1.1.1.q.q.q.q.q.9.;.Q , 8 O o 1 D O.*.9.q.q.q.q.q.q.q.1.1.",
"1.1.1.1.1.1.q.q.q.q.q.q.9.>.T ,   # F | *.2.q.q.q.q.q.q.q.q.1.1.",
"1.1.1.1.1.1.q.q.q.q.q.q.9.9.@.G N H  .<.,.,.q.q.q.q.q.q.q.q.1.1.",
"1.1.1.1.1.1.q.q.q.q.q.q.q.9.>.#.@.#.>.1.1.1.q.q.q.q.q.q.q.q.1.1.",
"1.1.1.1.1.1.q.q.q.q.q.q.q.,.2.1.1.1.1.1.1.1.q.q.q.q.q.q.q.1.1.1.",
"1.1.1.1.1.1.q.q.q.q.q.q.q.2.1.1.1.1.1.1.1.1.q.q.q.q.q.q.q.1.1.1.",
"1.1.1.1.1.q.q.q.q.q.q.q.9.,.1.1.1.1.1.1.1.q.q.q.q.q.q.q.q.1.1.1."
};
