/* XPM */
static char *c61707681950[] = {
/* columns rows colors chars-per-pixel */
"32 32 110 2 ",
"   c #36334F",
".  c #3D344B",
"X  c #2F3557",
"o  c #353350",
"O  c #3F3C56",
"+  c #333B5E",
"@  c #4E3E51",
"#  c #3F4367",
"$  c #3D456C",
"%  c #3F4872",
"&  c #5A424A",
"*  c #46405B",
"=  c #584553",
"-  c #5D4852",
";  c #5C495D",
":  c #764F49",
">  c #7D544C",
",  c #624750",
"<  c #634A52",
"1  c #6B4C52",
"2  c #685259",
"3  c #775554",
"4  c #7C5956",
"5  c #464665",
"6  c #4D4461",
"7  c #4C4967",
"8  c #434A6D",
"9  c #4D4E6C",
"0  c #515268",
"q  c #434B75",
"w  c #464F78",
"e  c #4E5276",
"r  c #4C547C",
"t  c #52567A",
"y  c #745D6E",
"u  c #6E606E",
"i  c #636174",
"p  c #69687E",
"a  c #7B6770",
"s  c #83574C",
"d  c #87584A",
"f  c #925F4E",
"g  c #835B53",
"h  c #8C5E54",
"j  c #86625E",
"k  c #9B6653",
"l  c #926358",
"z  c #9A6A5C",
"x  c #A46C55",
"c  c #A26C5B",
"v  c #AC715A",
"b  c #B3765D",
"n  c #B7785C",
"m  c #B9795D",
"M  c #8E6967",
"N  c #956A62",
"B  c #89747D",
"V  c #927173",
"C  c #AB7767",
"Z  c #A4766C",
"A  c #C17C5D",
"S  c #C68264",
"D  c #CB8564",
"F  c #CE8867",
"G  c #C88569",
"H  c #CC886A",
"J  c #D08664",
"K  c #D48966",
"L  c #D28A6A",
"P  c #DD8F6A",
"I  c #DD916E",
"U  c #E1946F",
"Y  c #E49671",
"T  c #E79873",
"R  c #E89973",
"E  c #555D86",
"W  c #585F86",
"Q  c #5B6081",
"!  c #5C638B",
"~  c #6A6A84",
"^  c #65698B",
"/  c #6D718D",
"(  c #73768B",
")  c #797689",
"_  c #76798F",
"`  c #616790",
"'  c #646B95",
"]  c #686E94",
"[  c #676E99",
"{  c #686F99",
"}  c #6A719A",
"|  c #767792",
" . c #70769B",
".. c #73799E",
"X. c #827583",
"o. c #847C8E",
"O. c #7D82A6",
"+. c #7F85A8",
"@. c #87879E",
"#. c #8689A4",
"$. c #8D8DA2",
"%. c #868BAC",
"&. c #898EAF",
"*. c #9296AF",
"=. c #8C91B1",
"-. c #9397B6",
";. c #9599B4",
":. c #9A9EBB",
">. c #9DA1BC",
",. c #A4A8C4",
/* pixels */
"P P P P R R R R R R R R P P P P P P P P R R R R R R R R P P P P ",
"P P P P R R R R R R R P P P P P P P P P R R R R R R R P P P P P ",
"P P P P R R R R R R R P P P P P P P P P R R R R R R R P P P P P ",
"P P P R R R R R R R R P P P P P P P P U T T R R R R R P P P I P ",
"P P I R R R R R R R R P I P J S A A A S J U T R R R R P P P P P ",
"P P P R R R R R R R R P P J b g 3 > 3 4 z H T R R R R P P P P P ",
"P P P R R R R R R R R P D b V ) ( ( ( ( X.Z G U R R R P P P P P ",
"P P P R R R R R R R R P A g ) ;.:.:.-.;.#.u x I R R R P P P P P ",
"P P P R R R R R R R R P m 4 _ >.,.:.&.%. .0 k I R R R P P P P P ",
"P P P R R R R R R R U S Z a #.>.:.%...{ ] ~ V m P T R P P P P P ",
"P P P R R R R R R R U x a $.>.>.%...{ { ..#.@.j A Y R P P P P P ",
"P P P R R R R R R R P f i *.,.>.+.{ [ { ..+./ < m Y R P P P P P ",
"P P P P R R R R T I G M ) ;.>.-.O.{ { { } } ^ u C L Y P P P P P ",
"P P P P R R R R U S N o.*.>.-.+.} { { { { { ..#.B v K P P P P P ",
"P P P P R R R R T m 2 | ;.>.=...{ { { { { { O.%.p g F R P P P P ",
"P P P P P R R R U m - Q O.-.%.} [ { { { { } } } 0 > F R P P P P ",
"P P P P P R R R U n & 8 ! }  .[ { { { { { { { ` 9 > F T I P P P ",
"P P I P P P R R T n @ # e E W ' { { { { { { [ ! 7 > F R R P P P ",
"P P P P P P R R T m , e E r E ` { { { { { [ ` t * s H R R P P P ",
"P P P P P P R R T D c y t w E ! [ { { { { [ ! 7 4 v I R R P P P ",
"P P P P P P R R R T F l O $ q r ` [ { { [ ' t = v I Y R R R P P ",
"P P P P P P R R R R P k . $ % w ! [ { [ ' ! 7 & m Y R R R R P P ",
"P P P P P P R R R R I b 3 6 $ w E ' [ [ ` w ; h D T R R R R P P ",
"P P P P P P R R R R T L b 1 + % w E ' [ ! 5 g G I T R R R R P P ",
"P P P P U P T R R R R T D : X % q r E W r O k I R R R R R R I P ",
"P P P P P P R R R R R T D f @ 5 $ $ $ $ 5 , v I R R R R R R P P ",
"P P P P P P R R R R R T U S h @ o o     < x J T R R R R R R P P ",
"P P P P P P R R R R R R T U n f d d d d x S Y R R R R R R R P P ",
"P P P P P P R R R R R R R Y K D S D D D J P Y R R R R R R R P P ",
"P P P P P P R R R R R R R P P P I P P P P P R R R R R R R P P P ",
"P P P P P P R R R R R R R P P P P P P P P P R R R R R R R P P P ",
"P P P P P R R R R R R R R P P P P P P P P R R R R R R R R P P P "
};
