/* XPM */
static char *stop_back1707420547[] = {
/* columns rows colors chars-per-pixel */
"32 32 109 2 ",
"   c #3C467B",
".  c #504D6E",
"X  c #42487D",
"o  c #47497E",
"O  c #4A4A7E",
"+  c #4A4B7E",
"@  c #4D4C7C",
"#  c #555371",
"$  c #7D5E76",
"%  c #99484D",
"&  c #9C4E50",
"*  c #B05547",
"=  c #B15748",
"-  c #835D72",
";  c #926266",
":  c #9F6A67",
">  c #866274",
",  c #896274",
"<  c #8D6776",
"1  c #836278",
"2  c #906877",
"3  c #A8716B",
"4  c #BD7566",
"5  c #B07970",
"6  c #B47B70",
"7  c #B87F73",
"8  c #5B953D",
"9  c #5D963D",
"0  c #5C953E",
"q  c #5DA52D",
"w  c #5FAB2C",
"e  c #66B52E",
"r  c #68BA2F",
"t  c #6CA838",
"y  c #6EA83B",
"u  c #66B831",
"i  c #69BB31",
"p  c #69BD30",
"a  c #6ABE30",
"s  c #6BBE32",
"d  c #6BBE35",
"f  c #5A8748",
"g  c #5B8748",
"h  c #769541",
"j  c #799742",
"k  c #7A9742",
"l  c #6EB545",
"z  c #799373",
"x  c #908849",
"c  c #968B4E",
"v  c #998753",
"b  c #9A9252",
"n  c #A78A56",
"m  c #A39255",
"M  c #AB9258",
"N  c #AA9358",
"B  c #BD8761",
"V  c #86B276",
"C  c #C08862",
"Z  c #D58C67",
"A  c #D78B6A",
"S  c #D88D69",
"D  c #D88C6A",
"F  c #DD8E69",
"G  c #DD8F6A",
"H  c #DD8F6B",
"J  c #CE9068",
"K  c #D7936C",
"L  c #DC906D",
"P  c #D9987C",
"I  c #D8997F",
"U  c #E09570",
"Y  c #E29573",
"T  c #E59773",
"R  c #E79973",
"E  c #E79975",
"W  c #E89973",
"Q  c #E89974",
"!  c #284483",
"~  c #2A4586",
"^  c #2B468A",
"/  c #2B478A",
"(  c #2B478C",
")  c #2B488D",
"_  c #2B488E",
"`  c #2D498D",
"'  c #3B4D82",
"]  c #445384",
"[  c #44568F",
"{  c #98848D",
"}  c #9C878E",
"|  c #879F82",
" . c #878E93",
".. c #8A9195",
"X. c #94B386",
"o. c #97B38A",
"O. c #95A393",
"+. c #9EB699",
"@. c #ADACB3",
"#. c #ADB3B0",
"$. c #AEB3B0",
"%. c #C18B80",
"&. c #C38E81",
"*. c #C59082",
"=. c #D5A393",
"-. c #D9A797",
";. c #DBA894",
":. c #D6A698",
">. c #E3A083",
/* pixels */
"G G G G W W W W W W W W G G G G G G G G W W W W W W W W G G G G ",
"G G G G W W W W W W W G G G G G G G G G W W W W W W W G G G G G ",
"G G G G W W W W W W W G G G G G G G G G W W W W W W W G G G G G ",
"G G G W W W W W W W W G G G G G G G G W W W W W W W W G G G G G ",
"G G G W W W W W W W W G m j j j k k j M W W W W W W W G G G G G ",
"G G G W W W W W W W W m a a a a r r s a N W W W W W W G G G G G ",
"G G G W W W W W R W N a r a a a r a a a a N Q W W W W G G G G G ",
"G G G W W W W W E K y a a a a a a a a a a y K W W W W G G G G G ",
"G G G W W W W W R m i a s a a a a a a a i a m R W W W G G G G G ",
"G G G W W W W Q : 9 a d d s d d d d d d d a 9 : Q W W G G G G G ",
"G G G W W W W -.. | +.$.#.#.#.#.$.#.$.$.$.+.| . -.W W G G G G G ",
"G G G W W W W :.@.O.V l l l l l l l l l l V O.@.:.W W G G G G G ",
"G G G G W W W =.# 9 p r r a r a a a a u a a 8 # =.W W G G G G G ",
"G G G G W W W E ; 9 r r r r e e e e e r r a 8 ; Q W W G G G G G ",
"G G G G W W W W T b p r e e e e e e e e r r b T Q W W W G G G G ",
"G G G G G W W W E A t l X.o.o.o.o.o.o.X.l t Z W W W W W G G G G ",
"G G G G F W W W R E v  .] ' ' ' ' ' ' ] ..n T Q Q Q W W F F F F ",
"G G G G L F W W R T < ( ) ( ( / / ) ) ) ` - Y T Q Q W W Q F H H ",
"G G G G F F W W T 2 ( / ) ( ( / / / ) ) [ ' 2 Y Q W W W Q H F H ",
"G G G G L F W W 7 [ ` 1 + ( ( ) ) / ~ + ] _ [ B W W W W Q F H F ",
"G G G G L F W J z ..} Y 5 ) ) ) ) ) / 3 A { ..z K W W W W W F F ",
"G G G G F F W h r u g Y > / ) ) ) ) / $ Z f u a h W W W W W H F ",
"G G G G L F W n q w c Y + ) ) ( _ ( ( + Z x w q n R W W W W F H ",
"G G G G F L W W B B R Y + / (   X / / o D D B C R W W W W W H H ",
"G G G G G G W W W W W 6 ^ ^ / 3 3 ~ ~ ~ 3 G W W W W W W W W G G ",
"G G G G G G W W W W W , ! !   A D   ~ ! - G W W W W W W W W G G ",
"G G G G G G W W W W W = % % % Z H & % % * G W W W W W W W W G G ",
"G G G G G G W W W W W &.4 4 >.A H %.4 3 I G W W W W W W W W G G ",
"G G G G G G W W W W W >.;.;.>.G H >.&.-.P G W W W W W W W W G G ",
"G G G G G G W W W W W W W A A G G G L H G G W W W W W W W G G G ",
"G G G G G G W W W W W W W G F H F G L H G G W W W W W W W G G G ",
"G G G G G W W W W W W W W G F G H G H G G W W W W W W W W G G G "
};
