/* XPM */
static char *stop_right11707420547[] = {
/* columns rows colors chars-per-pixel */
"32 32 129 2 ",
"   c #191E0D",
".  c #305017",
"X  c #437A1E",
"o  c #467C1D",
"O  c #477D22",
"+  c #3C425D",
"@  c #29427E",
"#  c #3A437C",
"$  c #37567D",
"%  c #457053",
"&  c #467053",
"*  c #44457B",
"=  c #4A4A7C",
"-  c #494E7E",
";  c #68667A",
":  c #6C6B7F",
">  c #B8523C",
",  c #BB553C",
"<  c #856475",
"1  c #806279",
"2  c #A7716B",
"3  c #AA7571",
"4  c #AC7670",
"5  c #CD7859",
"6  c #58872F",
"7  c #559725",
"8  c #599D28",
"9  c #5A9E2B",
"0  c #52893D",
"q  c #588939",
"w  c #6C9A3D",
"e  c #699E3D",
"r  c #6F9E3D",
"t  c #5AA328",
"y  c #5DA62D",
"u  c #5FAB2B",
"i  c #60AC2B",
"p  c #62B02E",
"a  c #66B72D",
"s  c #66B52E",
"d  c #66B82E",
"f  c #68BA2F",
"g  c #6DBB2E",
"h  c #69AD36",
"j  c #6AAE36",
"k  c #6AA13B",
"l  c #66B630",
"z  c #67B832",
"x  c #68BA30",
"c  c #68BB33",
"v  c #69BD30",
"b  c #69BC31",
"n  c #6ABE30",
"m  c #6DBE38",
"M  c #6FBE3E",
"N  c #70C02F",
"B  c #71C12F",
"V  c #7BC130",
"C  c #7CC430",
"Z  c #538F49",
"A  c #528D4A",
"S  c #69A249",
"D  c #6DBA41",
"F  c #71BE44",
"G  c #70B948",
"H  c #74947C",
"J  c #91944B",
"K  c #92934C",
"L  c #94954F",
"P  c #AB8657",
"I  c #B38B5D",
"U  c #B58B5E",
"Y  c #B38C5D",
"T  c #839079",
"R  c #839279",
"E  c #B68D62",
"W  c #B8857D",
"Q  c #A8967D",
"!  c #87BD6D",
"~  c #85AF70",
"^  c #CB8E66",
"/  c #DA8E69",
"(  c #DC8E69",
")  c #DD8F6A",
"_  c #CD9068",
"`  c #CD9168",
"'  c #DD906C",
"]  c #DC926F",
"[  c #CB8871",
"{  c #E39771",
"}  c #E49771",
"|  c #E69771",
" . c #E49871",
".. c #E79A75",
"X. c #E89973",
"o. c #2A4584",
"O. c #2A4586",
"+. c #2A4689",
"@. c #2B478C",
"#. c #2C4888",
"$. c #2D498B",
"%. c #2B488D",
"&. c #2C498D",
"*. c #334982",
"=. c #3A4D83",
"-. c #344B88",
";. c #3B4F8A",
":. c #455187",
">. c #6E7691",
",. c #858490",
"<. c #8C8B98",
"1. c #928D98",
"2. c #8D9099",
"3. c #8A909D",
"4. c #90909D",
"5. c #95A98F",
"6. c #91A691",
"7. c #91A792",
"8. c #93A894",
"9. c #8B91A3",
"0. c #B0AFB5",
"q. c #B0AFB6",
"w. c #B6B5BB",
"e. c #B6BBBC",
"r. c #B8B8BF",
"t. c #C09B92",
"y. c #C39B92",
"u. c #DAA288",
"i. c #C7B2AF",
/* pixels */
") ) ) ) X.X.X.X.X.X.X.X.) ) ) ) ) ) ) ) X.X.X.X.X.X.X.X.) ) ) ) ",
") ) ) ) X.X.X.X.X.X.X.) ) ) ) ) ) ) ) ) X.X.X.X.X.X.X.) ) ) ) ) ",
") ) ) ) X.X.X.X.X.X. .' ) ) ) ) ) ) ) ) X.X.X.X.X.X.X.) ) ) ) ) ",
") ) ) X.X.X.X.X.X.X.X.) ( ) ) ) ) ) ) ..X.X.X.X.X.X.X.' ) ) ) ) ",
") ) ) X.X.X.X.X.X.X.X.' ` P P P P P E ....} X.X.X.X.X.) ) ) ) ) ",
") ) ) X.X.X.X.X... .X.' J c c v g g h J } ..X.X.X.X.X.) ) ) ) ) ",
") ) ) X.X.X.X.X.{ ..{ J v v g g g N z v L  .X.X.X.X.X.) ) ) ) ) ",
") ) ) X.X.X.X.X...{ E v v N B f N v N N c U X.X.X.X.X.) ) ) ) ) ",
") ) ) X.X.X.X.X.X. .r n g g B g n n n n f w } X.X.X.X.) ) ) ) ) ",
") ) ) X.X.X.X.X.X.` j c A A Z f n n a a a a Y X.X.X.X.) ) ) ) ) ",
") ) ) X.X.X.X.X...Q D & : 1.>.& i l g a a a r } X.X.X.) ) ) ) ) ",
") ) ) X.X.X.X.X...i.e.4.0.w.0.+ y t u i i c j _ X.X.X.) ) ) ) ) ",
") ) ) ) X.X.X.X.X.E G 2.0.w.0.+ l 7 X ~ ~ i c I X.X.X.) ) ) ) ) ",
") ) ) ) X.X.X.X.X.{ e & ; ,.>.& c 9   R R 9 c U X.X.X.) ) ) ) ) ",
") ) ) ) X.X.X.X.X. .L j Z Z Z c B g o . O a c U X.X.X.X.) ) ) ) ",
") ) ) ) ) X.X.X.X.X.` D m g g n c C g V g f k } X.X.X.X.) ) ) ) ",
") ) ) ) ) X.X.X.X.X.X.u.5.M n n B B B B g l L X.X.X.X.X.' ) ' ) ",
") ) ) ) ) ) X.X.X.X.X.[ :.6.! m c g f B 9 6 ^  .X.X.X.X.X.' ) ) ",
") ) ) ) ) ) X.X.X.X.X.3 @ -.>.8.H B B c a K X.X.X.X.X.X. .) ( ) ",
") ) ) ) ) ) X.X.X.X.{ = O.@.&.*.>.6.S k P ) X.X.X.X.X.X.X.) ) ) ",
") ) ) ) ) ) X.X.X.X.} - 3.9.=.O.%.;.1.( ' ( X.X.X.X.X.X.X.X.) ) ",
") ) ) ) ) ) X.X.X.X.X.& M F H &.&.&.2 ) ( ' X.X.X.X.X.X.X.X.) ) ",
") ) ) ) ) ) X.X.X.X.X.w f f 0 #.&.:.` ( ( ( ..X.X.X.X.X.X.X.) ) ",
") ) ) ) ) ) X.X.X.X.X.^ q 0 $ @.=.^ ) ) ' ( .. .X.X.X.X.X.X.) ) ",
") ) ) ) ) ) X.X.X.X.X. .< &.&.+.2 ) ) ) ) ) X.X.X.X.X.X.X.X.) ) ",
") ) ) ) ) ) X.X.X.X.X.X.4 o.O.#.2 ) ) ) ) ) X.X.X.X.X.X.X.X.) ) ",
") ) ) ) ) ) X.X.X.X.X.X.[ * # 1 ) ) ) ) ) ) X.X.X.X.X.X.X.X.) ) ",
") ) ) ) ) ) X.X.X.X.X.X.X., > W 5 ) ) ) ) ) X.X.X.X.X.X.X.X.) ) ",
") ) ) ) ) ) X.X.X.X.X.X...y.y.y.t.[ { ] ) ) X.X.X.X.X.X.X.X.) ) ",
") ) ) ) ) ) X.X.X.X.X.X.{ ] ] ' ' ' ' ' ) ) X.X.X.X.X.X.X.) ) ) ",
") ) ) ) ) ) X.X.X.X.X.X...' ) ) ( ' ' ( ) ) X.X.X.X.X.X.X.) ) ) ",
") ) ) ) ) X.X.X.X.X.X.X.X.' ( ' ( ( ( ' ) X.X.X.X.X.X.X.X.) ) ) "
};
