/* XPM */
static char *stop_left11707420547[] = {
/* columns rows colors chars-per-pixel */
"32 32 128 2 ",
"   c #305312",
".  c #355B15",
"X  c #35561C",
"o  c #44443F",
"O  c #3C415E",
"+  c #3D425F",
"@  c #3E5C6F",
"#  c #2A437F",
"$  c #3A427B",
"%  c #3F4679",
"&  c #3F477C",
"*  c #557044",
"=  c #49755A",
"-  c #414678",
";  c #41487D",
":  c #47497D",
">  c #7F5E75",
",  c #B95038",
"<  c #B36A5E",
"1  c #825E73",
"2  c #825F76",
"3  c #A77960",
"4  c #A4706D",
"5  c #A7716C",
"6  c #BE7F6E",
"7  c #CC7556",
"8  c #49841E",
"9  c #569527",
"0  c #559925",
"q  c #528A39",
"w  c #6B9F3C",
"e  c #6F9F3D",
"r  c #5CA529",
"t  c #5EA92A",
"y  c #5EAA2A",
"u  c #5FAB2B",
"i  c #61AE2C",
"p  c #62AF2C",
"a  c #62B02D",
"s  c #65B22F",
"d  c #65B42E",
"f  c #66B62E",
"g  c #66B82E",
"h  c #69BC2F",
"j  c #6DBD2F",
"k  c #69AD36",
"l  c #6AAE36",
"z  c #6FA03D",
"x  c #65AB3F",
"c  c #6DAC38",
"v  c #67B730",
"b  c #69BB31",
"n  c #69BC30",
"m  c #69BD30",
"M  c #6ABE31",
"N  c #6CBE30",
"B  c #70BE3F",
"V  c #7DC22F",
"C  c #7EC530",
"Z  c #5A8743",
"A  c #518B4A",
"S  c #629346",
"D  c #5DA340",
"F  c #5DA540",
"G  c #61A646",
"H  c #71BE44",
"J  c #7FA779",
"K  c #8A8549",
"L  c #94954F",
"P  c #989650",
"I  c #AC8057",
"U  c #AB8557",
"Y  c #B58B5E",
"T  c #B38C5D",
"R  c #83B96C",
"E  c #82AD70",
"W  c #C38B60",
"Q  c #C1806A",
"!  c #D58260",
"~  c #D78C6A",
"^  c #D88E68",
"/  c #D98D6A",
"(  c #DB8E6A",
")  c #DD8F6A",
"_  c #CC9267",
"`  c #CD9168",
"'  c #DC906C",
"]  c #DD906C",
"[  c #DC916F",
"{  c #DC926F",
"}  c #C68474",
"|  c #E39771",
" . c #E29573",
".. c #E49871",
"X. c #E49872",
"o. c #E69872",
"O. c #E59974",
"+. c #E89973",
"@. c #2A4585",
"#. c #2A4689",
"$. c #2B488E",
"%. c #2C488D",
"&. c #2C498D",
"*. c #2D4A8C",
"=. c #374883",
"-. c #3D5780",
";. c #6A7491",
":. c #6D7491",
">. c #6E789A",
",. c #83818E",
"<. c #868593",
"1. c #8A8996",
"2. c #8B929A",
"3. c #B29F95",
"4. c #97BA89",
"5. c #9FB292",
"6. c #8D93A4",
"7. c #9F9FA8",
"8. c #A4A7AD",
"9. c #B3B2B8",
"0. c #B6B5BB",
"q. c #B9BABC",
"w. c #C19488",
"e. c #C09B92",
"r. c #DDA38F",
"t. c #9AC683",
"y. c #BABAC1",
"u. c #BDBDC4",
/* pixels */
") ) ) ) +.+.+.+.+.+.+.+.) ) ) ) ) ) ) ) +.+.+.+.+.+.+.+.) ) ) ) ",
") ) ) ) +.+.+.+.+.+.+.) ) ) ) ) ) ) ) ) +.+.+.+.+.+.+.) ) ) ) ) ",
") ) ) ) +.+.+.+.+.+.+.) ) ) ) ) ) ) ) ) +.+.+.+.+.+.+.) ) ) ) ) ",
") ) ) +.+.+.+.+.+.+.+.) ) ) ) ) ) ) ) +.+.+.+.+.+.+.+.) ) ) ) ) ",
") ) ) +.+.+.+.+.+.+.+.] ] ` U U U U U _ X.X.+.+.+.+.+.) ) ) ) ) ",
") ) ) +.+.+.+.+.+.+.+.] W F g g h h h x _ O.+.O.+.+.+.) ) ) ) ) ",
") ) ) +.+.+.+.+.+.+.+.W c M h V h M h f l _ | X.+.+.+.) ) ) ) ) ",
") ) ) +.+.+.+.+.o.o.o.z b b M h h V M V V x | X.+.+.+.) ) ) ) ) ",
") ) ) +.+.+.+.+.+.+.T s h M h V n n v C h h Y o.+.+.+.) ) ) ) ) ",
") ) ) +.+.+.+.+.+.| e f f f h b n D A A x V P o.+.+.+.) ) ) ) ) ",
") ) ) +.+.+.+.+.+.Y v f f M M t F + 1.<.O x S r.+.+.+.) ) ) ) ) ",
") ) ) +.+.+.+.+.o.L h f t t i 0 A 2.u.9.7.7.q.r.+.+.+.) ) ) ) ) ",
") ) ) ) +.+.+.+.o.w h S t.Z 8 p A 1.y.9.8.J S o.+.+.+.) ) ) ) ) ",
") ) ) ) +.+.+.+.| w h * 5.o . h F + <.<.O x T o.+.+.+.) ) ) ) ) ",
") ) ) ) +.+.+.+.o.e h r X   t h g x A A G l ` +.+.+.+.+.) ) ) ) ",
") ) ) ) ) +.+.+.o.T b f V j C M g h g V H P o.+.+.+.+.+.) ) ) ) ",
") ) ) ) ) +.+.+.O.` l v V V V b n g m J 3.O.o.+.+.+.+.+.] ] ] ) ",
") ) ) ) ) ) +.+.+.| K 9 t M h b V H t.>.> ' o.+.+.+.+.+.+.] ) ) ",
") ) ) ) ) ) +.+.+.+.` c g M N H t.2.*.@.& ^ +.+.+.+.+.+.+.) ) ) ",
") ) ) ) ) ) +.+.+.+. ._ L x E 2.-.#.*.*.# 5 +.+.+.+.+.+.+.) ) ) ",
") ) ) ) ) ) +.+.+.+.+.+.o.w.:.$.$.@.>.6.;.4 +.+.+.+.+.+.+.+.) ) ",
") ) ) ) ) ) +.+.+.+.+.+.+. .: $.$.@ J B F U O.O.+.+.+.+.+.+.) ) ",
") ) ) ) ) ) +.+.+.+.+.+.+.+.5 #.$.@ i g g U | O.+.+.+.+.+.+.) ) ",
") ) ) ) ) ) +.+.+.+.+.+.O.+.( 2 #.$.= q K { | O.+.+.+.+.+.+.) ) ",
") ) ) ) ) ) +.+.+.+.+.+.+.+.) ( % *.*.=.Q ) +.+.+.+.+.+.+.+.) ) ",
") ) ) ) ) ) +.+.+.+.+.+.+.+.) ) : #.@.- ^ ) +.+.+.+.+.+.+.+.) ) ",
") ) ) ) ) ) +.+.+.+.+.+.+.+.) o.Q & $ 1 ) ) +.+.+.+.+.+.+.+.) ) ",
") ) ) ) ) ) +.+.+.+.+.+.+.+.) 7 } < , 7 ) ) +.+.+.+.+.+.+.+.) ) ",
") ) ) ) ) ) +.+.+.+.+.+.+.+.) 3.3.e.e.] ) ) +.+.+.+.+.+.+.+.) ) ",
") ) ) ) ) ) +.+.+.+.+.+.+.) ) [ ]  .[ [ ) ) +.+.+.+.+.+.+.) ) ) ",
") ) ) ) ) ) +.+.+.+.+.+.+.) ) ) ) [ [ ( ) ) +.+.+.+.+.+.+.) ) ) ",
") ) ) ) ) +.+.+.+.+.+.+.+.) ) ) ) ( ) [ ) +.+.+.+.+.+.+.+.) ) ) "
};
