/* XPM */
static char *stop_front1707420546[] = {
/* columns rows colors chars-per-pixel */
"32 32 133 2 ",
"   c #335418",
".  c #385C1B",
"X  c #3C3A62",
"o  c #3E3B63",
"O  c #493B60",
"+  c #4A3C61",
"@  c #34527C",
"#  c #4B4674",
"$  c #41487D",
"%  c #47497D",
"&  c #774B6B",
"*  c #784C6B",
"=  c #7B5B6F",
"-  c #7F5D71",
";  c #BC614B",
":  c #BB624E",
">  c #A1755F",
",  c #856274",
"<  c #A26E6C",
"1  c #A26E6D",
"2  c #A97B64",
"3  c #BC7D6C",
"4  c #AA7570",
"5  c #AA7571",
"6  c #C17F6B",
"7  c #4B8522",
"8  c #4C8624",
"9  c #569626",
"0  c #559925",
"q  c #599C28",
"w  c #5B963E",
"e  c #5D9A39",
"r  c #5E9C3A",
"t  c #658C38",
"y  c #658D38",
"u  c #679339",
"i  c #68933A",
"p  c #68943A",
"a  c #6C9C3B",
"s  c #699D3D",
"d  c #5CA429",
"f  c #5EAA2A",
"g  c #5FAB2B",
"h  c #5FA737",
"j  c #61AE2C",
"k  c #65B42D",
"l  c #66B52E",
"z  c #66B62E",
"x  c #66B82E",
"c  c #67B92F",
"v  c #68B92F",
"b  c #69BC2F",
"n  c #6DBD2F",
"m  c #6DAD37",
"M  c #6FA03D",
"N  c #6EAD38",
"B  c #68B931",
"V  c #69BB31",
"C  c #69BD30",
"Z  c #69BC31",
"A  c #6ABD30",
"S  c #6CBF30",
"D  c #6CBB3A",
"F  c #7DC22F",
"G  c #7EC530",
"H  c #609840",
"J  c #629846",
"K  c #71BE44",
"L  c #96914E",
"P  c #AB8557",
"I  c #B2885C",
"U  c #B38C5D",
"Y  c #839079",
"T  c #A09F73",
"R  c #85AF70",
"E  c #C2875F",
"W  c #C38B60",
"Q  c #C48960",
"!  c #CB8F66",
"~  c #C9866D",
"^  c #D68B69",
"/  c #DB8D69",
"(  c #DB8E69",
")  c #D98D6A",
"_  c #DC8E69",
"`  c #DD8F6A",
"'  c #CC9267",
"]  c #DD906C",
"[  c #DC926F",
"{  c #C68572",
"}  c #C98772",
"|  c #CB8871",
" . c #E09571",
".. c #E29771",
"X. c #E49771",
"o. c #E49673",
"O. c #E69772",
"+. c #E69872",
"@. c #E79A75",
"#. c #E89973",
"$. c #E79B78",
"%. c #2A4586",
"&. c #2A4688",
"*. c #2B4689",
"=. c #2B478C",
"-. c #2B488D",
";. c #2B488E",
":. c #364681",
">. c #374681",
",. c #364685",
"<. c #364786",
"1. c #374886",
"2. c #404A85",
"3. c #424B85",
"4. c #415286",
"5. c #4B5388",
"6. c #4D5488",
"7. c #6A708B",
"8. c #8E948A",
"9. c #898B9B",
"0. c #8C8D9C",
"q. c #A18885",
"w. c #B48580",
"e. c #BB8F89",
"r. c #8A91A3",
"t. c #D99D86",
"y. c #C09B92",
"u. c #C19B93",
"i. c #DBA08B",
"p. c #C9A094",
"a. c #CDA295",
"s. c #CDA397",
"d. c #D1A89E",
/* pixels */
"` ` ` ` #.#.#.#.#.#.#.#.` ` ` ` ` ` ` ` #.#.#.#.#.#.#.#.` ` ` ` ",
"` ` ` ` #.#.#.#.#.#.#.` ` ` ` ` ` ` ` ` #.#.#.#.#.#.#.` ` ` ` ` ",
"` ` ` ` #.#.#.#.#.#.#.` ` ` ` ` ` ` ` ` #.#.#.#.#.#.#.` ` ` ` ` ",
"` ` ` #.#.#.#.#.#.#.#.] ` ` ` ` ` ` ` #.#.#.#.#.#.#.#.` ` ` ` ` ",
"` ` ` #.#.#.#.#.#.#.#.] W P P P P P P ' $.$.#.#.#.#.#.` ` ` ` ` ",
"` ` ` #.#.#.#.#.#.#.#.E N A A A b b B V '  .#.#.#.#.#.` ` ` ` ` ",
"` ` ` #.#.#.#.#.@.+.' N A A x z F b F x N ' @.#.#.#.#.` ` ` ` ` ",
"` ` ` #.#.#.#.#.@...M V A l z A z k j z A J X.#.#.#.#.` ` ` ` ` ",
"` ` ` #.#.#.#.#.#.U V v z V z z z z b v n b U +.#.#.#.` ` ` ` ` ",
"` ` ` #.#.#.#.#.~ s A z z z x z A z z V v b s ~ #.#.#.` ` ` ` ` ",
"` ` ` #.#.#.#.i.+ e f A A A A A z z z A A j r O i.#.#.` ` ` ` ` ",
"` ` ` #.#.#.#.d.o e 0 f f f z A b z f f f 0 e o d.#.#.` ` ` ` ` ",
"` ` ` ` #.#.#.s.o r j 7 R R 8 A A 7 R R 7 j r X s.#.#.` ` ` ` ` ",
"` ` ` ` #.#.#.t.O r V . Y Y . b A . Y Y . b r O i.#.#.` ` ` ` ` ",
"` ` ` ` #.#.#.#.~ s A f     d A A d     j V M ~ #.#.#.#.` ` ` ` ",
"` ` ` ` ` #.#.#.#.I A G n F z A A z F A G A P #.#.#.#.#.` ` ` ` ",
"` ` ` ` ` #.#.#.O.#.a D G S V V b A A G F s [ @.@...#.#.` ` ` ` ",
"` ` ` ` ` ) #.#.O.$.2 j S V q 9 9 q A A m > @.@.#.X.#.#.#.` ` ` ",
"` ` ` ` ` ` #.#.O.} 2.@ w B l V b B A w @ 1.{ @.#.#.#.#.#.` ` ` ",
"` ` ` ` ` ` #.#.} 3.=.>.7.8.J J H J 8.7.:.-.3.| #.#.#.#.#.` ` ` ",
"` ` ` ` ` ` #.#.q.r.6.} , 3.9.0.0.9.4.- 3 5.r.q.#.#.#.#.#.#.` ` ",
"` ` ` ` ` ` X.L D K T X.5 =.=.;.-.-.=.1 ( T K D L X.#.#.#.#.` ` ",
"` ` ` ` ` ` #.i k k i #.% =.=.=.-.-.-.% ^ u z z i X.#.#.#.#.` ` ",
"` ` ` ` ` ` @.! t t ! O.$ =.*.%.&.&.-.$ ( Q t t ! #.#.#.#.#.` ` ",
"` ` ` ` ` ` #.#.X.#.O.| ,.=.*., - %.-.1.~ ` ..@.+.#.#.#.#.#.` ` ",
"` ` ` ` ` ` #.#.#.#.#.5 %.%.<.6 3 <.&.=.< ` #.#.#.#.#.#.#.#.` ` ",
"` ` ` ` ` ` #.#.#.#.X.& @ @ O ` ( # 1.1.& ^ #.#.#.#.#.#.#.#.` ` ",
"` ` ` ` ` ` #.#.#.#.X.; w.u.: ` ( : e.I ; / #.#.#.#.#.#.#.#.` ` ",
"` ` ` ` ` ` #.#.#.#.@.s.u.u.u.` ` u.u.u.p.] #.#.#.#.#.#.#.#.` ` ",
"` ` ` ` ` ` #.#.#.#.#.@.@.....` ` ` ]  .` ` #.#.#.#.#.#.#.` ` ` ",
"` ` ` ` ` ` #.#.#.#.#.#.@./ ` ` ` ` ` ` ` ` #.#.#.#.#.#.#.` ` ` ",
"` ` ` ` ` #.#.#.#.#.#.#.@.` ` ` ` ` ` ` ` #.#.#.#.#.#.#.#.` ` ` "
};
