/* XPM */
static char *walking_left1707420548[] = {
/* columns rows colors chars-per-pixel */
"32 32 150 2 ",
"   c #305312",
".  c #355B15",
"X  c #35561C",
"o  c #44443F",
"O  c #3C415E",
"+  c #3E4F68",
"@  c #3F5B67",
"#  c #294373",
"$  c #29417B",
"%  c #3A437C",
"&  c #3E467C",
"*  c #3F477E",
"=  c #3F5171",
"-  c #36537E",
";  c #4D594E",
":  c #557044",
">  c #43457B",
",  c #41487D",
"<  c #7F5E75",
"1  c #B8523C",
"2  c #B36A5F",
"3  c #BD6F5C",
"4  c #8A5461",
"5  c #815E70",
"6  c #816174",
"7  c #856679",
"8  c #A36E66",
"9  c #A16E6D",
"0  c #A46F6C",
"q  c #A7716C",
"w  c #AF7870",
"e  c #D47F5F",
"r  c #C17F6B",
"t  c #49841E",
"y  c #559925",
"u  c #599C33",
"i  c #5A9D37",
"p  c #6B9F3C",
"a  c #6F9F3D",
"s  c #5CA529",
"d  c #5EAB2A",
"f  c #61AE2C",
"g  c #62AF2C",
"h  c #65B42D",
"j  c #66B62E",
"k  c #67B82F",
"l  c #68BA2F",
"z  c #69BB2F",
"x  c #69BC2F",
"c  c #6DBD2F",
"v  c #69AD36",
"b  c #6AAE36",
"n  c #6FA03D",
"m  c #6EAD38",
"M  c #67B730",
"N  c #68B636",
"B  c #69BB31",
"V  c #69BD30",
"C  c #6ABD30",
"Z  c #6CBE30",
"A  c #67B938",
"S  c #6FBD3E",
"D  c #7DC22F",
"F  c #518B4A",
"G  c #528D4A",
"H  c #629346",
"J  c #5DA340",
"K  c #5DA540",
"L  c #61A646",
"P  c #73A04A",
"I  c #71BE44",
"U  c #77967F",
"Y  c #7FA779",
"T  c #90814D",
"R  c #94954F",
"E  c #989650",
"W  c #AB8557",
"Q  c #AD8558",
"!  c #B18B5C",
"~  c #B58B5E",
"^  c #B38C5D",
"/  c #B8867E",
"(  c #86BB6E",
")  c #82AD70",
"_  c #C38B60",
"`  c #D78C6A",
"'  c #D98C69",
"]  c #D88E68",
"[  c #DC8E69",
"{  c #DD8F6A",
"}  c #DC8F6C",
"|  c #CC9267",
" . c #CD9168",
".. c #DD906C",
"X. c #DC916F",
"o. c #DC926F",
"O. c #C58474",
"+. c #CB8871",
"@. c #DE9371",
"#. c #E39771",
"$. c #E49673",
"%. c #E79772",
"&. c #E49871",
"*. c #E69872",
"=. c #E69873",
"-. c #E59974",
";. c #E79A75",
":. c #E89973",
">. c #E79B78",
",. c #2A4482",
"<. c #2A4483",
"1. c #2A4585",
"2. c #2A4688",
"3. c #2B468A",
"4. c #2B478C",
"5. c #2B488D",
"6. c #2B488E",
"7. c #2C488D",
"8. c #364681",
"9. c #3B4D82",
"0. c #344D8C",
"q. c #354D8D",
"w. c #344D8F",
"e. c #415080",
"r. c #6D7391",
"t. c #6E7993",
"y. c #83818E",
"u. c #868593",
"i. c #8A8996",
"p. c #8B929A",
"a. c #B29F95",
"s. c #97BA8A",
"d. c #99BB8B",
"f. c #91A798",
"g. c #9FB292",
"h. c #9F9FA8",
"j. c #A4A7AD",
"k. c #B3B2B8",
"l. c #B6B5BB",
"z. c #B9BABC",
"x. c #C39387",
"c. c #D79B85",
"v. c #C29A91",
"b. c #C09B92",
"n. c #C19B93",
"m. c #DDA38F",
"M. c #C9A094",
"N. c #D7AA99",
"B. c #9AC683",
"V. c #BABAC1",
/* pixels */
"{ { { { :.:.:.:.:.:.:.:.{ { { { { { { { :.:.:.:.:.:.:.:.....[ ..",
"{ { { { :.:.:.:.:.:.:.{ { { { { { { { { :.:.:.:.:.:.:.[ [ [ ..[ ",
"{ { { { :.:.:.:.:.:.*.[ { { { { { [ { { :.:.:.-.:.:.:...{ { [ [ ",
"{ { { :.:.:.:.:.:.:.:.{ { ] Q Q W Q Q | :.:.:.*.:.:.:...{ { [ ..",
"{ { { :.:.:.:.:.:.:.:.{ ^ v A V D k V A | @.*.;.:.:.:.{ { { { { ",
"{ { { :.:.:.:.:.>.>.:._ v V V V j D V V N | ;.*.:.:.:.{ { { { { ",
"{ { { :.:.:.:.:.-.-.@.a D A V V x C C V D n @.;.:.:.:.{ { { { { ",
"{ { { :.:.:.:.:.-.-.! j k C V C x C V V A V ! ;.:.:.:.{ { { { { ",
"{ { { :.:.:.:.:.:.#.a j k j k C z s G G i D E >.:.:.:.{ { { { { ",
"{ { { :.:.:.:.:.:.~ M j d D D s i > i.u., L H c.:.:.:.{ { { { { ",
"{ { { :.:.:.:.:.%.R C j d d d y G i.V.l.j.j.z.m.:.:.:.{ { { { { ",
"{ { { :.:.:.:.:.#.p z H B.F t d G i.z.l.f.Y P -.:.:.:.{ { { { { ",
"{ { { { :.:.:.:.#.n x : g.o . V K + u.y.O i ! -.:.:.:.{ { { { { ",
"{ { { { :.:.:.:.#.a x s X   d C Z K F F v N  .-.:.:.:.{ { { { { ",
"{ { { { :.:.:.:.*.^ C j D C D C C C c C S E :.:.:.:.:.:.{ { { { ",
"{ { { { { :.:.:.*. .v B D D D k D C C ( a.:.:.:.:.:.:.:.{ { { { ",
"{ { { { { :.:.:.:.:.T y h C c x C I s.t.< *.*.:.:.:.:.:...{ { { ",
"{ { { { { { :.:.:.:.| m B C Z I s.p.9.4.* [ -.:.:.:.:.:.:.{ { { ",
"{ { { { { { :.:.:.:.%.| R H ) p.9.6.4.3.3.q :.:.:.:.:.:.:.{ { { ",
"{ { { { { { :.:.:.:.>.-.-./ r.0.9.w.6.<.3.q :.:.:.:.:.:.:.{ { { ",
"{ { { { { { :.:.:.:.:.:.>.%.> U d.f.0.$ 6.q :.:.:.:.:.:.:.:.{ { ",
"{ { { { { { :.:.:.:.:.:.+.e.# N V A @ 6.& ` :.:.:.:.:.:.:.:.{ { ",
"{ { { { { { :.:.:.:.:.:.5 7.# i d i - 6., ` &.:.:.:.:.:.:.:.{ { ",
"{ { { { { ..:.:.:.:.:.%.e.3.3.+ ; = 4.1.8.O.&.*.:.:.:.:.:.:.{ { ",
"{ { { { { { :.:.:.:.:.%.> ,.1.9 ' 8 1.3.7.5 :.:.:.:.:.:.:.:.{ { ",
"{ { { { { { :.:.:.:.:.*.7 % > r } ' 5 7.3.<.w :.:.:.:.:.:.:.{ { ",
"{ { { { { { :.:.:.:.%.e / 1 1 { } { ' 6 > 4 x.:.:.:.:.:.:.:.{ { ",
"{ { { { { { :.:.:.>.c.v.v.n.v.} { { ' O.2 3 N.:.:.:.:.:.:.:.{ { ",
"{ { { { { { :.:.:.:.:.>.>.>.X.{ { { #.a.a.M.:.:.:.:.:.:.:.:.{ { ",
"{ { { { { { :.:.:.:.:.:.%.{ { { { { X.@.....:.:.:.:.:.:.:.{ { { ",
"{ { { { { { :.:.:.:.:.:.-.{ { { { { } } { { :.:.:.:.:.:.:.{ { { ",
"{ { { { { :.:.:.:.:.:.%.>.{ { { { { { { { :.:.:.:.:.:.:.:.{ { { "
};
