/* XPM */
static char *walking_right1707420549[] = {
/* columns rows colors chars-per-pixel */
"32 32 156 2 ",
"   c #191E0D",
".  c #305017",
"X  c #467C1D",
"o  c #477D22",
"O  c #22396E",
"+  c #323C6C",
"@  c #3B3E6B",
"#  c #233A72",
"$  c #253C72",
"%  c #233B76",
"&  c #5A3959",
"*  c #3C425D",
"=  c #3A406A",
"-  c #2A437D",
";  c #29427F",
":  c #37467C",
">  c #35457E",
",  c #3A427B",
"<  c #3F477E",
"1  c #365276",
"2  c #3E5C70",
"3  c #7D5F5E",
"4  c #457053",
"5  c #467053",
"6  c #49755A",
"7  c #464164",
"8  c #41487D",
"9  c #7E666B",
"0  c #67657A",
"q  c #6C6B7F",
"w  c #9A4C39",
"e  c #B95038",
"r  c #B36A5E",
"t  c #825E74",
"y  c #976E68",
"u  c #836074",
"i  c #886477",
"p  c #A46F6C",
"a  c #BF7D66",
"s  c #AD7771",
"d  c #CC7556",
"f  c #C17F6B",
"g  c #559725",
"h  c #599C28",
"j  c #5A9E2B",
"k  c #588730",
"l  c #598B36",
"z  c #6C9A3D",
"x  c #699E3D",
"c  c #6D9E3D",
"v  c #5AA328",
"b  c #5DA62D",
"n  c #5FAB2B",
"m  c #60AC2B",
"M  c #62B02E",
"N  c #66B62E",
"B  c #67B72E",
"V  c #66B82E",
"C  c #69BB2F",
"Z  c #6DBB2E",
"A  c #69AD36",
"S  c #6AAE36",
"D  c #6AA13B",
"F  c #65AB3F",
"G  c #71AE3F",
"H  c #66B530",
"J  c #67B832",
"K  c #68BB33",
"L  c #69BD30",
"P  c #6DBE38",
"I  c #70BE3F",
"U  c #70C02F",
"Y  c #7BC130",
"T  c #7BC330",
"R  c #7CC430",
"E  c #538F49",
"W  c #528D4A",
"Q  c #69A249",
"!  c #6DBA41",
"~  c #70B948",
"^  c #948A4D",
"/  c #91944B",
"(  c #94954F",
")  c #97974F",
"_  c #AB8557",
"`  c #AD8558",
"'  c #B3865D",
"]  c #B38B5D",
"[  c #B58B5E",
"{  c #B38C5D",
"}  c #839079",
"|  c #839279",
" . c #B68D62",
".. c #A3817B",
"X. c #A5837B",
"o. c #A8847B",
"O. c #A8967D",
"+. c #87BA6B",
"@. c #87BD6D",
"#. c #85AF70",
"$. c #C48960",
"%. c #C8856D",
"&. c #D58260",
"*. c #D68967",
"=. c #D58A6A",
"-. c #D78E6B",
";. c #D98D69",
":. c #DA8E69",
">. c #DB8F6B",
",. c #DD8F6A",
"<. c #CD9068",
"1. c #CD9168",
"2. c #CE916B",
"3. c #DD906C",
"4. c #DC926F",
"5. c #C68474",
"6. c #C88770",
"7. c #D7987E",
"8. c #E39771",
"9. c #E49771",
"0. c #E49871",
"q. c #E69872",
"w. c #E59874",
"e. c #E79A75",
"r. c #E89973",
"t. c #2A4587",
"y. c #2B468A",
"u. c #2B478C",
"i. c #2B488E",
"p. c #2D4A8C",
"a. c #364786",
"s. c #344B8A",
"d. c #3B4F88",
"f. c #3B4F8A",
"g. c #7C798D",
"h. c #6E7691",
"j. c #6A7598",
"k. c #858490",
"l. c #8C8B98",
"z. c #918C95",
"x. c #8D9099",
"c. c #90909D",
"v. c #95A98F",
"b. c #91A691",
"n. c #91A792",
"m. c #93A894",
"M. c #8D93A4",
"N. c #B0AFB6",
"B. c #B6B5BB",
"V. c #B6BBBC",
"C. c #CF9580",
"Z. c #C29B91",
"A. c #C09B92",
"S. c #D8A188",
"D. c #C7B2AF",
"F. c #BABAC1",
/* pixels */
",.,.,.,.r.r.r.r.r.r.r.r.3.,.,.,.,.,.,.,.r.r.r.r.r.r.r.r.,.,.,.,.",
",.,.,.,.r.r.r.r.r.r.r.3.,.,.,.,.,.,.,.,.r.r.r.r.r.r.r.3.,.,.,.,.",
",.,.,.,.r.r.r.r.r.r.q.3.,.,.,.,.,.,.,.,.r.r.r.r.r.r.r.>.,.,.,.,.",
",.,.,.r.r.r.r.r.r.r.r.3.:.` ` _ _ _ $.q.r.r.r.r.r.r.r.,.,.,.,.,.",
",.,.,.r.r.r.r.r.r.r.r.:./ L L L C C S / 9.r.r.r.r.r.r.,.,.,.,.,.",
",.,.,.r.r.r.r.r.r.r.q./ L L L U U C L L ) w.r.r.r.r.r.,.,.,.,.,.",
",.,.,.r.r.r.r.r.e.q.[ K L L L L U U L L L { e.e.r.r.r.,.,.,.,.,.",
",.,.,.r.r.r.r.r.e.8.c L U L L L L L L L J z 8.9.r.r.r.,.,.,.,.,.",
",.,.,.r.r.r.r.r.r.1.S K W W W C U C B B B B ] r.r.r.r.,.,.,.,.,.",
",.,.,.r.r.r.r.r.e.O.! 5 0 z.q 5 M B V B B B c 9.r.r.r.,.,.,.,.,.",
",.,.,.r.r.r.r.r.e.D.V.c.N.V.B.* b v b n n K S <.r.r.r.,.,.,.,.,.",
",.,.,.r.r.r.r.r.r. .~ x.N.B.B.* J g o #.#.m C ] r.r.r.,.,.,.,.,.",
",.,.,.,.r.r.r.r.r.8.x 5 0 k.h.5 C j   | | j C ] r.r.r.,.,.,.,.,.",
",.,.,.,.r.r.r.r.r.q.( K W W W K C L X . o B L  .r.r.r.,.,.,.,.,.",
",.,.,.,.r.r.r.r.r.r.1.G P K U U C R U Y Z C D q.r.r.r.r.,.,.,.,.",
",.,.,.,.,.r.r.r.r.r.r.S.v.P L L U C Y U K L / q.r.r.r.r.,.,.,.,.",
",.,.,.,.,.r.r.r.r.r.8.i d.n.@.P U K U K h k <.r.r.r.r.r.,.,.,.,.",
",.,.,.,.,.,.r.r.r.r.s u.u.s.h.m.@.U K U B / 9.r.r.r.r.r.r.,.,.,.",
",.,.,.,.,.,.r.r.r.w.g.M.j.t.t.s.h.n.Q D _ :.r.r.r.r.r.r.r.,.,.,.",
",.,.,.,.,.,.r.r.e.2.+.P F 1 i.i.u.f.l.2.,.3.r.r.r.r.r.r.r.,.,.,.",
",.,.,.,.,.,.r.r.r.' m B B 2 u.i.i.i.3 -.:.3.r.r.r.r.r.r.r.r.,.,.",
",.,.,.,.,.,.r.r.r.9.^ l 6 i.i.i.u.y.; u :.,.r.r.r.r.r.r.r.r.,.,.",
",.,.,.,.,.,.r.r.r.r.9.6.: u.y.t.i.y.y.a.f ,.q.r.r.r.r.r.r.r.,.,.",
",.,.,.,.3.>.r.r.r.r.r.%.+ # ; > < i.i.i.p ,.r.r.r.r.r.r.r.r.,.,.",
",.,.,.,.,.,.r.r.r.r.%.= % # @ a =.8 t.t.p 3.r.r.r.r.r.r.r.r.,.,.",
",.,.,.,.,.,.r.r.r.0.7 O % = %.,.:.t , d.%.3.r.r.r.r.r.r.r.r.,.,.",
",.,.,.,.,.,.r.r.r.r.u & = %.3.,.,.d e r 5.d r.r.r.r.r.r.r.r.,.,.",
",.,.,.,.,.,.r.r.r.r.X.w y *.3.:.:.7.A.Z.Z.Z.r.r.r.r.r.r.r.r.,.,.",
",.,.,.,.,.,.r.r.r.r.C.o...o.,.,.:.4.4.4.3.3.r.r.r.r.r.r.r.r.,.,.",
",.,.,.,.,.,.r.r.r.r.r.r.r.>.,.,.>.,.,.,.,.,.r.r.r.r.r.r.r.,.,.,.",
",.,.,.,.,.,.r.r.r.r.r.r.r.3.,.,.,.,.,.,.,.,.r.r.r.r.r.r.r.,.,.,.",
",.,.,.,.,.r.r.r.r.r.r.r.r.>.,.,.,.,.,.,.,.r.r.r.r.r.r.r.r.,.,.,."
};
