/* XPM */
static char *walking_front31707420548[] = {
/* columns rows colors chars-per-pixel */
"32 32 124 2 ",
"   c #335418",
".  c #385C1B",
"X  c #3E3B63",
"o  c #393F70",
"O  c #493B60",
"+  c #4A3C61",
"@  c #3D585A",
"#  c #375069",
"$  c #354379",
"%  c #38477C",
"&  c #3A487E",
"*  c #34527C",
"=  c #414677",
"-  c #43497E",
";  c #47497D",
":  c #76586E",
">  c #7B5C72",
",  c #7F5E74",
"<  c #B96654",
"1  c #B36A5F",
"2  c #A26E6D",
"3  c #B46F61",
"4  c #A6706A",
"5  c #B97262",
"6  c #BA776D",
"7  c #CD7C5E",
"8  c #C07967",
"9  c #C17F6B",
"0  c #4B8522",
"q  c #4C8624",
"w  c #569626",
"e  c #559925",
"r  c #599C28",
"t  c #5B963E",
"y  c #5E9B3A",
"u  c #5E9C3A",
"i  c #618D36",
"p  c #6C9C3B",
"a  c #699D3D",
"s  c #5CA429",
"d  c #5EAA2A",
"f  c #5FA737",
"g  c #61AE2C",
"h  c #62B02D",
"j  c #65B42D",
"k  c #65B42E",
"l  c #66B62E",
"z  c #66B82E",
"x  c #67B92F",
"c  c #69BC2F",
"v  c #6DBD2F",
"b  c #6DAB37",
"n  c #6DAD37",
"m  c #6FA03D",
"M  c #65AA3C",
"N  c #6EAD38",
"B  c #6BAC3C",
"V  c #68B931",
"C  c #6ABB31",
"Z  c #69BD30",
"A  c #69BC31",
"S  c #6ABD30",
"D  c #6EBF30",
"F  c #69B33C",
"G  c #6EBD3E",
"H  c #7DC22F",
"J  c #7EC530",
"K  c #609840",
"L  c #629846",
"P  c #8C874D",
"I  c #948A4D",
"U  c #AB8557",
"Y  c #B3865D",
"T  c #B2885C",
"R  c #B38C5D",
"E  c #839079",
"W  c #85AF70",
"Q  c #C38B60",
"!  c #C48960",
"~  c #CD8F67",
"^  c #C9866D",
"/  c #CD8F68",
"(  c #DB8E6A",
")  c #DD8F6A",
"_  c #CC9267",
"`  c #DC916F",
"'  c #CB8871",
"]  c #CA8974",
"[  c #CD927E",
"{  c #E29771",
"}  c #E29672",
"|  c #E49771",
" . c #E69872",
".. c #E59975",
"X. c #E79B77",
"o. c #E89973",
"O. c #2B4688",
"+. c #2A4689",
"@. c #2B478A",
"#. c #2B478C",
"$. c #2B488E",
"%. c #364681",
"&. c #3B4D81",
"*. c #4D5487",
"=. c #69708B",
"-. c #6D738D",
";. c #6E7899",
":. c #8E948A",
">. c #92998D",
",. c #898B9B",
"<. c #8C8D9C",
"1. c #8D9298",
"2. c #979590",
"3. c #BB908B",
"4. c #97B98A",
"5. c #D69882",
"6. c #D69B83",
"7. c #D99D86",
"8. c #C09B92",
"9. c #DBA08B",
"0. c #CDA397",
"q. c #D1A696",
"w. c #D6AA9A",
"e. c #D1A89E",
/* pixels */
") ) ) ) o.o.o.o.o.o.o.o.) ) ) ) ) ) ) ) o.o.o.o.o.o.o.o.) ) ) ) ",
") ) ) ) o.o.o.o.o.o.o.` ) ) ) ) ) ) ) ) o.o.o.o.o.o.o.) ) ) ) ) ",
") ) ) ) o.o.o.o.o.o. .` ) ) ) ) ) ) ) ) o.o.o.o.o.o.o.` ) ) ) ) ",
") ) ) o.o.o.o.o.o.o.o.` ! U U U U U U _ o.o.o.o.o.o.o.` ) ) ) ) ",
") ) ) o.o.o.o.o.X.|  .Q F A A Z c c c N _ X.o.o.o.o.o.) ) ) ) ) ",
") ) ) o.o.o.o.o.X..._ n H A z z c c c c n _ o.o.o.o.o.) ) ) ) ) ",
") ) ) o.o.o.o.o...} M c z d z z l l l l c m  . .o.o.o.) ) ) ) ) ",
") ) ) o.o.o.o.o.X.T A z x A x l l l c v c D R  .o.o.o.) ) ) ) ) ",
") ) ) o.o.o.o.o.^ a S l g g x x c l l l c c a ^ o.o.o.) ) ) ) ) ",
") ) ) o.o.o.o.9.+ y d S J C S Z l l l c c d y O 7.o.o.) ) ) ) ) ",
") ) ) o.o.o.o.e.X y e d f f h l c l g d d e y X e.o.o.) ) ) ) ) ",
") ) ) o.o.o.o.0.X u g 0 4.G 0 x C q W W 0 g y X 0.o.o.` ) ) ) ) ",
") ) ) ) o.o.o.7.O y c . E E   H c . E E . c y O 7.o.o.) ) ) ) ) ",
") ) ) ) o.o.o.o.^ a S d     s H c s     g c a ^ o.o.o.) ) ) ) ) ",
") ) ) ) o.o.o.o. .T C J v H l S H j H v J v T o.o.o.o.o.) ) ) ) ",
") ) ) ) ) o.o.o.o.{ p D J D S x l c H H v p | o.o.o.o.o.) ) ) ) ",
") ) ) ) ) o.o.o.X...U M C c r w e e S H f > Y 3._ X.o.o.) ) ) ) ",
") ) ) ) ) ) o.o...] *.&.t V C C x l x t * ;.4.G N / o.o.o.) ) ) ",
") ) ) ) ) ) o.o...2.>.1.-.:.L K t L 1.=.% <.F l l Y  .o.o.) ) ) ",
") ) ) ) ) ) o.o./ B C M # &.,.<.1.,.&.: ^ ) I i I |  .o.o.) ) ) ",
") ) ) ) ) ) o.o.Y l l g @ $.$.$.#.$.#.2 ( ( | |  .o.o.o.o.o.) ) ",
") ) ) ) ) ) o.o. .I i P % O.O.$.$.$.+.&.( ` o.o.o.o.o.o.o.o.) ) ",
") ) ) ) ) ) o.o.o.X.{ { - $.+.$.$.+.$.> ( ) ..o.o.o.o.o.o.o.) ) ",
") ) ) ) ) ) o.o.o.o.o.' %.+.+.: * $.$.2 ( ) o.o.o.o.o.o.o.o.) ) ",
") ) ) ) ) ) o.o.o.o.o.8 = $ o 3 = $.$.; ) ) o.o.o.o.o.o.o.o.) ) ",
") ) ) ) ) ) o.o.o.o.o.[ < 7 < 5.2 O.O.%.9 ) o.o.o.o.o.o.o.o.) ) ",
") ) ) ) ) ) o.o.o.o.o.o.9.w.q.) 2 O.% = 5 ) o.o.o.o.o.o.o.o.) ) ",
") ) ) ) ) ) o.o.o.o.o.o.| | ) ) 8 3 3.3 7 ) o.o.o.o.o.o.o.o.) ) ",
") ) ) ) ) ) o.o.o.o.o.o.o.o.) ) 5.8.8.8.6.) o.o.o.o.o.o.o.o.) ) ",
") ) ) ) ) ) o.o.o.o.o.o.o.) ) ) ` ` ` ` ) ) o.o.o.o.o.o.o.) ) ) ",
") ) ) ) ) ) o.o.o.o.o.o.o.) ) ) ) ) ) ) ) ) o.o.o.o.o.o.o.) ) ) ",
") ) ) ) ) o.o.o.o.o.o.o.o.) ) ) ) ) ) ) ) o.o.o.o.o.o.o.o.) ) ) "
};
