/* XPM */
static char *walking_back1707420547[] = {
/* columns rows colors chars-per-pixel */
"32 32 113 2 ",
"   c #493B60",
".  c #4B3D61",
"X  c #354378",
"o  c #35447B",
"O  c #3A427B",
"+  c #475B62",
"@  c #414677",
"#  c #40437A",
"$  c #40437B",
"%  c #41487D",
"&  c #4A4B7C",
"*  c #76586D",
"=  c #7E6376",
"-  c #B95139",
";  c #B96654",
":  c #BA6958",
">  c #856274",
",  c #856377",
"<  c #A87867",
"1  c #A6706A",
"2  c #B97262",
"3  c #AA7571",
"4  c #CC7C5F",
"5  c #C07967",
"6  c #C17F6A",
"7  c #5E9C3A",
"8  c #618E37",
"9  c #699D3D",
"0  c #65B52F",
"q  c #66B52E",
"w  c #66B62E",
"e  c #6DAB37",
"r  c #6DAD37",
"t  c #6FA03D",
"y  c #6EAD38",
"u  c #69BA31",
"i  c #69BB31",
"p  c #69BD30",
"a  c #6ABD30",
"s  c #6ABE30",
"d  c #6AB937",
"f  c #6BB53E",
"g  c #6CB83D",
"h  c #668D43",
"j  c #6D9641",
"k  c #6C9642",
"l  c #639847",
"z  c #639D45",
"x  c #89844E",
"c  c #948A4D",
"v  c #958A52",
"b  c #AB8557",
"n  c #B3865D",
"m  c #B2885C",
"M  c #B38C5D",
"N  c #B68864",
"B  c #83BB6C",
"V  c #C38B60",
"C  c #C48960",
"Z  c #CD8F67",
"A  c #C9866D",
"S  c #D48263",
"D  c #D78C69",
"F  c #D98D68",
"G  c #DD8F6A",
"H  c #CC9267",
"J  c #CD9168",
"K  c #DC916F",
"L  c #DC926F",
"P  c #CB8871",
"I  c #CD927E",
"U  c #CF937E",
"Y  c #E29771",
"T  c #E49771",
"R  c #E39775",
"E  c #E69872",
"W  c #E79B77",
"Q  c #E89973",
"!  c #2A4482",
"~  c #2A4586",
"^  c #2B4689",
"/  c #2B478C",
"(  c #2B488D",
")  c #2B488E",
"_  c #2C488C",
"`  c #374680",
"'  c #3A4D82",
"]  c #3A4E88",
"[  c #404A85",
"{  c #666C89",
"}  c #6E789A",
"|  c #8E9D8F",
" . c #878693",
".. c #8B8997",
"X. c #8C9098",
"o. c #8D9298",
"O. c #91919D",
"+. c #92B08A",
"@. c #95B288",
"#. c #94B88A",
"$. c #98BA8A",
"%. c #A1B19F",
"&. c #ACAEB0",
"*. c #D69B83",
"=. c #D99D86",
"-. c #C19B93",
";. c #DBA08B",
":. c #DEA288",
">. c #CFA499",
",. c #D1A696",
"<. c #D0A697",
"1. c #D3A898",
"2. c #D2AA9F",
/* pixels */
"G G G G Q Q Q Q Q Q Q Q G G G G G G G G Q Q Q Q Q Q Q Q G G G G ",
"G G G G Q Q Q Q Q Q Q G G G G G G G G G Q Q Q Q Q Q Q G G G G G ",
"G G G G Q Q Q Q Q Q Q K G G G G G G G G Q Q Q Q Q Q Q G G G G G ",
"G G G Q Q Q Q Q Q Q Q L C b b b b b b H Q Q Q Q Q Q Q K G G G G ",
"G G G Q Q Q Q Q Q Q Q V y u s u a u a r H Q Q Q Q Q Q G G G G G ",
"G G G Q Q Q Q Q Q E J y s s s s a a s s r H Q Q Q Q Q G G G G G ",
"G G G Q Q Q Q Q E E 9 s s s s s a a a s a t E Q Q Q Q G G G G G ",
"G G G Q Q Q Q Q E M s s s s s s a a a s s s M E Q Q Q G G G G G ",
"G G G Q Q Q Q Q A 9 s s s s s s s s s s s a 9 A Q Q Q G G G G G ",
"G G G Q Q Q Q ;.. z B #.#.#.#.#.#.#.#.#.#.B z . :.Q Q G G G G G ",
"G G G Q Q Q Q 2...&.%.+.+.+.+.+.+.+.+.+.+.%.&. .2.Q Q G G G G G ",
"G G G Q Q Q Q >. .l d s p s s p s s s a s d l  .>.E Q G G G G G ",
"G G G G Q Q Q =.  7 s p q q q q w w w w a a 9   =.Q Q G G G G G ",
"G G G G Q Q Q Q A 9 s q q q q 0 w w q w q a 9 A Q Q Q G G G G G ",
"G G G G Q Q Q Q Q n i s g g g f f f f f a u m Q Q Q Q Q G G G G ",
"G G G G G Q Q Q Q Y k @.o...o.o.X.X.X.o.@.k Y Q Q Q Q Q G G G G ",
"G G G G G Q Q Z -.N > ' / ( / / / ( ( / ' < Q Q Q Q Q Q K G G G ",
"G G G G G G Z e g #.} _ ( ( ( ^ ~ / ( ( ~ [ P Q Q Q Q Q Q K G G ",
"G G G G G G n q s g O.O / ~ / / ( ~ ~ / ! _ & R Q Q Q Q E G G G ",
"G G G G G G T c 8 c R Y , / ) ) ( ( / { ] _ ' 1.Q Q Q Q E G G G ",
"G G G G G G Q T Y T Q Q 3 / / ( ( ( / + | o.| N Q Q Q Q E Q G G ",
"G G G G G G Q Q Q Q Q T & / _ _ ( ( / o x h v E Q Q Q Q Q Q G G ",
"G G G G G G Q Q Q Q Q Q , / ^ ^ ( / / % D D T Q Q Q Q Q Q Q G G ",
"G G G G G G Q Q Q Q Q Q 3 / ~ X * ~ ~ o A F T Q Q Q Q Q Q Q G G ",
"G G G G G G Q Q Q Q Q E & _ ` O : @ O # 2 G Q Q Q Q Q Q Q Q G G ",
"G G G G G G Q Q Q Q Q A o ~ _ > I : ; : U G Q Q Q Q Q Q Q Q G G ",
"G G G G G G Q Q Q Q Q 5 $ O O < K ,.1.,.G G Q Q Q Q Q Q Q Q G G ",
"G G G G G G Q Q Q Q Q S - - - 5 G K G G G G Q Q Q Q Q Q Q Q G G ",
"G G G G G G Q Q Q Q Q :.-.-.-.*.G G G G G G Q Q Q Q Q Q Q Q G G ",
"G G G G G G Q Q Q Q Q Q Q K K G G G G G G G Q Q Q Q Q Q Q G G G ",
"G G G G G G Q Q Q Q Q Q E K G G G G G G G G Q Q Q Q Q Q Q G G G ",
"G G G G G Q Q Q Q Q Q Q Q K G G G G G G G Q Q Q Q Q Q Q Q G G G "
};
