/* XPM */
static char *walking_back31707420548[] = {
/* columns rows colors chars-per-pixel */
"32 32 118 2 ",
"   c #493B60",
".  c #4B3D61",
"X  c #403F6F",
"o  c #29437F",
"O  c #3A427B",
"+  c #3A437C",
"@  c #38477C",
"#  c #475B62",
"$  c #414677",
"%  c #40437A",
"&  c #40437B",
"*  c #43497E",
"=  c #47497C",
"-  c #4A4C7D",
";  c #76586D",
":  c #7E6376",
">  c #B95038",
",  c #B95139",
"<  c #B96654",
"1  c #BA6958",
"2  c #A26E6D",
"3  c #B46F61",
"4  c #A87867",
"5  c #B97262",
"6  c #B17E76",
"7  c #CD7C5E",
"8  c #CC7C5F",
"9  c #C07967",
"0  c #C17F6B",
"q  c #5E9C3A",
"w  c #618E37",
"e  c #699D3D",
"r  c #65B52F",
"t  c #66B52E",
"y  c #66B62E",
"u  c #6DAB37",
"i  c #6DAD37",
"p  c #6FA03D",
"a  c #6EAD38",
"s  c #69BA31",
"d  c #69BB31",
"f  c #69BD30",
"g  c #6ABD30",
"h  c #6ABE30",
"j  c #6AB937",
"k  c #6BB53E",
"l  c #6CB83D",
"z  c #6FBD3E",
"x  c #688E44",
"c  c #6D9641",
"v  c #639847",
"b  c #639D45",
"n  c #948A4D",
"m  c #8E8752",
"M  c #958A52",
"N  c #AB8557",
"B  c #B3865D",
"V  c #B2885C",
"C  c #B38C5D",
"Z  c #B68864",
"A  c #83BB6C",
"S  c #C38B60",
"D  c #C48960",
"F  c #CD8F67",
"G  c #C9866D",
"H  c #D78C6A",
"J  c #D98D6A",
"K  c #DB8E6A",
"L  c #DD8F6A",
"P  c #D98E6C",
"I  c #CC9267",
"U  c #CD9168",
"Y  c #DC916F",
"T  c #CB8771",
"R  c #CD927E",
"E  c #C2997E",
"W  c #E29771",
"Q  c #E49771",
"!  c #E39775",
"~  c #E69872",
"^  c #E79B77",
"/  c #E89973",
"(  c #2A4484",
")  c #2A4587",
"_  c #2A4687",
"`  c #2A4688",
"'  c #2B478A",
"]  c #2B478C",
"[  c #2B488E",
"{  c #2C488C",
"}  c #364680",
"|  c #3A4D82",
" . c #3A4E88",
".. c #424B85",
"X. c #405183",
"o. c #666C89",
"O. c #6E789A",
"+. c #8E9D8F",
"@. c #878693",
"#. c #8B8997",
"$. c #8C9098",
"%. c #8D9298",
"&. c #90919C",
"*. c #92B08A",
"=. c #95B288",
"-. c #94B88A",
";. c #98BA8A",
":. c #A1B19F",
">. c #ACAEB0",
",. c #D69882",
"<. c #D69B83",
"1. c #D99D86",
"2. c #C19B93",
"3. c #DBA08B",
"4. c #CFA499",
"5. c #D3A898",
"6. c #D7AA99",
"7. c #D2AA9F",
/* pixels */
"L L L L / / / / / / / / L L L L L L L L / / / / / / / / L L L L ",
"L L L L / / / / / / / L L L L L L L L L / / / / / / / L L L L L ",
"L L L L / / / / / / / Y L L L L L L L L / / / / / / / L L L L L ",
"L L L / / / / / / / / Y D N N N N N N I / / / / / / / Y L L L L ",
"L L L / / / / / / / / S a s h s g s g i I / / / / / / L L L L L ",
"L L L / / / / / / ~ U a h h h h g g h h i I / / / / / L L L L L ",
"L L L / / / / / ~ ~ e h h h h h g g g h g p ~ / / / / L L L L L ",
"L L L / / / / / ~ C h h h h h h g g h h h h C ~ / / / L L L L L ",
"L L L / / / / / G e h h h h h h h h h h g g e G / / / L L L L L ",
"L L L / / / / 3.. b A -.-.-.-.-.-.-.-.-.-.A b . 3./ / L L L L L ",
"L L L / / / / 7.#.>.:.*.*.*.*.*.*.*.*.*.*.:.>.@.7./ / L L L L L ",
"L L L / / / / 4.@.v j h f h h f g g f f f j v @.4./ / L L L L L ",
"L L L L / / / 1.  q h f t t t t t y y y g g e   1./ / L L L L L ",
"L L L L / / / / G e h t t t t r t y t y t g e G / / / L L L L L ",
"L L L L / / / / / B d h l l l k k l k k g d V / / / / / L L L L ",
"L L L L L / / / / W c =.%.#.%.%.$.$.$.%.=.e Q / / / / / L L L L ",
"L L L L L / / / / / 4 | [ [ ] ] ' ] ] [ | 2 2 2.I W / / Y L L L ",
"L L L L L L / / / T | ( [ ] ] ' _ ] [ [ { O.-.z u I / / / L L L ",
"L L L L L L / / ! = ] ( ' ' ' ] ] ' _ ' O &.l h r B ~ / / L L L ",
"L L L L L L / / 6.X.]  .o.' [ [ ] ] _ 2 P P n w n W / / / L L L ",
"L L L L L L / / Z +.$.+.# ] ] [ [ [ ] 2 H K / Q Q / / / / / L L ",
"L L L L L L / / Q M x m @ _ ] ] [ [ ] ..K K / / / / / / / / L L ",
"L L L L L L / / / Q W W * _ { { [ _ ' ; K K ~ / / / / / / / L L ",
"L L L L L L / / / / / T O _ ' ; ( ( ] 2 K K / / / / / / / / L L ",
"L L L L L L / / / / / 9 & + X 3 $ _ { = K L / / / / / / / / L L ",
"L L L L L L / / / / / ,.1 < 1 R 2 ' ' } 0 L / / / / / / / / L L ",
"L L L L L L / / / / / ^ 6.6.5.Y 2 o + & 5 L / / / / / / / / L L ",
"L L L L L L / / / / / / / / L L 7 > > > 7 L / / / / / / / / L L ",
"L L L L L L / / / / / / / ~ L L ,.2.2.2.<.L / / / / / / / / L L ",
"L L L L L L / / / / / / / L L L H K P P L L / / / / / / / L L L ",
"L L L L L L / / / / / / / L L L L L K K L L / / / / / / / L L L ",
"L L L L L / / / / / / / / L L L L L L Y L / / / / / / / / L L L "
};
