/* XPM */
static char *walking_left31707420549[] = {
/* columns rows colors chars-per-pixel */
"32 32 169 2 ",
"   c #241D1F",
".  c #314F19",
"X  c #3B6917",
"o  c #497B2B",
"O  c #253767",
"+  c #23396E",
"@  c #233B75",
"#  c #263D74",
"$  c #293B72",
"%  c #4A385F",
"&  c #3A5E50",
"*  c #3B5857",
"=  c #29427E",
"-  c #2D447D",
";  c #3A427B",
":  c #3B467D",
">  c #354F7E",
",  c #554A69",
"<  c #59496B",
"1  c #595772",
"2  c #595872",
"3  c #5C537C",
"4  c #765860",
"5  c #665177",
"6  c #665479",
"7  c #42696A",
"8  c #707F65",
"9  c #984E3F",
"0  c #B94F37",
"q  c #825F73",
"w  c #9E736B",
"e  c #A37561",
"r  c #A97066",
"t  c #A07269",
"y  c #A9736C",
"u  c #B3776F",
"i  c #A87474",
"p  c #C4674A",
"a  c #4C8621",
"s  c #508F22",
"d  c #518F25",
"f  c #579927",
"g  c #568B35",
"h  c #6C833A",
"j  c #5AA226",
"k  c #5DA729",
"l  c #5FAB2B",
"z  c #61AF2C",
"x  c #64B22D",
"c  c #64B52C",
"v  c #66B52E",
"b  c #66B82E",
"n  c #67B92F",
"m  c #69B82E",
"M  c #69BC2F",
"N  c #6DBE2F",
"B  c #60A930",
"V  c #64AE33",
"C  c #60A43A",
"Z  c #69A738",
"A  c #67B331",
"S  c #67B631",
"D  c #67B632",
"F  c #66B134",
"G  c #69B732",
"H  c #69BC31",
"J  c #6ABE30",
"K  c #6ABF30",
"L  c #6CBE35",
"P  c #65B438",
"I  c #6EB63E",
"U  c #70BE3F",
"Y  c #7DC22F",
"T  c #6EC030",
"R  c #528D4A",
"E  c #518A4C",
"W  c #579746",
"Q  c #5D9B42",
"!  c #7D9B44",
"~  c #67A041",
"^  c #78A440",
"/  c #6AB642",
"(  c #76B55C",
")  c #7DBD5D",
"_  c #76A160",
"`  c #95884F",
"'  c #879549",
"]  c #89914A",
"[  c #8C944B",
"{  c #979150",
"}  c #9B9158",
"|  c #AA8557",
" . c #AB8557",
".. c #A88E55",
"X. c #AE915A",
"o. c #B0915B",
"O. c #B9915F",
"+. c #83A045",
"@. c #8E986C",
"#. c #BE8D62",
"$. c #BF966F",
"%. c #A2817A",
"&. c #B28578",
"*. c #92BC7C",
"=. c #CD8567",
"-. c #CE8B64",
";. c #CB8F67",
":. c #C5816A",
">. c #CF836C",
",. c #CC8E68",
"<. c #CE8F68",
"1. c #D48763",
"2. c #D48A6A",
"3. c #D38C6E",
"4. c #DD8F6A",
"5. c #D2916A",
"6. c #DB906C",
"7. c #DB946E",
"8. c #DD956E",
"9. c #C98770",
"0. c #C48F7C",
"q. c #D48D72",
"w. c #D99173",
"e. c #DA9072",
"r. c #DC9272",
"t. c #DD9A7E",
"y. c #E2916C",
"u. c #E69872",
"i. c #E79873",
"p. c #E79973",
"a. c #E89973",
"s. c #E79B78",
"d. c #E49D7E",
"f. c #294380",
"g. c #2A4585",
"h. c #2A4689",
"j. c #2B478C",
"k. c #2B488E",
"l. c #3B4781",
"z. c #304A82",
"x. c #364B87",
"c. c #364B88",
"v. c #575080",
"b. c #515F8D",
"n. c #566491",
"m. c #757384",
"M. c #777586",
"N. c #7C8296",
"B. c #7D8397",
"V. c #878692",
"C. c #8D8C99",
"Z. c #A28E8E",
"A. c #8DAC86",
"S. c #93A488",
"D. c #8EB184",
"F. c #97B18F",
"G. c #96B190",
"H. c #8D94A4",
"J. c #9593A0",
"K. c #AAA9B2",
"L. c #B0B5B7",
"P. c #B3B2B9",
"I. c #B8B7BE",
"U. c #C99789",
"Y. c #C49C8C",
"T. c #CA9C8E",
"R. c #C19B93",
"E. c #C0B6B6",
"W. c #BCBCC2",
/* pixels */
"4.4.4.4.a.a.a.a.a.a.a.a.4.4.4.4.4.4.4.4.a.a.a.a.a.a.a.a.y.4.4.4.",
"4.4.4.4.a.a.a.a.a.a.a.4.4.4.4.4.4.4.4.4.a.a.a.a.a.a.a.6.6.4.4.4.",
"4.4.4.4.a.a.a.a.a.a.a.4.4.4.4.4.4.4.4.4.a.a.p.p.a.a.a.6.4.4.4.4.",
"4.4.4.a.a.a.a.a.a.a.a.6.4.-. . . . . .8.a.a.s.p.a.a.a.6.4.4.4.4.",
"4.4.4.a.a.a.a.a.s.a.a.6...Z n K M M K ' 7.i.i.p.a.a.a.4.4.4.4.4.",
"4.4.4.a.a.a.a.a.i.i.a...D K K K M T n K +.7.i.i.a.a.a.4.4.4.4.4.",
"4.4.4.a.a.a.a.a.i.i.;.F K K K K T K K K T { u.i.a.a.a.4.4.4.4.4.",
"4.4.4.a.a.a.a.a.i.i.] D n K K K M T K K T V 5.i.a.a.a.4.4.4.4.4.",
"4.4.4.a.a.a.a.a.a.;.V v c c T K J W R R P m O.a.a.a.a.4.4.4.4.4.",
"4.4.4.a.a.a.a.a.a.[ n v S M b l E 2 C.M.* / @.d.a.a.a.4.4.4.4.4.",
"4.4.4.a.a.a.a.a.7.^ J z l l k j & K.W.P.J.L.E.d.a.a.a.4.4.4.4.4.",
"4.4.4.a.a.a.a.a.,.F x _ *.o s n & K.I.L.J.( } a.a.a.a.4.4.4.4.4.",
"4.4.4.4.a.a.a.a.,.F x 8 S.  a T E 2 V.M.* C <.u.a.a.a.4.4.4.4.4.",
"4.4.4.4.a.a.a.a.,.F m d . X c T J W R E m ' 8.a.a.a.a.4.4.4.4.4.",
"4.4.4.4.a.a.a.a.a.' M m Y T Y J J J M L I O.a.a.a.a.a.a.4.4.4.4.",
"4.4.4.4.4.a.a.a.a.X.G M N Y T T J J L D.Y.a.a.a.a.a.a.a.4.4.4.4.",
"4.4.4.4.4.a.a.a.a.7.h f A J J J L ) F.b.6 r.a.a.a.a.a.a.4.4.y.4.",
"4.4.4.4.4.4.a.a.a.a.o.S J J L ) G.N.x.k.k.q a.a.a.a.a.a.i.7.4.4.",
"4.4.4.4.4.4.a.a.a.a.i.#.! ~ A.N.c.h.= n.H.N.q.a.a.a.a.a.u.4.4.4.",
"4.4.4.4.4.4.a.a.a.a.i.u.u.Z.b.k.k.k.z.Q U ) $.a.a.a.a.a.i.4.4.4.",
"4.4.4.4.4.4.a.a.a.a.a.a.i.e g.k.k.k.> B n v ` a.a.a.a.a.i.a.4.4.",
"4.4.4.4.4.4.a.a.a.a.a.a.i - f.k.k.k.k.7 g h y.a.a.a.a.a.a.a.4.4.",
"4.4.4.4.4.4.a.a.a.a.a.e.3 k.h.k.k.k.k.= y 7.u.a.a.a.a.a.a.a.4.4.",
"4.4.4.4.4.4.a.a.a.a.a.9.g.k.k.l.: = # + r y.a.a.a.a.a.a.a.a.4.4.",
"4.4.4.4.4.4.a.a.a.a.a.9.f.g.g.:.=.< + @ $ r a.a.a.a.a.a.a.a.4.4.",
"4.4.4.4.4.4.a.a.a.a.a.w.3 ; 5 2.6.=.< @ + O 3.a.a.a.a.a.a.a.4.4.",
"4.4.4.4.4.4.a.a.a.a.y.>.u 0 p 4.4.4.-., % 4 u.a.a.a.a.a.a.a.4.4.",
"4.4.4.4.4.4.a.a.a.a.T.R.R.R.U.4.4.4.1.t 9 t U.p.a.a.a.a.a.a.4.4.",
"4.4.4.4.4.4.a.a.a.a.a.s.s.a.6.4.4.4.&.%.i 0.p.p.a.a.a.a.a.a.4.4.",
"4.4.4.4.4.4.a.a.a.a.a.a.a.4.6.4.4.4.6.6.7.4.p.p.a.a.a.a.a.4.4.4.",
"4.4.4.4.4.4.a.a.a.a.a.a.a.6.4.4.4.4.4.4.4.4.a.a.a.a.a.a.a.4.4.4.",
"4.4.4.4.4.a.a.a.a.a.a.a.a.y.4.4.4.4.4.4.4.a.a.a.a.a.a.a.a.4.4.4."
};
