/* XPM */
static char *walking_right31707420549[] = {
/* columns rows colors chars-per-pixel */
"32 32 153 2 ",
"   c #191E0D",
".  c #305017",
"X  c #437A1E",
"o  c #467C1D",
"O  c #477D22",
"+  c #3C425D",
"@  c #3A427B",
"#  c #3F477E",
"$  c #3E5A7F",
"%  c #4C5851",
"&  c #4C5953",
"*  c #416D50",
"=  c #467053",
"-  c #49765A",
";  c #464573",
":  c #41487D",
">  c #4A4978",
",  c #4A4B7D",
"<  c #6D466B",
"1  c #68667A",
"2  c #6D6B7F",
"3  c #B95038",
"4  c #BA5C46",
"5  c #B36A5E",
"6  c #825E74",
"7  c #9E6A66",
"8  c #826074",
"9  c #856377",
"0  c #A46F6C",
"q  c #BF7D68",
"w  c #AA7571",
"e  c #AC7670",
"r  c #CC7556",
"t  c #559725",
"y  c #599C28",
"u  c #599D28",
"i  c #5A9E2B",
"p  c #588730",
"a  c #699E3D",
"s  c #6D9E3D",
"d  c #6F9E3D",
"f  c #5AA328",
"g  c #5DA62D",
"h  c #5FAB2B",
"j  c #5FA82E",
"k  c #60AC2B",
"l  c #62B02E",
"z  c #66B62E",
"x  c #67B72E",
"c  c #67B92F",
"v  c #68BA2F",
"b  c #69BB2F",
"n  c #6DBB2E",
"m  c #69AD36",
"M  c #6AAE36",
"N  c #6AA13B",
"B  c #71AE3F",
"V  c #67B832",
"C  c #68BB33",
"Z  c #69BD30",
"A  c #6DBE38",
"S  c #6FBE3E",
"D  c #70C02F",
"F  c #7BC130",
"G  c #7CC430",
"H  c #538F49",
"J  c #528D4A",
"K  c #5D9743",
"L  c #69A249",
"P  c #6DBA41",
"I  c #70B948",
"U  c #519069",
"Y  c #91944B",
"T  c #92934C",
"R  c #94954F",
"E  c #97974F",
"W  c #AB8657",
"Q  c #AD8558",
"!  c #B38B5D",
"~  c #B58B5E",
"^  c #B38C5D",
"/  c #839079",
"(  c #839279",
")  c #B68D62",
"_  c #B5847E",
"`  c #A8967D",
"'  c #87BD6D",
"]  c #85AF70",
"[  c #C48960",
"{  c #C0806D",
"}  c #D58260",
"|  c #D58A6A",
" . c #D78E6B",
".. c #DA8E69",
"X. c #DB8E6A",
"o. c #DC8C6A",
"O. c #DD8F6A",
"+. c #CD9068",
"@. c #CD9168",
"#. c #DC906C",
"$. c #DD906C",
"%. c #DC926F",
"&. c #C68474",
"*. c #C88672",
"=. c #E39771",
"-. c #E49673",
";. c #E49773",
":. c #E49871",
">. c #E69872",
",. c #E69873",
"<. c #E79A75",
"1. c #E89973",
"2. c #E79B78",
"3. c #2B4581",
"4. c #2A4585",
"5. c #2C4784",
"6. c #2A4688",
"7. c #2B468A",
"8. c #2B478C",
"9. c #2D498A",
"0. c #2B488E",
"q. c #2C498C",
"w. c #334882",
"e. c #374886",
"r. c #344B89",
"t. c #3B4F89",
"y. c #3B508B",
"u. c #414981",
"i. c #424D80",
"p. c #445187",
"a. c #6E7691",
"s. c #6B7898",
"d. c #937A81",
"f. c #858490",
"g. c #8C8B98",
"h. c #8D9099",
"j. c #90909D",
"k. c #97B98A",
"l. c #99BA8D",
"z. c #91A792",
"x. c #93A894",
"c. c #B0AFB5",
"v. c #B6B5BB",
"b. c #B6BBBC",
"n. c #B8B8BF",
"m. c #CF9580",
"M. c #C29B91",
"N. c #C09B92",
"B. c #C19B93",
"V. c #C29C93",
"C. c #DAA288",
"Z. c #DEA28A",
"A. c #C7B2AF",
/* pixels */
"O.O.O.O.1.1.1.1.1.1.1.1...O.O.O.O.O.O.O.1.1.1.1.1.1.1.1.O.O.O.O.",
"O.O.O.O.1.1.1.1.1.1.1.$.O.O.O.O.O.O.O.O.1.1.1.1.1.1.1.$.O.O.O.O.",
"O.O.O.O.1.1.1.1.1.1.>...O.O.O.$.O.O.O.O.1.1.1.1.1.1.1.$.O.O.O.O.",
"O.O.O.1.1.1.1.1.1.1.1.#...W W Q W Q [ :.1.1.1.1.1.1.1.$.O.O.O.O.",
"O.O.O.1.1.1.1.1.<.<.<.#.Y D v D b b m Y ;.<.>.1.1.1.1.O.O.O.O.O.",
"O.O.O.1.1.1.1.1.<.<.:.Y c c D b D b Z Z R ;.>.<.1.1.1.O.O.O.O.O.",
"O.O.O.1.1.1.1.1.=.:.^ C D c v D D D v D Z ^ ;.>.1.1.1.O.O.O.O.O.",
"O.O.O.1.1.1.1.1.2.=.N C D C v n b D D v V N =.<.1.1.1.O.O.O.O.O.",
"O.O.O.1.1.1.1.1.1.@.M C H H H n D b z z z z ^ >.1.1.1.O.O.O.O.O.",
"O.O.O.1.1.1.1.1.<.` P = 1 g.a.* l z b v z z d >.1.1.1.O.O.O.O.O.",
"O.O.O.1.1.1.1.1.<.A.b.j.c.n.v.+ g f h h k b M +.1.1.1.O.O.O.O.O.",
"O.O.O.1.1.1.1.1.1.) I h.c.v.v.+ V t X ] ] j C ! 1.1.1.O.O.O.O.O.",
"O.O.O.O.1.1.1.1.1.=.a * 1 f.a.* b u   ( / u b ~ 1.1.1.O.O.O.O.O.",
"O.O.O.O.1.1.1.1.1.>.R C J J J Z Z Z o . O v Z ) 1.1.1.O.O.O.O.O.",
"O.O.O.O.1.1.1.1.1.1.@.B A n D Z Z G D F n v N :.1.1.1.1.O.O.O.O.",
"O.O.O.O.O.1.1.1.1.1.1.C.x.S b D D Z G D b v R :.1.1.1.1.O.O.O.O.",
"O.O.O.O.O.1.1.1.1.1.1.*.p.z.' A Z Z D Z u p +.1.1.1.1.1.O.O.O.O.",
"O.O.O.O.O.O.1.1.1.1.1.w 8.r.a.x.' A Z Z z Y >.1.1.1.1.1.1.O.O.O.",
"O.O.O.O.O.O.1.1.1.1.-., 6.8.8.w.a.z.L a Q ..1.1.1.1.1.1.1.O.O.O.",
"O.O.O.O.O.O.1.1.1.1.-.: 3.8.8.t.y.y.g. .O.O.1.1.1.1.1.1.1.O.O.O.",
"O.O.O.O.O.O.1.1.1.1.<., 6.3.s.l.k.$ 7 ......1.1.1.1.1.1.1.1.O.O.",
"O.O.O.O.O.O.1.1.1.1.-.w q.5.K v b U @ 8 ....1.1.1.1.1.1.1.1.O.O.",
"O.O.O.O.O.O.1.1.1.1.1.e 7.q.- k h * 6.e.{ $.1.1.1.1.1.1.1.1.O.O.",
"O.O.O.O.O.O.1.1.1.1.>.9 4.7.9.% & 3.q.0.0 ..1.1.1.1.1.1.1.1.O.O.",
"O.O.O.O.O.O.1.1.>.1.*.e.q.4.; | | # 4.4.0 $.1.1.1.1.1.1.1.1.O.O.",
"O.O.O.O.O.O.1.1.<.;.> 4.8.u.q O...6 @ : { $.1.1.1.1.1.1.1.1.O.O.",
"O.O.O.O.O.O.1.1.1.1.d.< i.&.O.O.O.r 3 5 &.} 1.1.1.1.1.1.1.1.O.O.",
"O.O.O.O.O.O.1.1.1.2.V.4 _ O.O.O.O.m.M.M.M.M.1.1.1.1.1.1.1.1.O.O.",
"O.O.O.O.O.O.1.1.1.1.Z.V.M.M.#.O.O.$.$.%.$.$.1.1.1.1.1.1.1.1.O.O.",
"O.O.O.O.O.O.1.1.1.1.1.2.2.%.O.O.O.O.$.$.O.O.1.1.1.1.1.1.1.O.O.O.",
"O.O.O.O.O.O.1.1.1.1.1.1.<.O.O.O.O.O.O.O.O.O.1.1.1.1.1.1.1.O.O.O.",
"O.O.O.O.O.1.1.1.1.1.1.1.>.O.O.O.O.O.O.O.O.1.1.1.1.1.1.1.1.O.O.O."
};
