/* XPM */
static char *walking_front1707420548[] = {
/* columns rows colors chars-per-pixel */
"32 32 135 2 ",
"   c #335418",
".  c #385C1B",
"X  c #3C3A62",
"o  c #3E3B63",
"O  c #393F70",
"+  c #493B60",
"@  c #4A3C61",
"#  c #3D585A",
"$  c #375069",
"%  c #354379",
"&  c #3E467C",
"*  c #3A487E",
"=  c #34527C",
"-  c #3C577E",
";  c #404175",
":  c #414677",
">  c #41487D",
",  c #4A4B7D",
"<  c #76586E",
"1  c #7F5E74",
"2  c #B96654",
"3  c #B36A5F",
"4  c #BA6958",
"5  c #806763",
"6  c #816074",
"7  c #856377",
"8  c #B46F61",
"9  c #A97B64",
"0  c #A6706A",
"q  c #B97262",
"w  c #BA776D",
"e  c #AA7571",
"r  c #B17E76",
"t  c #CC7C5F",
"y  c #C07967",
"u  c #4B8522",
"i  c #4C8624",
"p  c #569626",
"a  c #559925",
"s  c #599C28",
"d  c #5B963E",
"f  c #5E9B3A",
"g  c #5E9C3A",
"h  c #608C35",
"j  c #618D36",
"k  c #6C9C3B",
"l  c #699D3D",
"z  c #5CA429",
"x  c #5EAA2A",
"c  c #5FA737",
"v  c #61AE2C",
"b  c #62B02D",
"n  c #65B42D",
"m  c #66B52E",
"M  c #66B62E",
"N  c #66B82E",
"B  c #67B92F",
"V  c #69BC2F",
"C  c #6DBD2F",
"Z  c #6DAB37",
"A  c #6DAD37",
"S  c #6FA03D",
"D  c #65AA3C",
"F  c #6EAD38",
"G  c #6BAC3C",
"H  c #68B931",
"J  c #6ABB31",
"K  c #69BD30",
"L  c #69BC31",
"P  c #6ABD30",
"I  c #6EBF30",
"U  c #69B33C",
"Y  c #6EBD3E",
"T  c #7DC22F",
"R  c #7EC530",
"E  c #609840",
"W  c #629846",
"Q  c #878449",
"!  c #948A4D",
"~  c #AB8557",
"^  c #B3865D",
"/  c #B2885C",
"(  c #B38C5D",
")  c #839079",
"_  c #85AF70",
"`  c #C38B60",
"'  c #C48960",
"]  c #CD8F67",
"[  c #C9866D",
"{  c #D48263",
"}  c #D78C69",
"|  c #DD8F6A",
" . c #CC9267",
".. c #DC916F",
"X. c #CB8871",
"o. c #CA8974",
"O. c #CF937E",
"+. c #E29771",
"@. c #E39771",
"#. c #E49771",
"$. c #E69872",
"%. c #E39874",
"&. c #E59975",
"*. c #E79B77",
"=. c #E89973",
"-. c #2A4585",
";. c #2A4688",
":. c #2A4689",
">. c #2B4689",
",. c #2B478A",
"<. c #2B488D",
"1. c #2B488E",
"2. c #374681",
"3. c #3B4D81",
"4. c #415286",
"5. c #4C5387",
"6. c #69708B",
"7. c #6E7899",
"8. c #8E948A",
"9. c #92998D",
"0. c #898B9B",
"q. c #8C8D9C",
"w. c #8D9298",
"e. c #979590",
"r. c #BB908B",
"t. c #97B98A",
"y. c #D69B83",
"u. c #D99D86",
"i. c #C19B93",
"p. c #C29C93",
"a. c #DBA08B",
"s. c #DEA288",
"d. c #CDA397",
"f. c #D0A697",
"g. c #D1A89E",
/* pixels */
"| | | | =.=.=.=.=.=.=.=.| | | | | | | | =.=.=.=.=.=.=.=.| | | | ",
"| | | | =.=.=.=.=.=.=.| | | | | | | | | =.=.=.=.=.=.=.| | | | | ",
"| | | | =.=.=.=.=.=.=...| | | | | | | | =.=.=.=.=.=.=.| | | | | ",
"| | | =.=.=.=.=.=.=.=...' ~ ~ ~ ~ ~ ~  .=.=.=.=.=.=.=...| | | | ",
"| | | =.=.=.=.=.%.$.*.` U L L K V V I F  .*.=.=.=.=.=.| | | | | ",
"| | | =.=.=.=.=.*.%. .A T L N N C V V V Z  .=.$.=.=.=.| | | | | ",
"| | | =.=.=.=.=.%.%.D V N x N N M M M M C S +.$.=.=.=.| | | | | ",
"| | | =.=.=.=.=.*./ L N B L B M M M V V V P ( *.=.=.=.| | | | | ",
"| | | =.=.=.=.=.[ l P M v v B B P M M M N V l [ =.=.=.| | | | | ",
"| | | =.=.=.=.a.@ f x P R J P K M M M P K x g + a.=.=.| | | | | ",
"| | | =.=.=.=.g.o f a x c c b M P M b x x a g X g.=.=.| | | | | ",
"| | | =.=.=.=.d.o g v u t.Y u B P i _ _ i x g X d.=.=.| | | | | ",
"| | | | =.=.=.u.+ f V . ) )   T K . ) ) . K g + u.=.=.| | | | | ",
"| | | | =.=.=.=.[ l P x     z T B z     x B l [ =.=.=.| | | | | ",
"| | | | =.=.=.=.$./ J R C T M P V B T C T T / =.=.=.=.=.| | | | ",
"| | | | | =.=.=.=.+.k I R I P B V B T R C k @.=.=.=.=.=.| | | | ",
"| | | | | =.=.] r.^ 1 c J J s p a a K T c 9 #.=.=.=.=.=.| | | | ",
"| | | | | | ] Z T t.7.= d J J P K B N d - 5.o.=.=.=.=.=.=.| | | ",
"| | | | | | ^ m H U w.2.6.8.W E W W 8.6.w.9.e.*.=.=.=.=.=.| | | ",
"| | | | | | #.! d ! *.X.6 4.0.q.0.0.3.$ D J G  .=.=.=.=.=.| | | ",
"| | | | | | =.&...#.=.=.e 1.1.>.1.1.:.# M M M ^ =.=.=.=.=.=.| | ",
"| | | | | | =.=.*.&.=.#., >.1.1.1.1.:.* Q h ! $.=.=.=.=.=.=.| | ",
"| | | | | | =.=.=.=.=.#.7 1.:.:.1.;.1.* } } +.=.=.=.=.=.=.=.| | ",
"| | | | | | =.=.=.=.=.=.e <.<.% < ;.;.-.[ } $.$.=.=.=.=.=.=.| | ",
"| | | | | | =.=.=.=.=.#., <.-.: 8 ; O ; q | =.=.=.=.=.=.=.=.| | ",
"| | | | | | =.=.=.=.=.[ 2.-.:.6 O.4 2 4 O.| =.=.=.=.=.=.=.=.| | ",
"| | | | | | =.=.=.=.=.y > 3.* 0 ..f.f.f...| =.=.=.=.=.=.=.=.| | ",
"| | | | | | =.=.=.=.=.{ 3 r.w t | | | | | | =.=.=.=.=.=.=.=.| | ",
"| | | | | | =.=.=.=.=.s.i.i.i.y.| | | | | | =.=.=.=.=.=.=.=.| | ",
"| | | | | | =.=.=.=.=.=.*.....| | | | | | | =.=.=.=.=.=.=.| | | ",
"| | | | | | =.=.=.=.=.=.=...| | | | | | | | =.=.=.=.=.=.=.| | | ",
"| | | | | =.=.=.=.=.=.=.=.| | | | | | | | =.=.=.=.=.=.=.=.| | | "
};
